<?xml version="1.0" encoding="utf-8"?>
<!-- Generator: Adobe Illustrator 26.0.2, SVG Export Plug-In . SVG Version: 6.00 Build 0)  -->
<svg version="1.1" id="レイヤー_1" xmlns="http://www.w3.org/2000/svg" xmlns:xlink="http://www.w3.org/1999/xlink" x="0px"
	 y="0px" viewBox="0 0 16 16" style="enable-background:new 0 0 16 16;" xml:space="preserve">
<style type="text/css">
	.st0{fill:#FFFFFF;}
</style>
<path class="st0" d="M0,1.1c0-0.3,0.2-0.5,0.5-0.5h1.6c0.2,0,0.5,0.2,0.5,0.4l0.4,1.7h12.4c0.3,0,0.5,0.2,0.5,0.5c0,0,0,0.1,0,0.1
	l-1.6,6.4c-0.1,0.2-0.3,0.4-0.5,0.4H4.3C4,10.1,3.8,10,3.7,9.7l-2-8.1H0.5C0.2,1.6,0,1.4,0,1.1z M3.3,3.7l0.5,2.1h1.5V3.7H3.3z
	 M6.4,3.7v2.1h2.1V3.7H6.4z M9.6,3.7v2.1h2.1V3.7H9.6z M12.8,3.7v2.1h1.5l0.5-2.1H12.8z M14,6.9h-1.2v2.1h0.7L14,6.9z M11.7,6.9H9.6
	v2.1h2.1V6.9z M8.5,6.9H6.4v2.1h2.1V6.9z M5.3,6.9H4.1l0.5,2.1h0.7V6.9z M5.3,12.3c-0.6,0-1.1,0.5-1.1,1.1s0.5,1.1,1.1,1.1
	s1.1-0.5,1.1-1.1S5.9,12.3,5.3,12.3z M3.2,13.3c0-1.2,1-2.1,2.1-2.1s2.1,1,2.1,2.1s-1,2.1-2.1,2.1S3.2,14.5,3.2,13.3z M12.8,12.3
	c-0.6,0-1.1,0.5-1.1,1.1s0.5,1.1,1.1,1.1c0.6,0,1.1-0.5,1.1-1.1S13.4,12.3,12.8,12.3z M10.7,13.3c0-1.2,1-2.1,2.1-2.1s2.1,1,2.1,2.1
	s-1,2.1-2.1,2.1S10.7,14.5,10.7,13.3z"/>
</svg>
