<?xml version="1.0" encoding="utf-8"?>
<!-- Generator: Adobe Illustrator 26.0.2, SVG Export Plug-In . SVG Version: 6.00 Build 0)  -->
<svg version="1.1" id="レイヤー_1" xmlns="http://www.w3.org/2000/svg" xmlns:xlink="http://www.w3.org/1999/xlink" x="0px"
	 y="0px" viewBox="0 0 55 55" style="enable-background:new 0 0 55 55;" xml:space="preserve">
<style type="text/css">
	.st0{fill:#FFFFFF;}
	.st1{fill:#1D2083;}
</style>
<g id="バック">
</g>
<g id="文字">
	<g>
		<circle class="st0" cx="27.5" cy="27.5" r="27.5"/>
		<g>
			<path class="st1" d="M38.23,15.86h-21.6c-0.83,0-1.51-0.68-1.51-1.51l0,0c0-0.83,0.68-1.51,1.51-1.51h21.6
				c0.83,0,1.51,0.68,1.51,1.51l0,0C39.74,15.19,39.06,15.86,38.23,15.86z"/>
			<path class="st1" d="M38.23,22.38h-21.6c-0.83,0-1.51-0.68-1.51-1.51l0,0c0-0.83,0.68-1.51,1.51-1.51h21.6
				c0.83,0,1.51,0.68,1.51,1.51l0,0C39.74,21.7,39.06,22.38,38.23,22.38z"/>
			<path class="st1" d="M38.23,28.88h-21.6c-0.83,0-1.51-0.68-1.51-1.51l0,0c0-0.83,0.68-1.51,1.51-1.51h21.6
				c0.83,0,1.51,0.68,1.51,1.51l0,0C39.74,28.2,39.06,28.88,38.23,28.88z"/>
		</g>
		<g>
			<path d="M13.94,40.04c-0.1,0-0.2-0.04-0.27-0.11c-0.07-0.07-0.11-0.16-0.11-0.27v-5.08c0-0.1,0.03-0.19,0.1-0.26
				c0.07-0.07,0.15-0.1,0.26-0.1c0.1,0,0.19,0.03,0.27,0.1c0.08,0.07,0.12,0.15,0.12,0.26l0.05,0.48c0,0.01,0,0.02,0.02,0.02
				c0.01,0,0.02,0,0.03-0.01c0.61-0.67,1.21-1,1.8-1c0.8,0,1.34,0.36,1.58,1.08c0.01,0.03,0.03,0.03,0.05,0.01
				c0.34-0.36,0.66-0.63,0.96-0.81c0.31-0.19,0.62-0.28,0.95-0.28c1.18,0,1.77,0.76,1.77,2.27v3.31c0,0.1-0.04,0.2-0.11,0.27
				c-0.07,0.07-0.16,0.11-0.27,0.11h-0.12c-0.1,0-0.2-0.04-0.27-0.11c-0.07-0.07-0.11-0.16-0.11-0.27v-3.21
				c0-0.56-0.09-0.97-0.28-1.23c-0.19-0.26-0.46-0.39-0.85-0.39c-0.45,0-0.96,0.31-1.5,0.92c-0.02,0.02-0.03,0.05-0.03,0.08v3.83
				c0,0.1-0.04,0.2-0.11,0.27c-0.07,0.07-0.15,0.11-0.26,0.11h-0.12c-0.1,0-0.2-0.04-0.27-0.11c-0.07-0.07-0.11-0.16-0.11-0.27
				v-3.21c0-0.56-0.09-0.97-0.28-1.23c-0.19-0.26-0.47-0.39-0.86-0.39c-0.46,0-0.96,0.31-1.49,0.92c-0.02,0.02-0.03,0.05-0.03,0.08
				v3.83c0,0.1-0.04,0.2-0.11,0.27c-0.07,0.07-0.16,0.11-0.26,0.11h-0.12V40.04z"/>
			<path d="M25.72,40.17c-0.78,0-1.44-0.28-1.97-0.82c-0.52-0.55-0.79-1.29-0.79-2.21c0-0.46,0.07-0.9,0.22-1.29
				c0.14-0.39,0.34-0.72,0.59-0.98c0.25-0.26,0.51-0.45,0.82-0.6c0.31-0.14,0.63-0.22,0.97-0.22c0.72,0,1.29,0.24,1.69,0.73
				c0.4,0.48,0.61,1.15,0.61,2c0,0.05,0,0.11,0,0.15c-0.01,0.1-0.05,0.2-0.13,0.27c-0.08,0.07-0.17,0.1-0.28,0.1h-3.56
				c-0.03,0-0.05,0.01-0.05,0.04c0.03,0.64,0.24,1.15,0.6,1.53c0.36,0.39,0.83,0.58,1.41,0.58c0.41,0,0.81-0.1,1.19-0.31
				c0.07-0.04,0.15-0.05,0.25-0.03c0.08,0.02,0.15,0.07,0.2,0.14c0.05,0.08,0.06,0.17,0.04,0.27c-0.02,0.09-0.07,0.15-0.15,0.2
				C26.83,40.04,26.29,40.17,25.72,40.17z M23.84,36.66c0,0.03,0.01,0.04,0.04,0.04h3.16c0.03,0,0.04-0.02,0.04-0.05
				c-0.01-0.61-0.14-1.06-0.4-1.38s-0.63-0.48-1.1-0.48c-0.44,0-0.82,0.16-1.14,0.5C24.03,35.69,23.84,36.14,23.84,36.66z"/>
			<path d="M29.66,40.04c-0.1,0-0.2-0.04-0.27-0.11c-0.07-0.07-0.11-0.16-0.11-0.27v-5.08c0-0.1,0.03-0.19,0.1-0.26
				c0.07-0.07,0.15-0.1,0.26-0.1c0.1,0,0.19,0.03,0.27,0.1c0.08,0.07,0.12,0.15,0.12,0.26l0.05,0.47c0,0.01,0,0.02,0.02,0.02
				c0.01,0,0.02,0,0.03-0.01c0.32-0.32,0.64-0.56,0.95-0.73c0.31-0.17,0.64-0.26,1-0.26c1.18,0,1.78,0.76,1.78,2.27v3.31
				c0,0.1-0.03,0.2-0.1,0.27c-0.07,0.07-0.15,0.11-0.27,0.11h-0.13c-0.1,0-0.2-0.04-0.27-0.11c-0.07-0.07-0.11-0.16-0.11-0.27v-3.21
				c0-0.56-0.09-0.97-0.28-1.23c-0.19-0.26-0.47-0.39-0.87-0.39c-0.29,0-0.56,0.07-0.79,0.22c-0.24,0.14-0.52,0.38-0.83,0.7
				c-0.02,0.03-0.03,0.05-0.03,0.08v3.83c0,0.1-0.04,0.2-0.11,0.27c-0.07,0.07-0.16,0.11-0.26,0.11h-0.13V40.04z"/>
			<path d="M37.41,40.17c-1.17,0-1.77-0.75-1.77-2.26V34.6c0-0.1,0.04-0.2,0.11-0.27c0.07-0.07,0.16-0.11,0.27-0.11h0.12
				c0.1,0,0.19,0.04,0.26,0.11s0.11,0.16,0.11,0.27v3.21c0,0.56,0.09,0.97,0.27,1.22c0.17,0.26,0.47,0.38,0.88,0.38
				c0.3,0,0.57-0.08,0.8-0.24c0.24-0.15,0.5-0.41,0.79-0.76c0.02-0.03,0.03-0.05,0.03-0.08v-3.74c0-0.1,0.04-0.2,0.11-0.27
				c0.07-0.07,0.16-0.11,0.27-0.11h0.12c0.09,0,0.19,0.04,0.26,0.11c0.07,0.07,0.11,0.16,0.11,0.27v5.08c0,0.1-0.03,0.19-0.1,0.26
				c-0.07,0.07-0.15,0.1-0.26,0.1s-0.2-0.03-0.27-0.1c-0.07-0.07-0.11-0.15-0.12-0.26l-0.04-0.56c-0.01-0.01-0.02-0.01-0.03-0.01
				c-0.01,0-0.02,0-0.03,0.01c-0.3,0.34-0.6,0.61-0.9,0.78C38.13,40.09,37.79,40.17,37.41,40.17z"/>
		</g>
	</g>
</g>
</svg>
