<?xml version="1.0" encoding="utf-8"?>
<!-- Generator: Adobe Illustrator 26.0.2, SVG Export Plug-In . SVG Version: 6.00 Build 0)  -->
<svg version="1.1" id="レイヤー_1" xmlns="http://www.w3.org/2000/svg" xmlns:xlink="http://www.w3.org/1999/xlink" x="0px"
	 y="0px" viewBox="0 0 115.81 150.41" style="enable-background:new 0 0 115.81 150.41;" xml:space="preserve">
<style type="text/css">
	.st0{fill-rule:evenodd;clip-rule:evenodd;fill:#EFEA74;}
	.st1{fill-rule:evenodd;clip-rule:evenodd;fill:#EEEA7C;}
	.st2{fill-rule:evenodd;clip-rule:evenodd;fill:#EFEB80;}
	.st3{fill-rule:evenodd;clip-rule:evenodd;fill:#6E6C69;}
	.st4{fill-rule:evenodd;clip-rule:evenodd;fill:#F1ED92;}
	.st5{fill-rule:evenodd;clip-rule:evenodd;fill:#EEEA7A;}
	.st6{fill-rule:evenodd;clip-rule:evenodd;fill:#F2F0AF;}
	.st7{fill-rule:evenodd;clip-rule:evenodd;fill:#666566;}
	.st8{fill-rule:evenodd;clip-rule:evenodd;fill:#EFEC8C;}
	.st9{fill-rule:evenodd;clip-rule:evenodd;fill:#F0EB79;}
	.st10{fill-rule:evenodd;clip-rule:evenodd;fill:#EFEC8E;}
	.st11{fill-rule:evenodd;clip-rule:evenodd;fill:#F3F1B7;}
	.st12{fill-rule:evenodd;clip-rule:evenodd;fill:#6A674B;}
	.st13{fill-rule:evenodd;clip-rule:evenodd;fill:#F2F1B6;}
	.st14{fill-rule:evenodd;clip-rule:evenodd;fill:#F0EE9D;}
	.st15{fill-rule:evenodd;clip-rule:evenodd;fill:#F2F1B5;}
	.st16{fill-rule:evenodd;clip-rule:evenodd;fill:#4F4F4A;}
	.st17{fill-rule:evenodd;clip-rule:evenodd;fill:#807D5F;}
	.st18{fill-rule:evenodd;clip-rule:evenodd;fill:#E0C136;}
	.st19{fill-rule:evenodd;clip-rule:evenodd;fill:#E7D46B;}
	.st20{fill-rule:evenodd;clip-rule:evenodd;fill:#E7DA88;}
	.st21{fill-rule:evenodd;clip-rule:evenodd;fill:#EFD780;}
	.st22{fill-rule:evenodd;clip-rule:evenodd;fill:#EDE88C;}
	.st23{fill-rule:evenodd;clip-rule:evenodd;fill:#E9DA88;}
	.st24{fill-rule:evenodd;clip-rule:evenodd;fill:#F1EDA6;}
	.st25{fill-rule:evenodd;clip-rule:evenodd;fill:#5A512B;}
	.st26{fill-rule:evenodd;clip-rule:evenodd;fill:#F0ED90;}
	.st27{fill-rule:evenodd;clip-rule:evenodd;fill:#DBC465;}
	.st28{fill-rule:evenodd;clip-rule:evenodd;fill:#F1F1C6;}
	.st29{fill-rule:evenodd;clip-rule:evenodd;fill:#DFC448;}
	.st30{fill-rule:evenodd;clip-rule:evenodd;fill:#807B62;}
	.st31{fill-rule:evenodd;clip-rule:evenodd;fill:#EFE967;}
	.st32{fill-rule:evenodd;clip-rule:evenodd;fill:#45412E;}
	.st33{fill-rule:evenodd;clip-rule:evenodd;fill:#F3F1B6;}
	.st34{fill-rule:evenodd;clip-rule:evenodd;fill:#4A4842;}
	.st35{fill-rule:evenodd;clip-rule:evenodd;fill:#F3F0A8;}
	.st36{fill-rule:evenodd;clip-rule:evenodd;fill:#38392F;}
	.st37{fill-rule:evenodd;clip-rule:evenodd;fill:#535242;}
	.st38{fill-rule:evenodd;clip-rule:evenodd;fill:#675F44;}
	.st39{fill-rule:evenodd;clip-rule:evenodd;fill:#D9C854;}
	.st40{fill-rule:evenodd;clip-rule:evenodd;fill:#F1EFA2;}
	.st41{fill-rule:evenodd;clip-rule:evenodd;fill:#EEE68E;}
	.st42{fill-rule:evenodd;clip-rule:evenodd;fill:#F1EB92;}
	.st43{fill-rule:evenodd;clip-rule:evenodd;fill:#F1EB80;}
	.st44{fill-rule:evenodd;clip-rule:evenodd;fill:#F1F0B4;}
	.st45{fill-rule:evenodd;clip-rule:evenodd;fill:#514C23;}
	.st46{fill-rule:evenodd;clip-rule:evenodd;fill:#EFEFB2;}
	.st47{fill-rule:evenodd;clip-rule:evenodd;fill:#EADC5E;}
	.st48{fill-rule:evenodd;clip-rule:evenodd;fill:#EDEB8C;}
	.st49{fill-rule:evenodd;clip-rule:evenodd;fill:#EFEC91;}
	.st50{fill-rule:evenodd;clip-rule:evenodd;fill:#EEE968;}
	.st51{fill-rule:evenodd;clip-rule:evenodd;fill:#EFEB86;}
	.st52{fill-rule:evenodd;clip-rule:evenodd;fill:#EDE656;}
	.st53{fill-rule:evenodd;clip-rule:evenodd;fill:#EFE84F;}
	.st54{fill-rule:evenodd;clip-rule:evenodd;fill:#7F6F2A;}
	.st55{fill-rule:evenodd;clip-rule:evenodd;fill:#EEEC91;}
	.st56{fill-rule:evenodd;clip-rule:evenodd;fill:#5F5F5E;}
	.st57{fill-rule:evenodd;clip-rule:evenodd;fill:#515153;}
	.st58{fill-rule:evenodd;clip-rule:evenodd;fill:#525153;}
	.st59{fill-rule:evenodd;clip-rule:evenodd;fill:#5E5A46;}
	.st60{fill-rule:evenodd;clip-rule:evenodd;fill:#EFEC88;}
	.st61{fill-rule:evenodd;clip-rule:evenodd;fill:#E8E7B4;}
	.st62{fill-rule:evenodd;clip-rule:evenodd;fill:#4F4C34;}
	.st63{fill-rule:evenodd;clip-rule:evenodd;fill:#43402A;}
	.st64{fill-rule:evenodd;clip-rule:evenodd;fill:#645A27;}
	.st65{fill-rule:evenodd;clip-rule:evenodd;fill:#6F6329;}
	.st66{fill-rule:evenodd;clip-rule:evenodd;fill:#494729;}
	.st67{fill-rule:evenodd;clip-rule:evenodd;fill:#29270F;}
	.st68{fill-rule:evenodd;clip-rule:evenodd;fill:#342D13;}
	.st69{fill-rule:evenodd;clip-rule:evenodd;fill:#585959;}
	.st70{fill-rule:evenodd;clip-rule:evenodd;fill:#EEEA80;}
	.st71{fill-rule:evenodd;clip-rule:evenodd;fill:#52503F;}
	.st72{fill-rule:evenodd;clip-rule:evenodd;fill:#767568;}
	.st73{fill-rule:evenodd;clip-rule:evenodd;fill:#5D5C55;}
	.st74{fill-rule:evenodd;clip-rule:evenodd;fill:#7B755C;}
	.st75{fill-rule:evenodd;clip-rule:evenodd;fill:#8A8053;}
	.st76{fill-rule:evenodd;clip-rule:evenodd;fill:#545645;}
	.st77{fill-rule:evenodd;clip-rule:evenodd;fill:#808058;}
	.st78{fill-rule:evenodd;clip-rule:evenodd;fill:#494440;}
	.st79{fill-rule:evenodd;clip-rule:evenodd;fill:#5D5630;}
	.st80{fill-rule:evenodd;clip-rule:evenodd;fill:#F0EA76;}
	.st81{fill-rule:evenodd;clip-rule:evenodd;fill:#6F6F6A;}
	.st82{fill-rule:evenodd;clip-rule:evenodd;fill:#51502B;}
	.st83{fill-rule:evenodd;clip-rule:evenodd;fill:#6E6435;}
	.st84{fill-rule:evenodd;clip-rule:evenodd;fill:#7A6E2F;}
	.st85{fill-rule:evenodd;clip-rule:evenodd;fill:#69633A;}
	.st86{fill-rule:evenodd;clip-rule:evenodd;fill:#F2F0AD;}
	.st87{fill-rule:evenodd;clip-rule:evenodd;fill:#6D6B67;}
	.st88{fill-rule:evenodd;clip-rule:evenodd;fill:#575753;}
	.st89{fill-rule:evenodd;clip-rule:evenodd;fill:#2E2C18;}
	.st90{fill-rule:evenodd;clip-rule:evenodd;fill:#464132;}
	.st91{fill-rule:evenodd;clip-rule:evenodd;fill:#636146;}
	.st92{fill-rule:evenodd;clip-rule:evenodd;fill:#4F4F3A;}
	.st93{fill-rule:evenodd;clip-rule:evenodd;fill:#5F5C54;}
	.st94{fill-rule:evenodd;clip-rule:evenodd;fill:#807332;}
	.st95{fill-rule:evenodd;clip-rule:evenodd;fill:#373518;}
	.st96{fill-rule:evenodd;clip-rule:evenodd;fill:#EDEDA9;}
	.st97{fill-rule:evenodd;clip-rule:evenodd;fill:#6A694F;}
	.st98{fill-rule:evenodd;clip-rule:evenodd;fill:#3F4032;}
	.st99{fill-rule:evenodd;clip-rule:evenodd;fill:#494621;}
	.st100{fill-rule:evenodd;clip-rule:evenodd;fill:#626152;}
	.st101{fill-rule:evenodd;clip-rule:evenodd;fill:#565652;}
	.st102{fill-rule:evenodd;clip-rule:evenodd;fill:#39393D;}
	.st103{fill-rule:evenodd;clip-rule:evenodd;fill:#706E6E;}
	.st104{fill-rule:evenodd;clip-rule:evenodd;fill:#4A4A4D;}
	.st105{fill-rule:evenodd;clip-rule:evenodd;fill:#6D6C64;}
	.st106{fill-rule:evenodd;clip-rule:evenodd;fill:#5F5B43;}
	.st107{fill-rule:evenodd;clip-rule:evenodd;fill:#646462;}
	.st108{fill-rule:evenodd;clip-rule:evenodd;fill:#666665;}
	.st109{fill-rule:evenodd;clip-rule:evenodd;fill:#555653;}
	.st110{fill-rule:evenodd;clip-rule:evenodd;fill:#5B5B57;}
	.st111{fill-rule:evenodd;clip-rule:evenodd;fill:#575954;}
	.st112{fill-rule:evenodd;clip-rule:evenodd;fill:#7C7C7B;}
	.st113{fill-rule:evenodd;clip-rule:evenodd;fill:#6F6A4E;}
	.st114{fill-rule:evenodd;clip-rule:evenodd;fill:#494849;}
	.st115{fill-rule:evenodd;clip-rule:evenodd;fill:#6B6B6D;}
	.st116{fill-rule:evenodd;clip-rule:evenodd;fill:#74716D;}
	.st117{fill-rule:evenodd;clip-rule:evenodd;fill:#2C2C19;}
	.st118{fill-rule:evenodd;clip-rule:evenodd;fill:#4F5343;}
	.st119{fill-rule:evenodd;clip-rule:evenodd;fill:#272921;}
	.st120{fill-rule:evenodd;clip-rule:evenodd;fill:#525344;}
	.st121{fill-rule:evenodd;clip-rule:evenodd;fill:#6A645A;}
	.st122{fill-rule:evenodd;clip-rule:evenodd;fill:#48473C;}
	.st123{fill-rule:evenodd;clip-rule:evenodd;fill:#6C6C6B;}
	.st124{fill-rule:evenodd;clip-rule:evenodd;fill:#484845;}
	.st125{fill-rule:evenodd;clip-rule:evenodd;fill:#727271;}
	.st126{fill-rule:evenodd;clip-rule:evenodd;fill:#7CC2D2;}
	.st127{fill-rule:evenodd;clip-rule:evenodd;fill:#80B2BC;}
	.st128{fill-rule:evenodd;clip-rule:evenodd;fill:#C0FFF3;}
	.st129{fill-rule:evenodd;clip-rule:evenodd;fill:#E11C17;}
	.st130{fill-rule:evenodd;clip-rule:evenodd;fill:#E11A15;}
	.st131{fill-rule:evenodd;clip-rule:evenodd;fill:#E11C15;}
	.st132{fill-rule:evenodd;clip-rule:evenodd;fill:#E22317;}
	.st133{fill-rule:evenodd;clip-rule:evenodd;fill:#E22518;}
	.st134{fill-rule:evenodd;clip-rule:evenodd;fill:#E22F19;}
	.st135{fill-rule:evenodd;clip-rule:evenodd;fill:#981F24;}
	.st136{fill-rule:evenodd;clip-rule:evenodd;fill:#E22918;}
	.st137{fill-rule:evenodd;clip-rule:evenodd;fill:#9F1F24;}
	.st138{fill-rule:evenodd;clip-rule:evenodd;fill:#A41F24;}
	.st139{fill-rule:evenodd;clip-rule:evenodd;fill:#E33923;}
	.st140{fill-rule:evenodd;clip-rule:evenodd;fill:#8D1D22;}
	.st141{fill-rule:evenodd;clip-rule:evenodd;fill:#E4442C;}
	.st142{fill-rule:evenodd;clip-rule:evenodd;fill:#8F1E23;}
	.st143{fill-rule:evenodd;clip-rule:evenodd;fill:#AC1E23;}
	.st144{fill-rule:evenodd;clip-rule:evenodd;fill:#E3361F;}
	.st145{fill-rule:evenodd;clip-rule:evenodd;fill:#E3321B;}
	.st146{fill-rule:evenodd;clip-rule:evenodd;fill:#E22C18;}
	.st147{fill-rule:evenodd;clip-rule:evenodd;fill:#E33C24;}
	.st148{fill-rule:evenodd;clip-rule:evenodd;fill:#E22C19;}
	.st149{fill-rule:evenodd;clip-rule:evenodd;fill:#E22717;}
	.st150{fill-rule:evenodd;clip-rule:evenodd;fill:#C0181F;}
	.st151{fill-rule:evenodd;clip-rule:evenodd;fill:#E22517;}
	.st152{fill-rule:evenodd;clip-rule:evenodd;fill:#9C1F24;}
	.st153{fill-rule:evenodd;clip-rule:evenodd;fill:#A61F24;}
	.st154{fill-rule:evenodd;clip-rule:evenodd;fill:#E22516;}
	.st155{fill-rule:evenodd;clip-rule:evenodd;fill:#861D22;}
	.st156{fill-rule:evenodd;clip-rule:evenodd;fill:#E44230;}
	.st157{fill-rule:evenodd;clip-rule:evenodd;fill:#E44632;}
	.st158{fill-rule:evenodd;clip-rule:evenodd;fill:#B31C22;}
	.st159{fill-rule:evenodd;clip-rule:evenodd;fill:#D31618;}
	.st160{fill-rule:evenodd;clip-rule:evenodd;fill:#E55B4B;}
	.st161{fill-rule:evenodd;clip-rule:evenodd;fill:#B81B21;}
	.st162{fill-rule:evenodd;clip-rule:evenodd;fill:#AF1E23;}
	.st163{fill-rule:evenodd;clip-rule:evenodd;fill:#E66052;}
	.st164{fill-rule:evenodd;clip-rule:evenodd;fill:#CC161B;}
	.st165{fill-rule:evenodd;clip-rule:evenodd;fill:#B91A21;}
	.st166{fill-rule:evenodd;clip-rule:evenodd;fill:#E33E26;}
	.st167{fill-rule:evenodd;clip-rule:evenodd;fill:#E34433;}
	.st168{fill-rule:evenodd;clip-rule:evenodd;fill:#A01F24;}
	.st169{fill-rule:evenodd;clip-rule:evenodd;fill:#CD4D32;}
	.st170{fill-rule:evenodd;clip-rule:evenodd;fill:#B01D23;}
	.st171{fill-rule:evenodd;clip-rule:evenodd;fill:#E4472A;}
	.st172{fill-rule:evenodd;clip-rule:evenodd;fill:#C72C1C;}
	.st173{fill-rule:evenodd;clip-rule:evenodd;fill:#AF2023;}
	.st174{fill-rule:evenodd;clip-rule:evenodd;fill:#B41F22;}
	.st175{fill-rule:evenodd;clip-rule:evenodd;fill:#C43124;}
	.st176{fill-rule:evenodd;clip-rule:evenodd;fill:#E55240;}
	.st177{fill-rule:evenodd;clip-rule:evenodd;fill:#F4C8AA;}
	.st178{fill-rule:evenodd;clip-rule:evenodd;fill:#D4442E;}
	.st179{fill-rule:evenodd;clip-rule:evenodd;fill:#E22117;}
	.st180{fill-rule:evenodd;clip-rule:evenodd;fill:#E33418;}
	.st181{fill-rule:evenodd;clip-rule:evenodd;fill:#A81F24;}
	.st182{fill-rule:evenodd;clip-rule:evenodd;fill:#CC151B;}
	.st183{fill-rule:evenodd;clip-rule:evenodd;fill:#BF181F;}
	.st184{fill-rule:evenodd;clip-rule:evenodd;fill:#E11A14;}
	.st185{fill-rule:evenodd;clip-rule:evenodd;fill:#BB1920;}
	.st186{fill-rule:evenodd;clip-rule:evenodd;fill:#BA9D0F;}
	.st187{fill-rule:evenodd;clip-rule:evenodd;fill:#E77890;}
	.st188{fill-rule:evenodd;clip-rule:evenodd;fill:#EFAB1D;}
	.st189{fill-rule:evenodd;clip-rule:evenodd;fill:#ED8E31;}
	.st190{fill-rule:evenodd;clip-rule:evenodd;fill:#F0D95D;}
	.st191{fill-rule:evenodd;clip-rule:evenodd;fill:#A41E32;}
	.st192{fill-rule:evenodd;clip-rule:evenodd;fill:#AA1F33;}
	.st193{fill-rule:evenodd;clip-rule:evenodd;fill:#CB4449;}
	.st194{fill-rule:evenodd;clip-rule:evenodd;fill:#C3425A;}
	.st195{fill-rule:evenodd;clip-rule:evenodd;fill:#CE4F2E;}
	.st196{fill-rule:evenodd;clip-rule:evenodd;fill:#F0BB53;}
	.st197{fill-rule:evenodd;clip-rule:evenodd;fill:#D05160;}
	.st198{fill-rule:evenodd;clip-rule:evenodd;fill:#B82F48;}
	.st199{fill-rule:evenodd;clip-rule:evenodd;fill:#EA8072;}
</style>
<g id="文字">
	<path class="st0" d="M35.3,36.28c-1.7-1.53-3.1-3.4-5.21-4.44c-0.58-0.39-1.25-0.62-1.81-1c-1-0.25-1.83-0.82-2.87-0.56
		c-0.07,1.05,0.75,1.78,1,2.73c0.36,0.55,0.95,0.9,1.61,0.94c1.49,0,2,0.47,2.69,2.42c0.34,1.9,0,3.82,0.34,5.73
		c0.2,0.92,0.34,1.84,0.4,2.78c0.01,0.72,0.15,1.44,0.4,2.12c0.32,0.63,0.54,1.3,0.64,2c0.11,0.28,0.24,0.58,0.61,0.57
		s0.43-0.27,0.45-0.53c0.05-0.61,0.36-0.68,0.88-0.56s0.36,0.37,0.24,0.73c-0.18,0.52,0.25,0.77,0.64,1c1.48,0.74,2.69-0.08,2.92-2
		c0.02-1.74-0.1-3.49-0.37-5.21c-0.17-1.26-0.27-2.53-0.29-3.8C37.06,38.06,36.28,37.06,35.3,36.28z"/>
	<path class="st1" d="M5.6,62.93c0.17,0.5,0.2,1.03,0.09,1.55c0.05,0.1,0.12,0.2,0.2,0.28c0.45,0.7,1.32,1.26,0.56,2.3
		c-0.21,0.29,0.16,0.61,0.48,0.78c0.42,0.17,0.89,0.17,1.31,0c0.54-0.21,0.86-0.74,1.44-0.9c0.46-0.62,1.46-0.86,1.36-1.89
		c-0.07-0.35-0.19-0.69-0.36-1c-0.55-0.48-0.78-1.25-1.48-1.59L9,62.36c1.15-0.57,0.15-1.48,0.35-2.19c0.56-1.3,0.08-2.82-1.13-3.56
		c-0.58-0.4-0.68-0.79-0.13-1.48c0.8-1,1.77-2.13,1.27-3.66C9.33,51.22,9.2,50.99,9,50.84c-0.19-0.16-0.43-0.28-0.51-0.54
		c-0.35-1.24-1.39-1.15-2.34-1.22c-0.1,2,0.34,4-0.11,6c-0.03,0.44,0.11,0.87,0.4,1.2C7,57.04,6.9,58.1,6.2,58.73
		c-0.23,0.89-0.18,1.82-0.48,2.7s0.31,1.43,0.43,2.16C5.9,63.47,6.27,62.7,5.6,62.93z"/>
	<path class="st2" d="M22.69,36.9c0.27,1.18-0.33,2.21-0.59,3.3c-1.23,1.41-1.3,3.25-1.82,4.92c-0.27,1.38-1.09,2.57-1.28,4
		c0.1,0.59-0.18,1.19-0.69,1.5l0,0c0.19,1.57-0.07,3.16-0.75,4.58c-0.38,0.69-0.13,1.56,0.56,1.94c0.14,0.08,0.29,0.13,0.44,0.16
		c1,0.21,1.29,0.87,1.55,1.66c0.28,0.65,0.77,1.2,1.38,1.56c0.58,0.22,0.79,1.36,1.48,0.92s0.09-1.26,0-1.91
		c-0.04-0.25-0.1-0.5-0.2-0.74c-0.04-0.13-0.1-0.25-0.18-0.36c-2.32-2.36-2.37-5-0.94-7.8c0.16-0.31,0.38-0.64,0.28-1
		c-0.64-2.15,0.36-4,0.94-6c0.59-2.07,0.79-4.23,0.59-6.37C23.29,37,23.13,36.7,22.69,36.9z"/>
	<path class="st3" d="M40.32,42.33l-0.9-0.89c-1,0.17-1.65,0.56-1.37,1.73c0.03,0.25,0,0.51-0.09,0.75
		c-0.14,0.91-0.06,1.84,0.24,2.71c0.32,0.27,0.45,0.06,0.63-0.22c-0.14,3.15,0.74,6.18,1,9.28c0.54,0.7,0.85,1.55,0.9,2.43
		c0,0.29,0.08,0.33-0.25,0.38s-0.27,0.43-0.18,0.66c0.31,0.76,0.93,1.35,1.7,1.62c0.5,0.22,1-0.41,1.26-1
		c0.05-0.24-0.01-0.5-0.15-0.7c-0.45,0-0.38-0.15-0.12-0.37c-0.19-0.84,0.21-1.8-0.57-2.52c0.01-0.69,0.18-1.38,0.49-2
		c0.62-0.83-0.27-0.92-0.63-1.27c0-1.56-1-3-0.84-4.53c0.51-0.18,1.13,1,1.55-0.13c0.53-0.78,0.32-1.83-0.46-2.36
		c-0.16-0.11-0.34-0.19-0.53-0.24c-0.58-0.28-1.07-0.61-0.66-1.38C41.54,43.35,40.45,43.1,40.32,42.33z"/>
	<path class="st4" d="M37.25,73c0.67-0.38,1.49-0.57,1.76-1.43c0.15-0.16,0.14-0.41-0.01-0.57c-0.11-0.05-0.25-0.05-0.36,0
		c-1.09,1.07-2.49,1.77-4,2c0.42-0.42,0.61-0.74,0.54-1.13c-0.11-0.56-0.57-0.56-1-0.64c-0.65-0.12-0.8-0.51-0.42-1
		s0.3-0.91,0.52-1.28c1-1.72,0.38-3.32-0.23-4.92c-0.19-0.48-0.33-0.93,0-1.32c0.63-0.79,0.74-1.88,0.29-2.79
		c-0.41-1.31-1.35-2.4-1.49-3.82c0-0.24-0.3-0.4-0.59-0.43c-0.52,0.27-0.48,0.79-0.47,1.23c0.01,0.51-0.1,1.01-0.33,1.47
		c0.52,3.53,0.47,7.1,0.7,10.65c0.06,0.92-0.29,1.84-0.25,2.8c0,0.66-0.7,0.92-1.18,1.26c-0.11,0.09-0.2,0.19-0.28,0.31
		c-0.17,0.31-0.3,0.65-0.38,1c-0.02,0.21-0.02,0.42,0,0.63c0,1,0.38,1.35,1.33,1c0.28-0.1,0.6,0,0.82-0.31l0,0
		c0.65-0.71,1.6-0.73,2.42-1l0,0C35.6,74.29,36.48,73.71,37.25,73z"/>
	<path class="st5" d="M10.12,29.13c1.75,0.27,3.45,0.75,5.09,1.42c0.56,0.18,1.13,0.34,1.7,0.46c0.17-0.07,0.28-0.24,0.27-0.43
		c-0.04-0.12-0.1-0.22-0.19-0.31c-0.18-0.17-0.45-0.23-0.6-0.45c0.29-0.5,1-0.3,1.21-0.89c-1.08-1.47-2.85-2.26-4.66-2.1
		c-2.44,0-4.88-0.37-7.31-0.09c-1.35,0.15-2.75,0-4,0.55c-0.42,0.16-1,0.13-1,0.8c0.07,0.51,0.58,0.58,1,0.69c2,0.53,4,0.19,6,0.27
		C8.46,28.95,9.3,28.98,10.12,29.13z"/>
	<path class="st6" d="M38.69,71.05L39,71c0.54-0.08,0.57-0.61,0.85-0.92c0.9-1.11,0.84-2.42,0.84-3.73c-0.07-0.59,0-1.2-0.1-1.8
		c0.11-1.29,0.15-2.58,0.12-3.87c-0.1-0.57-0.24-1.13-0.43-1.68c-0.38-2.1-0.42-4.25-0.72-6.34c-0.23-2-0.6-3.98-1.12-5.93
		c-0.35-0.91-0.42-1.9-0.18-2.84c0.21-0.43,0-0.82-0.12-1.22c-0.22-0.82-0.06-1.7,0.42-2.4c-0.07-0.14-0.37-0.23-0.1-0.45
		c0-0.84-0.65-0.78-1.23-0.77c-0.08,3.16,0.69,6.25,0.73,9.39c-0.36,1.92-0.24,3.91,0.37,5.77c0.86,3.8,1.16,7.7,0.9,11.59
		c-0.05,1.46-0.32,2.89-0.8,4.27C38.24,70.41,38.35,70.85,38.69,71.05z"/>
	<path class="st7" d="M41.3,44.23c-1.49,0.76-0.16,1.2,0.27,1.47c0.67,0.4,1.09,1,2,1.62c-1.4-0.13-1.5,0.32-0.86,1
		c-0.72,0.38-0.88-1.25-1.67-0.36c0.9,1.98,2.33,3.68,4.12,4.92c0.22,0.12,0.5,0.09,0.69-0.08c0.07-0.93,0.26-1.72,1.34-2
		c0.24-0.05,0.39-0.29,0.34-0.52c-0.04-0.17-0.17-0.3-0.34-0.34c-0.49-0.16-0.76-0.68-1.34-0.67c-0.8,0-1.21-0.54-1.55-1.23
		c-0.06-0.1,0.16-0.13,0,0s0,0,0,0.09c0.44,0.58,0.69,1.64,1.74,0.68c-0.21-0.88-0.81-1.61-1.62-2l-2-2.24
		c-0.15,0.05-0.27,0.34-0.45,0S41.63,44,41.3,44.23z"/>
	<path class="st8" d="M23.81,80.67c0.8-0.85,2.31-0.82,2.72-2.17c-0.59-1.71,0.19-3.4,0.1-5.11c0-0.77,0.12-1.57-0.53-2.18
		c-0.81-0.11-0.71,0.67-1,1.05c-0.42,0.69-0.62-0.52-1-0.12c0.1,2.35-0.65,4.67-2.1,6.52c0.23,0.51,0.66-0.07,1.1,0.23
		C23.85,79.42,23.71,80,23.81,80.67z"/>
	<path class="st9" d="M23.81,80.67c-0.12-0.73,0.71-0.74,1-1.25c-0.32-0.65-1.84,0.18-1.54-1.22c-0.42,0.12-0.73,0.53-1.22,0.46
		c-0.17,0.19-0.32,0.4-0.43,0.63c-0.56,1.87-1.92,3.2-3.11,4.65c-0.23,0.28-0.7,0.53-0.4,0.94c0.33,0.38,0.88,0.46,1.3,0.19
		c0.52-0.29,0.98-0.68,1.37-1.13C21.66,82.76,23.36,82.31,23.81,80.67z"/>
	<path class="st10" d="M24.08,72.14c0.13,0.16,0.25,0.33,0.35,0.51c0.11,0.21,0.09,0.59,0.44,0.51s0.36-0.42,0.32-0.74
		c-0.2-1.51-0.56-2.99-1.08-4.42c-0.27-0.62-0.04-1.35,0.54-1.7c0.19,0.39,0.22,1,0.94,0.77c0.06-0.06,0.1-0.14,0.12-0.23
		c-0.18-1.9-0.87-3.72-2-5.26c-0.19,0.06-0.19,0.23-0.2,0.39c-0.01-0.1-0.01-0.21,0-0.31c0.06-0.72-0.05-1.45-0.31-2.13
		c-0.1-0.37-0.14-0.9-0.77-0.8l0.6,2.72c-0.72-0.23-0.79-1.21-1.56-0.91c0.46,2,0.92,4,1.36,6c0.14,0.98,0.48,1.91,1,2.75
		C24.32,70.16,24.41,71.2,24.08,72.14z"/>
	<path class="st11" d="M13.15,27c1.82-0.14,3,1,4.38,2c-0.06,0.11-0.03,0.25,0.07,0.33c0.47,0.21,1.01,0.18,1.46-0.07
		c0.86-0.39,1.84-0.39,2.7,0c0.46,0.11,0.91,0.2,1.36,0.33c0.79,0.21,1.5,0.76,2.39,0.59c0.87,0.44,1.82,0.69,2.79,0.74
		c0.13,0.1,0.23,0.07,0.28-0.09c-2.42-1.28-4.98-2.25-7.64-2.91c-2.92-0.87-5.95-1.32-9-1.36C12.14,27.24,12.77,26.85,13.15,27z"/>
	<path class="st12" d="M8.89,51.05c0.08,0.17,0.16,0.34,0.25,0.5c0.25,1.11,0.12,2.32,0.85,3.31c0.71,0.49,0.77-0.48,1.24-0.55
		c0.26-0.18,0.5-0.37,0.41-0.74c-0.57-0.66,0-1.24,0.11-1.86c0.4-0.17,0.45-0.55,0.56-0.9s-0.65-0.2-0.32-0.63
		c-0.15-0.53-0.58-0.94-1.12-1.07c-0.51-0.09-1.02,0.11-1.34,0.51c0-0.61-0.57-1.26,0.2-1.77c0.13-0.12,0.21-0.3,0.2-0.48
		c-0.19-0.45-0.64-0.46-1-0.59c-0.18-0.07-0.38-0.09-0.57-0.06c-0.87,0.53-0.46,1.39-0.56,2.13C8.08,49.62,8.44,50.36,8.89,51.05z"
		/>
	<path class="st13" d="M47.41,66.21c1,0.45,1.77-0.3,2.27-0.85c2.08-2.29,4.53-4.22,7.25-5.7c0.24-0.1,0.38-0.35,0.35-0.61
		c-0.28-0.2-0.65-0.2-0.93,0c-1.35,1.25-3.24,1.65-4.81,2.61c-0.1-0.41,0.16-1-0.47-1.12c-0.43,0-0.64,0.33-0.86,0.62
		c-0.46,0.82-1,1.58-1.61,2.29c-0.14,0.19-0.23,0.41-0.28,0.64C48.33,64.93,47.36,65.35,47.41,66.21z"/>
	<path class="st14" d="M20.11,59c0.12-0.93-0.53-1.78-1.45-1.9c0,0-0.01,0-0.01,0c-0.65-0.11-1.09-0.72-0.98-1.37
		c0.02-0.14,0.07-0.28,0.14-0.4c0.61-1.49,1.52-3,0.5-4.67C18,52.37,16.8,53,15.12,52.87c-0.43,0.63-0.09,1.17,0.19,1.72
		c0.06,0.11,0.13,0.22,0.21,0.32c0.43,0.4,0.22,1.06,0.61,1.47c0.37,0.58,1,0.95,1.69,1C18.8,57.51,19.66,58.11,20.11,59z"/>
	<path class="st15" d="M60.87,56.13c1.33-0.71,2.57-1.57,3.71-2.55c0.27-0.16,0.4-0.48,0.31-0.78c-0.14-0.38-0.44-0.34-0.74-0.34
		c-1.85,0.06-3.71,0.01-5.56-0.13c-1.44-0.04-2.87-0.24-4.26-0.6c-0.2,0.38,0.05,0.6,0.31,0.8c0.11,0.06,0.22,0.11,0.34,0.15
		c1.58,0.75,3.34,1.02,5.07,0.77c0.52-0.14,1.06,0.12,1.29,0.61c0.24,0.49,0.04,1.08-0.45,1.33c-0.1,0.07-0.17,0.17-0.22,0.28
		C60.64,55.85,60.72,56.03,60.87,56.13z"/>
	<path class="st16" d="M46,48.75c-0.85,0.55-1.18-0.15-1.45-0.69c-0.15-0.57-0.63-1-1.22-1.06c1,1,0.94,2.51,2.54,2.54
		c0.55,0,0.58,1,1.33,0.65c0.12,0,0,0.44-0.24,0.48c-1.39,0.18-1.55,1-1.15,2.12c-0.27,0.7,0.1,1.14,0.63,1.5
		c2,0.17,2.08,0.11,2.39-1.49c-0.18-0.36-0.33-0.73-0.47-1.11c-0.45-0.38-0.7-0.79-0.26-1.34c0.01-0.25-0.11-0.49-0.31-0.64
		l-0.31-0.12C46.93,49.42,46.74,48.6,46,48.75z"/>
	<path class="st17" d="M15.67,54.63c-0.41-0.52-0.35-1.18-0.55-1.76c-0.75-0.52-0.83-1.53-1.54-2.07c-0.33,0.35,0,0.71,0,1.16
		c0,0.06-0.2-0.15,0-0.12s0.07,0,0-0.11c-0.14-0.43-0.33-0.84-0.58-1.22c-0.33-0.4-0.65-0.53-1-0.13c-0.24,0.41,0.34,0.24,0.34,0.48
		c0.17,0.96,0.55,1.88,1.1,2.69c0.44,0.63,0.77,1.32,1,2.05c0.49,0.97,0.17,2.16-0.74,2.76c0,0.45-0.38,0.87-0.11,1.35
		c0.22,0.29,0.51,0.15,0.78,0.11s0.4-0.5,0.59-0.76c0.72-0.75,0.61-1.9,1.27-2.68c0.13-0.54,0.02-1.12-0.32-1.57
		c-0.19,0.07-0.41,0.22-0.55,0S15.6,54.85,15.67,54.63z"/>
	<path class="st18" d="M5.6,62.93c0.48,0.1,0.27,0.68,0.64,0.91c0.13-0.82-0.56-1.55-0.16-2.35c-0.23-1.43-0.23-2.89,0-4.32
		c0.01-0.13,0.01-0.26,0-0.39C6,56.19,5.98,55.59,6,55c0.48-2.11,0.4-4.3-0.24-6.37c-0.02-0.12-0.06-0.24-0.1-0.35
		c-0.12-0.26-0.21-0.64-0.55-0.59s0,0.58-0.27,0.81c0.27,2.06,0.38,4.13,0.34,6.21c0.09,2.17-0.62,4.33-0.06,6.5
		C5.26,61.78,5.47,62.34,5.6,62.93z"/>
	<path class="st10" d="M26,71.19c0.43,1.57,0.43,3.24,0,4.81c-0.16,0.9-0.4,1.81,0.49,2.51c0.39-0.11,0.82-0.19,0.84-0.74
		c-0.02-0.16-0.06-0.33-0.12-0.48c-0.01-0.94,0.07-1.87,0.26-2.79c0.09-0.45,0.09-0.92,0-1.37c-0.47-1.5-0.31-3.13-1-4.59
		c-0.23-0.52-0.39-1-1-1.23c-0.31-0.05-0.59,0.16-0.64,0.46c-0.02,0.14,0.01,0.29,0.09,0.41C25.56,69.12,25.41,70.26,26,71.19z"/>
	<path class="st19" d="M17.08,30.71c-0.06,0.1-0.12,0.2-0.17,0.3c0.78,0.52,1.61,0.97,2.47,1.34c1.51,0.49,2.61,1.8,2.83,3.37
		c0.04,0.43,0.21,0.84,0.48,1.18l0.64,0.39c0.38-0.83,0-1.68,0-2.53c-0.67-2.44-2.84-3.25-4.76-4.29
		C18.08,30.17,17.45,30.27,17.08,30.71z"/>
	<path class="st20" d="M14.86,59.06c-0.21,0.23-0.41,0.47-0.61,0.7c-0.76,0.53-0.92,1.5-1.57,2.12c-0.13,0.18-0.27,0.36-0.42,0.53
		c-0.38,0.5-0.71,1.03-1,1.59c-0.08,0.38-0.51,0.63-0.39,1.08c0,0.88-0.87,1.1-1.22,1.71c-0.1,0.17-0.33,0.3-0.16,0.55
		c2-1.55,3.59-3.57,4.62-5.89C14.49,60.7,15.09,60,14.86,59.06z"/>
	<path class="st21" d="M13.15,27L12,26.54c-2.81-0.25-5.64-0.23-8.45,0.08c-0.71-0.03-1.4,0.16-2,0.54
		c-0.09,0.14-0.06,0.24,0.09,0.3c2.58-0.48,5.22-0.63,7.84-0.46C10.7,27.11,11.93,27,13.15,27z"/>
	<path class="st22" d="M47.79,49.71c0.07,0.25,0.14,0.49,0.2,0.73s0.33,0.55,0.47,0.84c0.33,0.49,0.66,1,1.33,1
		c0.22-0.22,0.48-0.07,0.73-0.08c0.86-0.22,1.76,0.09,2.61-0.24c0.06-0.18-0.01-0.38-0.17-0.49C51.23,50.89,49.68,49.79,47.79,49.71
		z"/>
	<path class="st23" d="M1.55,27.46l-0.09-0.3c-0.09-0.01-0.17-0.01-0.26,0c-0.49,0.21-1.25,0.33-1.2,0.93s0.76,0.75,1.32,0.85
		c2.91,0.46,5.87,0.51,8.8,0.16c-0.75-0.61-1.59-0.36-2.44-0.37c-2,0-4.07,0.39-6.07-0.2c-0.33-0.1-0.77-0.17-0.81-0.54
		S1.23,27.57,1.55,27.46z"/>
	<path class="st24" d="M27.12,77.6l0.25,0.16l4.89-2.12c-1.75,0.38-1.75,0.38-1.9-1.4c-0.66-0.07-0.79,0.53-1.08,0.89
		c-0.34,0.39-0.73,0.72-1.16,1C27.7,76.55,27.36,77.05,27.12,77.6z"/>
	<path class="st25" d="M11.9,50.38c1.21-0.24,1,1.23,1.78,1.5c0.19-0.38-0.1-0.72-0.1-1.08c-1.24-1.12-2.18-2.56-3.65-3.43
		l-0.24,0.34c-0.45,1.13,0.35,1.37,1.15,1.6C11.28,49.56,11.65,49.93,11.9,50.38z"/>
	<path class="st26" d="M60.87,56.13c0-0.17-0.08-0.34-0.11-0.51c0,0-0.08-0.06-0.11-0.06c-1.73,0.84-3.26,2.05-4.49,3.53
		c0.03,0.06,0.06,0.12,0.1,0.17l1-0.21C58.85,58.54,59.77,57.23,60.87,56.13z"/>
	<path class="st27" d="M8.47,46.9l0.44-0.12c-1-0.6-1.94-1.26-3-1.78c-0.43-0.22-1-0.75-1.51-0.12c-0.46,0.54-0.54,1.31-0.22,1.94
		c0.11,0.23,0.27,0.44,0.4,0.66c0.57,0,0.56-0.4,0.51-0.8s-0.25-0.62,0-0.83s0.59,0.18,0.87,0.31c0.11,0.07,0.22,0.14,0.32,0.22
		c0.24,0.16,0.49,0.3,0.75,0.43C7.55,47,8,46.76,8.47,46.9z"/>
	<path class="st28" d="M46,48.75c0.51,0.25,0.73,1,1.47,0.84c-0.18-1.4-1.15-2.21-2.16-3c-0.48-0.39-0.62-0.17-0.86,0.16L46,48.75z"
		/>
	<path class="st29" d="M8.23,67.65H6.92C5.8,67.44,6,66.57,6,65.78c0-0.44,0.37-0.88,0-1.31H5.69c-1.04,0.99-1.09,2.65-0.09,3.69
		c0.11,0.11,0.23,0.22,0.35,0.31C6.74,68.26,7.69,68.54,8.23,67.65z"/>
	<path class="st30" d="M38.56,40.24c-0.89,0.17-1.25,0.52-0.77,1.5c0.24,0.69,0.4,1.4,0.47,2.12c0.28-0.29,0.13-0.63,0.1-1
		s-0.48-1,0.53-0.78c0.5,0.13-0.1-0.8,0.53-0.68C39.18,41,39.41,40.24,38.56,40.24z"/>
	<path class="st31" d="M6.49,46.28c-0.08-0.4-0.49-0.45-0.72-0.69s-0.49-0.43-0.79-0.23c-0.33,0.22-0.45,0.64-0.29,1
		c0.18,0.41,0.44,0.76-0.07,1.1l0.21,1l0.37-0.75l0.2,0.91c0.15,0.11,0.36,0.11,0.51,0c0.19-0.39,0.16-0.86-0.1-1.22
		C5.49,46.66,5.89,46.42,6.49,46.28z"/>
	<path class="st32" d="M47.41,66.21c0.4-0.68,1.18-1.15,1.13-2.07c-0.61-0.27-0.87,0.25-1.22,0.54c-0.23,0.32-0.53,0.59-0.89,0.76
		c-0.15,0.09-0.28,0.22-0.37,0.37c-0.25,0.27-0.35,0.64-0.27,1c0.06,0.18,0.24,0.28,0.42,0.23C46.44,66.5,47.09,66.6,47.41,66.21z"
		/>
	<path class="st33" d="M37.23,39c0.43,0.23,1,0.21,1.23,0.77c0-0.76-2.46-3.47-3.16-3.51C35.94,37.19,36.58,38.11,37.23,39z"/>
	<path class="st34" d="M40.52,71c1.2,0,1.74-1.14,2.67-1.61c-0.07-0.18-0.22-0.32-0.4-0.38c-1.67-0.23-1.89-0.06-2.37,1.84L40.52,71
		z"/>
	<path class="st35" d="M20.28,45.12c0.81-0.86,0.55-2.09,1.06-3.08c0.29-0.56,0.82-1.11,0.76-1.84
		C20.43,41.45,20.52,43.35,20.28,45.12z"/>
	<path class="st36" d="M42.76,69.11l0.43,0.24c0.77-0.44,1.51-0.93,2.31-1.29c0.43-0.15,0.71-0.55,0.71-1L46,66.83
		C44.88,67.56,43.45,67.81,42.76,69.11z"/>
	<path class="st37" d="M41.3,44.23c0.64,0,0.45,0.69,0.72,1c0.38-0.17,0.27-0.53,0.41-0.77c-0.62-0.79-1.33-1.51-2.11-2.14
		C40.06,43.26,41.19,43.49,41.3,44.23z"/>
	<path class="st38" d="M39.5,70.06L39,71l0.06,0.53c0.77,0.48,1.16,0,1.51-0.58v-0.06c-0.14-0.24-0.32-0.47-0.52-0.67
		C39.9,70.08,39.7,70.02,39.5,70.06z"/>
	<path class="st24" d="M34.68,74.59c-0.9-0.41-1.96-0.01-2.37,0.88c-0.02,0.04-0.03,0.08-0.05,0.12
		C33.16,75.54,34.01,75.19,34.68,74.59z"/>
	<path class="st39" d="M8.23,67.65c-0.61,0.68-1.54,0.45-2.28,0.79c1.28,0.17,2.57-0.23,3.53-1.1l0.16-0.54
		C9,66.8,8.79,67.51,8.23,67.65z"/>
	<path class="st40" d="M18.31,50.6c0.43-0.16,0.93-0.09,1.32-0.46c-0.14-0.39-0.63-0.58-0.63-1C18.64,49.54,18.21,50,18.31,50.6z"/>
	<path class="st24" d="M37.25,73c-1.09,0.16-1.66,1.17-2.57,1.62C35.76,74.56,36.73,73.95,37.25,73z"/>
	<path class="st41" d="M53,51.46c0,0.18,0.07,0.36,0.11,0.53c0.5,0.38,1,1,1.69,0.41c-0.14-0.22-0.28-0.45-0.43-0.67
		C53.96,51.48,53.47,51.38,53,51.46z"/>
	<path class="st42" d="M28.58,30.81L28.3,30.9c0.52,0.45,1,1,1.79,0.94C29.88,31.06,29.05,31.19,28.58,30.81z"/>
	<path class="st43" d="M38.72,54.34C38.24,52.4,38,50.41,38,48.41c-0.05,1.19-0.65,1.77-1.85,1.65c-0.47-0.05-1-0.12-1.21-0.59
		s0.7-0.34,0.79-1c-0.57-0.15-1.19-0.35-1.82-0.47c-1.48-0.28-0.07,1.12-0.8,1.33c-0.82-0.53,0-1.81-1-2.27
		c-0.44,0.83,0,1.61,0.14,2.42c0.24,0.87,0.65,1.68,1.2,2.39c0.57,1.06,0.87,2.24,0.87,3.44c0.16,2.19,0.69,4.33,0.8,6.53
		c0.01,0.17,0.04,0.35,0.1,0.51c0.24,0.6,0.45,1.25,1.18,1.41c0.39,0.12,0.82-0.06,1-0.43c0.35-0.64,0.3-1.42-0.15-2
		c-0.2-0.21-0.36-0.46-0.46-0.74c0.53,0.57,1.23,0.68,1.26-0.1c0.06-1.26,0.49-2.61,0.09-3.79c-0.31-0.89-0.66-1.75-1.07-2.6
		c-0.05-0.13-0.11-0.26-0.17-0.38c0.36,0.46,0.57,1.02,0.61,1.6c0.08,0.37,0.19,0.7,0.67,0.59s0.5-0.42,0.45-0.8
		c-0.08-0.59-0.45-1.1-0.48-1.67C38.34,53.72,38,54.36,38.72,54.34z"/>
	<path class="st44" d="M32.64,49.57L32.1,47c-0.15-0.67-0.31-1.34-0.46-2c-0.14-0.05-0.29-0.02-0.39,0.09
		c-0.47,0.88-0.1,1.8-0.13,2.69c0.19,1.79,0.22,3.59,0.1,5.38c0.05,1.48-0.13,3,0,4.44c0.03,0.21,0.11,0.4,0.25,0.56l0.18,0.1
		c0.58-0.17,0.62-0.58,0.55-1.1c-0.1-0.49-0.04-1.01,0.19-1.46c0.21-0.42,0.28-0.89,0.21-1.35c-0.04-0.38-0.04-0.76,0-1.14
		C32.94,52.02,32.95,50.76,32.64,49.57z"/>
	<path class="st45" d="M18.82,29c-0.34,0.29-0.75,0.11-1.13,0.16c-0.22-0.06-0.33,0-0.38,0.26c0.15,0.41,0.58,0.63,1,0.53
		c0.63-0.13,1.28,0.06,1.73,0.52c0.65,0.55,1.48,0.85,2.34,0.84c1.07-0.03,2.05,0.58,2.48,1.56c0.2,0.61,0.57,1.16,1.06,1.58
		c0.66,0.39,1.49-0.19,2.12,0.39c0.31,0.12,0.62,0.17,0.85-0.16c0.1-0.71-0.42-0.88-0.94-1.05c-0.53-0.13-1.01-0.42-1.36-0.84
		c-0.96-1.36-2.38-2.33-4-2.72C21.32,29.89,20.21,29,18.82,29z"/>
	<path class="st46" d="M31.43,45.07h0.21c0.18-0.97,0.08-1.98-0.27-2.9c-0.39-2.07,0.13-4.18-0.39-6.23c-1-0.52-1-0.52-1.08,1.15
		c0.15,0.79,0.22,1.59,0.23,2.39c0.3,1.47,0.53,2.95,0.68,4.44C30.78,44.39,31.02,44.83,31.43,45.07z"/>
	<path class="st47" d="M22.54,30.32c1.48,0.61,2.86,1.45,4.07,2.5c-0.11-1-0.91-1.7-1.1-2.66c-0.73-0.37-1.51-0.65-2.31-0.82
		C22.37,29.26,22.65,29.92,22.54,30.32z"/>
	<path class="st48" d="M30.21,36.82c0.28-0.29-0.44-1.4,0.77-0.93c-0.18-0.9-1-1.39-1.4-2.15c-0.28-0.51-1.06,0-1.61-0.08
		c0.12,0.53,0.8,0.56,0.94,1.06L29,34.88C29.74,35.32,29.37,36.45,30.21,36.82z"/>
	<path class="st49" d="M10.3,55c-0.39-1.14-0.78-2.28-1.16-3.43c-0.06,0.07-0.16,0.15-0.15,0.2c0.33,1.61-0.62,2.62-1.65,3.61
		c-0.33,0.32,0.25,1.36,0.93,1.7c0.96,0.65,1.24,1.93,0.64,2.92c-0.21,0.22-0.21,0.58,0,0.8c1.06,1,0.26,1.27-0.72,1.55
		c1.33,0,1.42,1.47,2.39,1.9c0.19-0.03,0.34-0.18,0.37-0.37c0-0.12-0.04-0.24-0.1-0.35c-0.88-1.52-0.88-3.4,0-4.92
		C11.21,57.38,11.01,56.06,10.3,55z"/>
	<path class="st50" d="M5.91,48.53L5.4,48.65c0.41,1.91,1.09,3.8,0.27,5.78c-0.08,0.21,0.06,0.51,0.1,0.76
		c-0.09,0.53,0.02,1.08,0.31,1.54c0.18,0.3-0.16,0.17-0.17,0.29l0,0c0,0.62-0.19,1.28,0.39,1.77c0.77-0.36,1.11-1.27,0.75-2.05
		C7.03,56.71,7.02,56.68,7,56.65c-0.56-0.9-0.73-1.98-0.47-3c0.2-1.55,0.11-3.13-0.26-4.65C6.37,48.66,6.33,48.44,5.91,48.53z"/>
	<path class="st51" d="M5.91,48.53c0.2,0.07,0.34,0.24,0.36,0.45c0.42,0,0.32,1.18,1.13,0.45c0.25-0.23,0.54,0.31,0.66,0.61
		c0.12,0.3,0.2,1,0.83,1c0-0.9-0.65-1.58-0.87-2.4C7.7,48,7.42,47.35,7.12,46.7c-0.03-0.27-0.27-0.47-0.55-0.45
		c-0.03,0-0.05,0.01-0.08,0.02c-1.12-0.38-1.38,0-1,1.07L5.91,48.53z"/>
	<path class="st52" d="M6,64.47C5.89,65.3,5.38,66,5.66,67c0.23,0.76,0.55,1,1.26,0.71c-0.14-0.2-0.48-0.55-0.27-0.63
		c1.59-0.66,0.14-1.24,0-1.82C6.57,64.91,6.33,64.61,6,64.47z"/>
	<path class="st53" d="M6.3,58.79L5.91,57c-0.51,1.46-0.45,3.06,0.17,4.47C6.41,60.62,6.48,59.69,6.3,58.79z"/>
	<path class="st54" d="M10.87,63.9l-0.3,0.32c0,0.33-0.22,0.71,0.29,0.86c0.36-0.21,0.59-0.59,0.62-1
		C11.32,63.83,11.14,63.71,10.87,63.9z"/>
	<path class="st55" d="M23.05,34.59c-0.03,0.91,0.06,1.82,0.28,2.7c-0.28,1.67-0.17,3.37-0.46,5c-0.22,1.31-0.85,2.47-1.12,3.76
		c-0.28,0.7-0.38,1.47-0.29,2.22c0.51,1.8-0.71,3.23-1,4.85c-0.1,1.1-0.06,2.21,0.1,3.31c1.28,0,0.86,1.69,1.87,2
		c0.42-0.93-0.07-1.75-0.39-2.56c-0.56-1.05-0.39-2.35,0.43-3.22c0.06-1.54-0.15-3.08,0-4.62c0-0.31,0-0.61,0.34-0.75
		c0.59-1.33,0.64-2.86,1.52-4.08c0.1-0.32,0.16-0.66,0.16-1c0-2-0.56-3.93-0.3-5.92C24.06,35.54,24.13,34.69,23.05,34.59z"/>
	<path class="st46" d="M22.44,52.6c-1.32,0.22-1.2,1.26-1.1,2.15c0.15,1.27,0.95,2.39,1.05,3.69l0.06,0.26
		c0.87,1.18,0.62,2.7,1.22,4c0.25-0.39-0.07-0.74-0.05-1.1c0.38-1.29-0.23-2.53-0.21-3.8c-0.05-1.16-0.21-2.31-0.48-3.44
		c-0.14-0.53,0.06-1.13-0.32-1.62L22.44,52.6z"/>
	<path class="st7" d="M47.42,64.91l1.12-0.77l0.16-0.58c0.45-0.78,1.12-1.46,0.87-2.52c-0.09-0.4,0.38-0.6,0.75-0.71
		c0.25-0.29,0.25-0.71,0-1c-0.64-0.16-1.07-0.77-1-1.43c0.07-0.62-0.36-0.61-0.79-0.54c0.04-0.19,0.14-0.36,0.29-0.48
		c0.87-1,0.87-1-0.38-1.24c-0.36-0.08-0.61-0.52-1.06-0.32c-0.23,1.07-0.81,1.55-1.8,1c0.24-0.21,0.82,0.51,1.07-0.13
		c0.12-0.43-0.04-0.89-0.39-1.16c-0.52-0.54-0.85-1.32-1.71-1.47c-0.21-0.08-0.46,0.11-0.63-0.23c-0.53-1-1.25-0.87-2-0.25
		c0.06,0.06,0.13,0.1,0.21,0.14c0.36,0.08,0.92,0.08,0.75,0.59s-0.54-0.24-0.89,0c0.07,0.47,1.24,1.12-0.16,1.4
		c0.51,0.31-0.48,1.26,0.57,1.34c0.13,0,0.24,0.1,0.25,0.23c0,0.05-0.01,0.1-0.04,0.14c-0.37,0.68,0.15,1.22,0.27,1.81
		c0.69-0.16,1.41,0.08,1.85,0.63c0.47,0.6,1.18,0.18,1.7-0.25c0.18-0.5,0-1.07,0.28-1.86c0.08,0.82-0.25,1.27-0.19,1.79
		c-0.02,0.21,0.06,0.43,0.21,0.58c0.17,0.18,0.39,0.32,0.57,0.49c-0.21,0-0.57-0.27-0.59-0.07c-0.15,1.23-0.73,0.31-1.12,0.25
		c-0.68-0.09-1,0.15-1,0.89c-0.14-0.52,0-1.07-0.32-1.59c-0.25-0.5-0.82-0.75-1.36-0.6c0,0.25,0.11,0.5,0.16,0.76
		c-0.25,1,0.08,2-0.19,2.92c-0.08,0.27,0.15,0.47,0.37,0.62c0.51,0.26,1,0.49,0.67,1.24c-0.16,0.32,0.14,0.43,0.37,0.55
		c0.69,0.23,1,1.37,2,0.86l0.2-0.3c0.62-0.33,0.18-1.15,0.69-1.51C47.11,64.41,47.2,64.71,47.42,64.91z"/>
	<path class="st56" d="M43.31,63.13c-0.2-0.17-0.27-0.44-0.17-0.68c0.18-0.89,0.18-1.81,0-2.7c-1,1-2,0.58-2.56-1
		c0.39,0,0.39,0.83,0.86,0.45s0-0.6-0.21-0.82c-0.18-0.12-0.26-0.35-0.19-0.56c0.34-1-0.35-1.58-0.92-2.21
		c-0.64,0.2-0.35,0.67-0.28,1c0.14,0.79,0.21,1.59,0.3,2.39l0.33,1.79c0.49,1.1,0,2.22,0.08,3.32c0.35,0.24,1-0.13,1.07,0.71
		c0.07,0.84,0,1.35-0.83,1.61c-0.11,0.05-0.19,0.16-0.2,0.28c0.2,1.25-0.41,2.34-0.71,3.49c0.04,0.34,0.32,0.61,0.67,0.63
		c0.33-1.13,0.85-2,2.26-1.79c1-0.94,2.49-1,3.22-2.28c-0.15-0.39,0.23-0.59,0.33-0.89c-0.86,0-1.16-0.92-1.88-1.16
		c-0.26,0.47-0.88,0.3-1.1,0.55C44.14,64.71,43.05,63.89,43.31,63.13z"/>
	<path class="st57" d="M41.91,53.11c1-0.19,1-0.17,1.62,0.69c0.13,0.16,0.61,0.06,0.93,0.08c0.38-0.34,0.88-0.59,0.78-1.23
		c-1.56-0.89-2.39-2.44-3.44-3.8c-0.23-0.3-0.5-0.57-0.75-0.85c-0.24,0.27-0.22,0.69,0.05,0.94c0.63,0.66-0.06,1.17-0.14,1.74
		c0.76,0,0.73,0.76,1,1.2S41.29,52.67,41.91,53.11z"/>
	<path class="st58" d="M46.38,59c-0.83,0.28-1.52,0.56-2.09-0.61c-0.43-0.89-0.91,0.28-1.42,0.31l-0.3,0.2l0.36,0.06
		c0.84,0.43,1.41,0.89,1.21,2s0.86,0.13,1.13,0.65c0.29-0.64-0.45-0.61-0.42-1.07c0.4-0.13,0.78-0.22,1.11,0.19s0.4,1,0.9,0.67
		s-0.33-0.7-0.07-1.22c0.47,0.22,1.02,0.15,1.42-0.18c-0.74-0.16-1.37-0.32-1.58-1c-0.07-0.08-0.13-0.1-0.18-0.06
		C46.42,58.95,46.4,58.97,46.38,59z"/>
	<path class="st59" d="M40.09,59.07c0.3-1.15-0.25-2.29,0-3.43c0.02-1.79-0.2-3.58-0.66-5.32c-0.45-1.61,0.26-3.35-0.62-4.93
		c-0.64,0.38,0,1-0.35,1.31c-0.05,1.35,0.13,2.71,0.53,4c0.43,1.49,0.59,3.04,0.49,4.58C39.45,56.57,39.66,57.85,40.09,59.07z"/>
	<path class="st60" d="M32.64,49.57c0.12,2.06-0.84,4.07-0.24,6.15c0.38,1.9,1.66,3.48,2,5.41c0,0.17,0.11,0.44,0,0.5
		c-1.72,1.4-0.23,2.83,0,4.24c0.11,0.92,0.63,1.81-0.41,2.71c-0.3,0.61-0.57,1.23-0.8,1.87c-0.15,0.49,0.12,1.01,0.61,1.16
		c0.19,0.06,0.38,0.06,0.57,0c0.27,0,0.66-0.25,0.64,0.29c0,0.24,0.21,0.81-0.48,0.55c-0.27-0.1-0.38,0.12-0.4,0.35
		s0.17,0.42,0.47,0.48c1.65-0.04,3.18-0.87,4.12-2.23c-0.46-0.64,0.19-1.07,0.33-1.58c0.33-1.05,0.51-2.15,0.54-3.25
		c0-2.43,0.62-4.9-0.12-7.28c-0.47-1.52-0.28-3.1-0.71-4.6c-0.6-0.29-0.25-1.07-0.86-1.54c0.19,0.9,0.36,1.64,0.51,2.39
		c0.06,0.27,0,0.55-0.35,0.54s-0.49-0.4-0.36-0.55c0.71-0.88-0.42-1.23-0.5-1.87c-0.01-0.21-0.2-0.37-0.41-0.35
		c-0.07,0-0.13,0.03-0.18,0.06c-0.28,0.16-0.4,0.36-0.15,0.73c0.38,0.57,0.63,1.23,1,1.82c0.93,1.51,0,3.21,0.46,4.76
		c0.05,0.22-0.08,0.44-0.3,0.5c0,0-0.01,0-0.01,0c-0.29,0.07-0.35-0.19-0.45-0.36l-0.68-1.15c-0.31,0.71-0.14,1.54,0.42,2.07
		c0.34,0.33,0.51,0.81,0.45,1.28c0,0.4-0.13,0.79-0.63,0.85s-0.6-0.18-0.81-0.5c-0.48-0.92-0.68-1.97-0.58-3
		c-0.06-1.69-0.81-3.28-0.62-5C34.91,52.88,33.33,51.39,32.64,49.57z"/>
	<path class="st61" d="M30.73,73.34c1.37-0.37,1.59-0.94,1.64-2.26c0.13-1.48,0.18-2.96,0.15-4.44c-0.17-2.48-0.29-5-0.47-7.42
		c-0.08-0.33-0.21-0.65-0.39-0.94h-0.07c-0.14-0.03-0.28,0.06-0.32,0.2c-0.05,1.11,0,2.22-0.05,3.33c-0.06,2.29,0.04,4.59,0.32,6.87
		c0.11,0.94-0.11,1.89-0.6,2.7C30.87,72,30.28,72.62,30.73,73.34z"/>
	<path class="st62" d="M28.23,76.3c1.14-0.24,1.4-1.39,2.13-2.06c0.11-0.21,0.22-0.43,0.32-0.64c-0.34-0.22-0.11-0.63-0.29-0.9
		c-0.45-0.71-0.81-0.76-0.95,0.17c-0.13,1.11-0.71,2.11-1.61,2.77c-0.09,0.1-0.13,0.22-0.13,0.35
		C27.78,76.25,27.88,76.49,28.23,76.3z"/>
	<path class="st63" d="M30.29,72.85c0,0.3-0.28,0.78,0.39,0.75c0-0.09,0-0.18,0.05-0.26c-0.14-0.71,0.7-1.2,0.42-1.93
		c-0.1-0.18-0.29-0.29-0.5-0.28C29.9,71.57,30.06,72.2,30.29,72.85z"/>
	<path class="st64" d="M23.05,34.59c0.84,0.33,0.65,1.15,0.85,1.79c0.14,0.05,0.3-0.02,0.37-0.15c0.14-1-0.07-2.03-0.6-2.89
		c-0.91-1.24-2.31-1.82-3.53-2.65c-0.72-0.42-1.53-0.68-2.36-0.75c-0.29-0.04-0.58,0.1-0.73,0.36v0.19c0.01,0.07,0.01,0.15,0,0.22
		c0.89-0.19,1.82,0.05,2.51,0.64C20.85,32.32,22.55,32.81,23.05,34.59z"/>
	<path class="st65" d="M17.41,29.58l0.28-0.39c-0.05-0.06-0.1-0.13-0.16-0.18l-0.38,0.07c-0.55,0.13-1.4,0-1.43,0.75
		s0.92,0.31,1.31,0.66l0,0C17.14,30.14,17.32,29.88,17.41,29.58z"/>
	<path class="st66" d="M40.69,64.26c0.07-0.72,0.2-1.44,0.21-2.16c0-0.45,0-1-0.48-1.24l-0.21,3.77c0.18,0.18,0.35,0.36,0.6,0.11
		C40.88,64.57,40.83,64.38,40.69,64.26z"/>
	<path class="st67" d="M39.83,70.27c0.75-1.04,1.04-2.33,0.82-3.59c0.05-0.26-0.08-0.29-0.29-0.23c-0.12,1.25,0,2.54-0.86,3.61
		L39.83,70.27z"/>
	<path class="st68" d="M40.36,66.45l0.29,0.23c0.05-0.05,0.11-0.09,0.17-0.12c0.45-0.52,0.42-1.31-0.07-1.79l-0.54-0.14L40.36,66.45
		z"/>
	<path class="st69" d="M45.24,52.65l-0.78,1.23c0.95,0.57,1.72,1.4,2.21,2.39c-0.72-0.08-1.3-0.36-1.62,0.34h2.74
		c-0.18-0.44-0.62-0.79-0.35-1.26c-0.12-0.46-0.4-0.87-0.79-1.15c-0.43-0.36-0.73-0.86-0.84-1.41
		C45.61,52.85,45.39,52.8,45.24,52.65z"/>
	<path class="st70" d="M26,71.19c-0.12-1,0.12-2-0.62-2.82c-0.23-0.29-0.23-0.71,0-1l0.06-0.1l-0.06-0.09
		c-0.33-0.35-0.53-0.79-0.57-1.27c-1.51,1-1.52,1.08-0.83,2.73c0.4,0.95,0.62,1.97,0.64,3c0,0.47,0.1,0.73,0.55,0.84
		C25.86,72.27,25.42,71.41,26,71.19z"/>
	<path class="st71" d="M25.4,67.15c0.04,0.06,0.04,0.13,0,0.19c1.18,0.59,0.93,1.92,1.27,2.86c0.31,1.01,0.51,2.04,0.61,3.09
		c0.15,0.11,0.36,0.08,0.49-0.05c0.03-0.11,0.03-0.24,0-0.35c-0.29-0.75-0.29-1.58,0-2.33c0.08-0.38,0.06-0.77-0.06-1.14
		c-0.31-0.65-0.7-1.25-0.23-2c0.25-0.42-0.32-0.74-0.42-1.15c0.02-0.29,0-0.58-0.06-0.87c-0.38-0.63-0.47-1.4-0.23-2.1
		c-0.01-0.12-0.05-0.24-0.1-0.35c-0.17-0.2-0.43-0.28-0.68-0.23c-0.61,0.15-0.65,0.6-0.57,1.15c-0.59-2-0.59-2-0.15-4
		c0.07-0.16,0.09-0.33,0.05-0.5c-0.14-0.32-0.78-0.23-0.63-0.77c0-0.46-0.39-0.69-0.67-1s-0.38-0.61-0.79-0.48
		c-0.23,0.08-0.08,0.37-0.16,0.55c0.08,1.29,0.25,2.57,0.53,3.83c0.51,1.62,1.47,3.07,1.85,4.74C25.54,66.6,25.7,66.9,25.4,67.15z"
		/>
	<path class="st2" d="M22.54,30.32c0.64,0,0-1,0.66-1c-1.44-0.36-2.84-1.25-4.38-0.31C20.01,29.59,21.25,30.03,22.54,30.32z"/>
	<path class="st72" d="M10.3,55c0.3,1.21,0.39,2.45,0.25,3.69c-0.46,0.8,0,1.6,0,2.4c0.07,0.11,0.15,0.21,0.24,0.29
		c0.16,0.18,0.95-0.23,0.5,0.57c-0.13,0.33,0,0.71,0.3,0.9c0.41,0.27,0.57-0.22,0.85-0.35s0.38-0.1,0.35-0.35
		c-0.33-0.53,0.29-0.61,0.44-0.91s0.66-0.81,0.42-1.39s0.34-0.9,0.21-1.4c-0.08-0.04-0.16-0.06-0.24-0.08
		c-1.11-0.07-1.27-0.8-1.19-1.7c-0.26-0.23-0.7-0.08-1-0.6c0.28,0.23,0.59,0.42,0.93,0.55c0.74-0.25,0.74-0.28,0.1-1.16
		c-0.07-0.09-0.15-0.18-0.23-0.26c-0.39-0.38-0.56-1-1.15-1.16C10.44,54,10.43,54.55,10.3,55z"/>
	<path class="st73" d="M12.19,55.39c-0.09,0.45,1.05,0.65,0.26,1.26l0,0c-0.54,0.51-0.28,1.09-0.16,1.67c0.55-0.22,1,0.57,1.6,0.12
		c-0.06-0.41,0.18-0.44,0.52-0.52c0.52-0.12,0.9-0.55,0.95-1.08c0.09-0.75-0.32-0.58-0.72-0.34c-0.05-0.11-0.15-0.24-0.12-0.34
		c0.38-1.46-0.69-2.25-1.35-3.3c-0.37-0.57-0.43-1.4-0.93-2c-0.49,0-0.15,0.71-0.64,0.67c0.15,0.7,0.64,1.3,0.32,2.15
		c-0.16,0.61,0.13,1.25,0.69,1.54c0.35,0.19,0.42-0.11,0.59-0.26c0,0.41-0.24,0.45-0.58,0.27C12.46,55.16,12.27,55.23,12.19,55.39z"
		/>
	<path class="st72" d="M12.19,55.39l0.5-0.12l0,0c-0.25-0.78-0.85-1.45-0.19-2.43c0.45-0.65-0.74-0.75-0.89-1.31
		c-0.19,0-0.39-0.2-0.58,0c0.93,0.64-0.59,1.46,0.15,2.1c0,0,0.2-0.15,0.3-0.22c0.38,0.6,0.12,1.42,0.68,2L12.19,55.39z"/>
	<path class="st74" d="M10.84,49.31c-0.42-0.5-1.27-0.71-1.15-1.6c-0.67,0.06-1.06,0.27-0.7,1c0.2,0.42,0.33,0.88,0.55,1.49
		C9.69,49.39,10.32,49.45,10.84,49.31z"/>
	<path class="st75" d="M7.12,46.71c-0.44,1,0.49,1.34,0.9,1.94c0.2-0.57-0.11-1.27,0.45-1.75C8.11,46.55,7.56,46.47,7.12,46.71z"/>
	<path class="st76" d="M12.15,55.36c-0.15-0.66-0.31-1.32-0.47-2c0,0-0.07-0.05-0.1,0c-0.04,0.02-0.08,0.04-0.11,0.07
		c0.09,0.23-0.03,0.49-0.26,0.58c-0.04,0.01-0.07,0.02-0.11,0.03C11.49,54.43,11.56,55.11,12.15,55.36z"/>
	<path class="st26" d="M51,60.68c0.83,0.48-0.06,0.94,0,1.58c1.74-0.86,3.44-1.69,5.12-2.54c0.11,0,0.11-0.3,0.16-0.46l0,0
		c-0.78-0.37-1.3,0.23-1.89,0.52s-1,0.57-1.58,0.26s-0.31-0.93-0.23-1.4c0.25-1.49-0.49-2.87-0.43-4.34
		c-0.01-0.5-0.42-0.89-0.91-0.89c-0.03,0-0.06,0-0.09,0.01c-0.56,1.19,0,2.29,0.31,3.41c0.08,0.31,0.21,0.49-0.25,0.34
		C51.23,58.34,50.61,59.48,51,60.68z"/>
	<path class="st77" d="M51,60.68c0.41-1.12,0.54-2.33,0.38-3.51c0.11-0.23,0.07-0.5-0.09-0.7c-0.24-0.18-0.46-0.06-0.48,0.16
		c-0.05,0.6-0.4,1.11-0.48,1.69c0.12,0.33,0.07,0.71-0.13,1c0,0.36,0.25,0.73,0,1.08c-0.5,0.47-0.38,0.8,0.24,1L51,60.68z"/>
	<path class="st78" d="M50.37,61.37c-0.31-0.24-0.4-0.65-0.24-1c-0.82-0.53-0.64,0.58-1.09,0.66c0.75,1-0.42,1.67-0.34,2.55
		C49.46,63.02,50.04,62.25,50.37,61.37z"/>
	<path class="st79" d="M15.67,54.63c-0.33,0.15-0.49-0.3-0.87-0.22c0.2,0.35,0.06,0.89,0.6,1c0.27,0,0.33-0.33,0.41-0.56
		C15.81,54.76,15.75,54.67,15.67,54.63z"/>
	<path class="st80" d="M51.28,53.46c0.42,0.49,0.85,1,0.53,1.71c-0.22,0.49,0.24,0.88,0.32,1.32c0.18,0.82,0.18,1.66,0,2.48
		c-0.15,0.53-0.34,1,0.22,1.33c0.51,0.33,1.17,0.33,1.68,0c0.65-0.5,1.39-0.86,2.18-1.07c0.12-1,1.11-0.94,1.68-1.39
		c0.86-0.86,1.81-1.61,2.84-2.24l0,0c0.33-0.42,0.91-0.79,0.56-1.43c-0.3-0.54-0.91-0.84-1.52-0.74c-0.18,0-0.38-0.07-0.51,0
		c-1.72,0.77-3-0.15-4.29-1.06h-0.24c-0.65,0.22-1-0.59-1.69-0.41c-0.85-0.37-1.82-0.34-2.65,0.06
		C50.54,52.62,51.29,52.81,51.28,53.46z"/>
	<path class="st26" d="M55,52.38c0.28,0.56,0.87,0.86,1.27,1.32c0.59,0.52,1.43,0.64,2.14,0.29c0.23-0.11,0.46-0.3,0.69-0.29
		c0.63-0.09,1.28,0.04,1.82,0.38c0.78,0.64-0.57,1-0.16,1.54c0.81,0.15,0.94-0.52,1-1c0.19-0.52-0.08-1.09-0.6-1.28
		c-0.04-0.02-0.09-0.03-0.13-0.04c-0.23-0.11-0.48-0.17-0.74-0.18C58.49,53.41,56.65,53.15,55,52.38z"/>
	<path class="st81" d="M50.17,59.27c0.57-0.14,1-0.34,0.33-0.9c-0.13,0-0.26-0.18-0.2-0.28c1.07-2-0.13-3.71-0.64-5.51
		c-0.64-0.47-0.77-0.46-0.94,0.1c-0.15,1.24-1,1.5-2.07,1.52c0.13,0.47,0.13,1,0.79,1.15c0.51,0.44,1,1.14,2,0.27
		c-0.43,1-1.81,1.2-1.15,2.36c0.34,0,0.37-0.44,0.74-0.51c0,0.64-0.18,1.32,0.37,1.83C49.65,59.57,49.91,59.45,50.17,59.27z"/>
	<path class="st82" d="M48.72,52.68c0.34-0.56,0.56-0.14,0.8,0.1c0.44,0.17,0,1.43,1.06,0.83c0.16-0.65,0.12-1.21-0.67-1.4
		c-0.5-0.27-0.95-0.64-1.31-1.08c-0.44,0-0.38,0.34-0.35,0.63S47.82,52.76,48.72,52.68z"/>
	<path class="st77" d="M48.25,51.76l0.35-0.63c-0.08-0.34-0.09-0.73-0.61-0.69C47.05,51.08,47.55,51.44,48.25,51.76z"/>
	<path class="st83" d="M13.68,59.83c-0.2,0.73-0.63,1.37-1.23,1.83c-0.15,0.11-0.44,0.21-0.21,0.44s0.38,0,0.58,0
		c0.69-0.64,1.19-1.46,1.43-2.37C14,59.49,13.86,59.73,13.68,59.83z"/>
	<path class="st53" d="M5.91,57c0.12-0.14,0.68,0.63,0.41-0.13c-0.21-0.56-0.4-1.12-0.55-1.7C5.41,55.83,5.87,56.41,5.91,57z"/>
	<path class="st84" d="M28.23,76.3c-0.23-0.05-0.41-0.23-0.44-0.47c0-0.48-0.06-1-0.55-1.22c-0.3,0.97-0.34,2.01-0.12,3
		C27.79,77.41,27.87,76.74,28.23,76.3z"/>
	<path class="st62" d="M27.24,74.61c0.18,0.41,0.05,1,0.55,1.22l0,0c0.56-0.48,0.53-1.22,0.73-1.84s-0.17-0.87-0.78-0.81l-0.46,0.11
		C27.27,73.73,27.26,74.17,27.24,74.61z"/>
	<path class="st85" d="M12.47,62.48c-0.83,0.4-1.08,0-0.86-0.73c0.15-0.34,0.22-0.71,0.21-1.08c-0.56-0.2-0.36,0.93-1,0.56
		c-0.48,0.73-0.5,1.66-0.06,2.41c0,0.09,0.07,0.17,0.1,0.26l0.61,0.16L12.47,62.48z"/>
	<path class="st86" d="M49.91,52.21c0.45,0.36,0.4,0.95,0.62,1.41c-0.05,0.96,0.14,1.92,0.55,2.79l0.27,0.76
		c0.27,0.15,0.54,0.41,0.42-0.24c-0.37-1.12-0.53-2.29-0.49-3.47c0.45-0.16,0.45-0.44,0.13-0.72c-0.32-0.25-0.65-0.48-1-0.69
		C50.23,52,50,51.86,49.91,52.21z"/>
	<path class="st56" d="M47.42,64.91c-0.64-0.38,0.4-0.82-0.08-1.23c-0.75,0.44-0.59,1.29-0.83,2
		C46.95,65.65,47.32,65.34,47.42,64.91z"/>
	<path class="st87" d="M31.76,68.84c-0.06-2.37-0.13-4.74-0.19-7.11c-0.32-1.1-0.37-2.25-0.15-3.37l0.17-0.1l-0.09-0.48
		c-1.23-0.77-1.1,0.53-1.51,1c0.3,1.11,0.3,2.27,0,3.38c-0.43,1.72-0.27,3.53,0.44,5.15c0.29,0.29,0.48,0.65,0.57,1.05
		C31.1,68.71,31.31,69,31.76,68.84z"/>
	<path class="st88" d="M30.13,58.61c0.46-0.27,0.56-1.12,1.37-0.83l0.06-4.52c-0.1-0.05-0.23-0.05-0.33,0
		c-0.67,0.75-1.3,1.53-1.87,2.36c-0.09,0.07-0.18,0.15-0.26,0.24c-0.65,0.65-0.69,1.26,0.16,1.75c0.49,0.28-0.22,1.08,0.56,1.18
		C29.95,58.81,30.08,58.73,30.13,58.61z"/>
	<path class="st89" d="M31.43,45.07l-1-5.75c-0.02-0.63-0.14-1.25-0.34-1.84c-0.74-0.28-0.74,0.24-0.79,0.71
		c0.02,0.29,0.07,0.58,0.14,0.87c0.34,1.01,0.49,2.07,0.47,3.14c-0.01,0.13-0.01,0.27,0,0.4c0.09,1.72,0.69,3.38,0.71,5.11
		c0.11,0.35,0.16,0.85,0.61,0.81s0-0.59,0.27-0.81C31.54,46.83,31.14,46,31.43,45.07z"/>
	<path class="st90" d="M31.47,47.71l-0.37,0.7l-0.25-0.87c-0.29-0.29-0.86-0.23-0.71,0.05c0.42,0.79-0.37,1.68,0.35,2.38
		c0.3,0.29,0.17,0.72,0.14,1.1c-0.11,0.82,0.15,1.64,0.71,2.24l0.22-0.05C31.69,51.41,31.66,49.55,31.47,47.71z"/>
	<path class="st91" d="M20.05,30.87c1,0.93,2.33,1.38,3.24,2.41c0.45,0.16,0.93,0.08,1.1,0.83s1.15,0.93,1.81,1.29
		c0.13,0.06,0.27,0,0.33-0.13c0,0,0,0,0,0c0.21-0.47-0.17-0.69-0.42-1c-0.37-0.3-0.64-0.7-0.78-1.15c-0.49-1.5-2.02-2.41-3.57-2.12
		c-0.5,0-1-0.5-1.55-0.77C20,30.43,19.87,30.6,20.05,30.87z"/>
	<path class="st92" d="M26.11,34.3c0.09,0.28,0.17,0.56,0.3,1c-0.8-0.7-1.87-0.79-2-2.18c-0.07-0.88-0.67,0.51-1.13,0.18
		c0.45,0.95,0.75,1.96,0.89,3c0.11,0,0.46,0.32,0.45,0.43c-0.02,0.34,0.1,0.67,0.34,0.92c0.11,0.13,0.27,0.21,0.44,0.21
		c0.28,0,0.26-0.29,0.31-0.49c0.12-0.51-0.39-1,0-1.5c0.25,0.04,0.5,0.1,0.73,0.2c0.43,0.18,0.81,0.5,1.32,0.44
		c1.16-0.45,0.48-1.21,0.32-1.88C27.58,33.58,26.7,34.73,26.11,34.3z"/>
	<path class="st93" d="M28.06,34.65c-0.22,0.26-0.22,0.65,0,0.91c0.28,0.49,0,0.66-0.42,0.79c0,0.4,0.35,0.45,0.55,0.64
		s0.54,0.58,0.18,1s-0.59,1-0.09,1.35s0.71-0.4,1.06-0.63c0.13-0.11,0.24-0.25,0.32-0.4c0-0.33-0.21-0.74,0.36-0.82
		c-0.11-1,0-2.14-1.14-2.74l0,0C28.6,34.81,28.31,34.78,28.06,34.65z"/>
	<path class="st94" d="M20.05,30.87c0.05-0.2,0.11-0.4,0.16-0.6c-0.72-1.07-1.88-0.4-2.8-0.69c-0.53,0.12-0.43,0.49-0.34,0.86
		c0.61-0.53,1.23-0.3,1.84,0C19.28,30.62,19.58,31,20.05,30.87z"/>
	<path class="st95" d="M28.87,34.73c0.65,0.77,1.05,1.73,1.13,2.74c0.14,0.62,0.28,1.23,0.43,1.85c0.28-0.86-0.38-1.64-0.23-2.5
		c-0.1-0.46-0.22-0.92-0.38-1.36C29.67,35.05,29.56,34.49,28.87,34.73z"/>
	<path class="st96" d="M10.77,63.64l0.06-2.41c-0.1-0.85-0.19-1.71-0.28-2.56c-0.18,0.1-0.51,0.21-0.51,0.31
		c0,1.57-0.54,3.19,0.48,4.65C10.55,63.67,10.68,63.64,10.77,63.64z"/>
	<path class="st97" d="M25.65,35.74L25,35.05l0.6,2.72c-1.22-0.61-0.26-1.83-1-2.4c-0.44,0.22-0.13,0.61-0.2,0.91
		c-0.02,0.04-0.06,0.07-0.1,0.08h-0.12H23.9c-0.26,0.86-0.29,1.76-0.11,2.64c0.06,1.14,0.26,2.26,0.39,3.39
		c0.1,0.06,0.23,0.06,0.33,0c0.3-0.19,0.54-0.47,0.69-0.79c0.07-0.7-0.56-1.52,0.38-2.06c0.26-0.11,0.53-0.19,0.78-0.32
		c0.45-0.33,0.8-0.77,1-1.29c-0.02-0.24-0.17-0.44-0.39-0.53C26.15,37.16,26.28,36.15,25.65,35.74z"/>
	<path class="st98" d="M24.45,42.29l-0.27,0.11c-0.05,0.24-0.09,0.48-0.14,0.72c-0.06,0.24-0.06,0.48,0,0.72
		c0.38,0.38,1,0.07,1.13,0c0.67-0.36,0.36,0.3,0.53,0.41c0.26,0.33,0.53,0.19,0.79,0c0.56-0.49,0.92-1.18,1-1.92
		c0.07-0.34,0.5-0.7,0.06-1s-0.79,0-1.13,0.28c-0.06,0.52-0.55,0.26-0.8,0.43C25.31,42.35,24.85,42.45,24.45,42.29z"/>
	<path class="st99" d="M24.3,44c-0.09-0.29-0.17-0.59-0.26-0.89c-1,1.23-1,2.77-1.43,4.17c-0.43,0.64-0.18,1.37-0.28,2.05
		c0.11,0.19,0.31,0.44,0.49,0.25c0.65-0.57,1.05-1.37,1.1-2.23c-0.15-0.92,0.03-1.87,0.53-2.67C24.6,44.45,24.53,44.15,24.3,44
		C24.3,44,24.3,44,24.3,44z"/>
	<path class="st46" d="M22.53,49.42c0-0.71,0.06-1.42,0.08-2.13c-0.12-0.27-0.5-0.61-0.48-0.12c0.09,1.81-0.47,3.67,0.31,5.43l0,0
		C23.69,51.57,23,50.49,22.53,49.42z"/>
	<path class="st100" d="M22.53,49.42c0.11,1.07,0.61,2.15-0.05,3.2c0.29,0.51-0.07,1,0.08,1.55c1.39,0.52,1-0.67,1.22-1.28
		c-0.06-0.46-0.17-0.92-0.27-1.38c-0.23-0.59,0.07-1.26,0.66-1.49c0.02-0.01,0.05-0.02,0.07-0.02c0.17-0.74,0.83-0.94,1.4-1.24
		c0.14-0.57-0.3-0.87-0.56-1.26c0-0.85-0.28-1.76,0.66-2.37c0.35-0.22,0.06-0.64,0.16-1c-0.24-0.14,0.22-0.82-0.5-0.6
		c-0.38,0.12-1.07-0.56-1.1,0.45c-0.01,0.26-0.09,0.52-0.22,0.75c-0.33,0.76-0.95,1.43-0.49,2.52
		C23.83,47.83,23.14,48.81,22.53,49.42z"/>
	<path class="st101" d="M23.57,52.9c-0.24,0.5,0,1.39-1,1.27c0.17,1.2,0.35,2.39,0.53,3.58c0.39-0.89,0.48,0.24,0.76,0.11
		c0.07-1.15,1-1.62,1.74-2.29c0.96-0.94,1.06-2.45,0.23-3.5c-1.34,0-1.5,0.1-1.3,1.28c0.06,0.36,0.14,0.67-0.22,0.91
		C23.88,53.9,24.63,52.91,23.57,52.9z"/>
	<path class="st102" d="M43.31,63.13c0.28,0.47-1.13,0.94,0.07,1.55c0.36,0.19-0.72,0.57-1,1c1.2,0,1.74-0.23,2.06-0.93
		C44.37,64,44.59,63.07,43.31,63.13z"/>
	<path class="st69" d="M46.38,59l0.25-0.05c0.36-0.57,0.51-1.26,0.42-1.93C45.61,57.32,46.35,58.29,46.38,59z"/>
	<path class="st103" d="M40.75,64.77c0,0.59,0,1.19,0.07,1.79c0.58,0.13,1.11-0.11,1.12-0.66c0.14-0.72-0.01-1.46-0.4-2.08
		c-0.43-0.47-0.56,0.29-0.85,0.44L40.75,64.77z"/>
	<path class="st104" d="M43,66.27c-0.24,0.27-1.25,0.11-0.55,0.86c0.14,0.15,0,0.67,0.33,0.51C43.41,67.36,42.88,66.75,43,66.27z"/>
	<path class="st105" d="M31.76,68.84c-0.85-0.21-0.18-1.42-1.06-1.61c-1,1.07-0.27,2.16-0.06,3.24c0.01,0.24,0.05,0.48,0.14,0.71
		l0.37,0.23C31.79,70.72,32.02,69.74,31.76,68.84z"/>
	<path class="st106" d="M31.42,58.36c-0.59,1.06-0.53,2.36,0.15,3.37C31.67,60.6,31.61,59.47,31.42,58.36z"/>
	<path class="st107" d="M30.78,71.18c0.13-0.15,0.18-0.35,0.11-0.54c-0.35-0.3-0.82-0.07-1.06-0.13c0.78-2.66,0-5.19-0.22-7.73
		c-0.12-0.24-0.65-0.26-0.55-0.4c0.44-0.62,0.26-0.9-0.41-1.05s-0.87,0.42-1,1c0,0.17,0,0,0,0.13c-0.01,0.12-0.01,0.24,0,0.36
		c0.7,1.2,0.31,2.74-0.88,3.47c0.22,0.66,1,1.33,0,2c0.52,0.67,0.87,1.47,1,2.31c-0.25,0.45-0.19,1.01,0.14,1.4
		c0.31,0.46,0,0.67-0.2,1v0.24c0.28,0.3,1.09,0.35,0.3,1.08c-0.3,0.28-0.18,1-0.25,1.57c1.6-0.56,1.8-2,2-3.38l0.46,0.4
		C30.38,72.27,30.19,71.62,30.78,71.18z"/>
	<path class="st108" d="M25.79,52.13c0.69,1.36,0,3.53-1.31,4c-0.36,0.14-0.25-0.66-0.8-0.21c0.18,0.62,0.24,1.28,0.17,1.92
		c0.23,0.32,0.68,0.44,0.75,0.89c1.43-0.23,1.45-0.23,1.14-1.45c-0.1-0.39-0.13-0.66,0.32-0.79c0.35-0.09,0.62-0.37,0.71-0.72
		c0.16,0.57,0.42,1,1,1c0.35-0.37,0.86-0.63,0.75-1.27c-0.19-0.44-0.41-0.87-0.67-1.28c-0.1-0.6-0.4-1.16-0.85-1.57
		c-0.44-0.14-0.1-1.6-1.16-0.68C25.82,52.02,25.8,52.08,25.79,52.13z"/>
	<path class="st109" d="M27.84,56.74c-0.66-0.3-1.01-1.03-0.84-1.74c-0.29,0.48-0.39,0.86-0.57,0.91c-1.3,0.33-1.46,1-0.79,2.09
		c0.15,0.25-0.81,0.31-1.08,0.72c-1,1.42,0.75,0.13,0.66,0.66c1,0.55,1.3,0.46,1.52-0.5c0-0.12,0-0.12,0.56,0.05
		c0.06-0.11,0.1-0.24,0.11-0.37c0-0.56-0.35-1.28,0.55-1.54C28,57,28,56.82,27.84,56.74z"/>
	<path class="st107" d="M27.27,59c-0.5-0.45-0.48-0.44-0.68,0.11c-0.27,0.73-0.86,0.36-1.33,0.33l-0.2,0.31
		c-0.06,0.11-0.14,0.29-0.07,0.36c0.81,0.79,0.68,1.92,1,2.87c0.2-0.06,0.42,0,0.56,0.15c0.47,0.09,0.95-0.12,1.21-0.53l0,0
		c0.25-0.78-0.66-1.22-0.59-2s1.53-0.9,0.37-1.75C27.43,58.84,27.32,58.9,27.27,59z"/>
	<path class="st110" d="M26,63c-0.14-0.49,0.3-1,0-1.48s0.4-1.4-0.8-1c-0.07-0.24-0.13-0.49-0.2-0.73c-1,1.67-0.13,3.18,0.25,4.74
		C26.26,64.21,25.15,63.17,26,63z"/>
	<path class="st111" d="M27.8,62.57c-0.45,0.04-0.88,0.22-1.21,0.53l0.05,0.24c0.28,0.41-0.26,1.21,0.62,1.35
		c-0.22,0.2-0.37,0.46-0.43,0.74c0,0.27,0,0.54-0.08,0.81c0.77-0.14,1.06-0.93,1.71-1.24c0.13-0.07,0.3-0.33,0.13-0.43
		C27.76,64.11,28.33,63.13,27.8,62.57z"/>
	<path class="st62" d="M27.71,72.94c0.56-0.26,0.86-0.64,0.43-1.23c-0.22-0.36-0.37-0.75-0.44-1.17
		C26.89,71.35,27.24,72.15,27.71,72.94z"/>
	<path class="st107" d="M26.83,65.43c0.27-0.48,0.8-0.51,1.33-0.7c-1.08,0.07-1.07-0.89-1.52-1.39
		C26.12,63.97,26.2,64.9,26.83,65.43C26.83,65.43,26.83,65.43,26.83,65.43z"/>
	<path class="st73" d="M12.45,56.65c-0.2-0.51-0.8-0.7-0.92-1.36c-0.55,1.26-0.35,1.5,0.92,1.35V56.65z"/>
	<path class="st112" d="M12.69,55.27c0.12,0.17,0.23,0.47,0.36,0.48c0.42,0,0.35-0.41,0.46-0.64c0.24-0.52-0.21-0.65-0.59-0.83
		c-0.1,0.34,0.26,0.78-0.24,1L12.69,55.27z"/>
	<path class="st113" d="M51.08,56.41c0.15-0.97-0.04-1.95-0.55-2.79c-0.72,0.19-0.53-0.72-1-0.84c0.31,1.09,0.66,2.18,0.9,3.28
		c0.09,0.43,0.58,1-0.22,1.39c-0.27,0.29-0.25,0.75,0.04,1.02c0.03,0.03,0.06,0.05,0.09,0.07c0,0,0.08,0,0.11-0.06
		c0.03-0.03,0.05-0.07,0.06-0.11C50.88,57.78,51.07,57.1,51.08,56.41z"/>
	<path class="st114" d="M29.45,62.75c0.28,1.24,0,2.54,0.43,3.77c0.05,0.16,0.15,0.66-0.25,0.75c-0.63,0.16-0.29,0.44,0,0.53
		c0.93,0.35,0.7,1.06,0.35,1.53s-0.84,1-0.6,1.36c0.35,0.51,1,0,1.55,0c0-1.14-0.72-2.24-0.19-3.41c-0.76-1.86-0.81-3.93-0.16-5.83
		c0.34-0.94,0.18-1.99-0.41-2.79l-0.26,0.06c-0.24,0.11-0.39,0.36-0.36,0.62C29.6,60.48,29.57,61.62,29.45,62.75z"/>
	<path class="st108" d="M31.34,53.31c-0.06-0.99-0.21-1.97-0.46-2.93c-0.38-0.91,0.17-1.87-0.5-2.68c-0.24-0.3,0.32-0.06,0.47-0.16
		c-0.1-1.72-0.39-3.42-0.85-5.08c-0.46,0.16-0.94,0.23-1.42,0.2c-0.48-0.07-0.69,0.2-0.78,0.63s0.13,1-0.36,1.28
		c-0.2,0.12-0.36,0.31-0.44,0.53c0,0.52-0.48,1.16,0.36,1.49c-0.14,0.11-0.34,0.11-0.47,0.23c-0.26,0.16-0.47,0.38-0.62,0.65
		c0.09,0.72,0.68,1.23,0.75,2c0.12,0.4,0.05,0.83-0.2,1.17c-0.06,0.1-0.1,0.21-0.12,0.33c0.09,0.51,0,1.09,0.42,1.49
		c1.29,0,1.88,0.52,1.94,1.87c0,0.34-0.17,0.66-0.09,1s0.3,0.38,0.5,0.52L31.34,53.31z"/>
	<path class="st115" d="M29.45,62.75c0.89-1.29,0.15-2.74,0.42-4.08c-0.23-0.33-0.67-0.68,0.06-0.94c0.24-0.08,0.38-0.18,0.25-0.42
		c-0.08-0.1-0.19-0.16-0.32-0.16c-1-0.11-1.12-0.32-0.59-1.27c-0.22-0.25-0.56-0.38-0.89-0.33c0,0.49-0.61,0.68-0.54,1.19
		c-0.82,1-0.82,1-0.57,2.23l0.26-0.06c0.74,0.3,0.68,1,0.74,1.59c-0.39,0.1-0.82-0.38-1.15,0.11s-0.43,0.84,0.2,1.12
		c0.29,0.18,0.47,0.49,0.48,0.83c0.08-0.32,0.18-0.63,0.32-0.93c0.3-0.57,0.4,0.29,0.77,0.13s0.19,0.17,0.07,0.3
		C28,63.09,29.17,62.61,29.45,62.75z"/>
	<path class="st109" d="M28.38,55.55c0.19,0.29,0.55,0.43,0.89,0.33l0.24-0.05c-0.02-0.21-0.16-0.38-0.36-0.45
		c-0.4-0.38-0.51-1.11-1.28-1C27.53,55,28.1,55.19,28.38,55.55z"/>
	<path class="st116" d="M27.66,44.82c1-0.19,0.24-1,0.44-1.43c0.08-0.18,0-0.44,0.27-0.51c0.16-0.07,0.34,0,0.41,0.16
		c0,0.01,0.01,0.02,0.01,0.03c0.16,0.47,0.49,0.82,0.95,0.65s-0.18-0.66,0-1c0.08-0.1,0.18-0.18,0.26-0.27l0,0
		c-0.39-1.09-0.47-2.27-0.23-3.4c0-0.26-0.1-0.51-0.16-0.77c-0.53,0.12-1.16,0.13-0.94,1.08c-0.55-0.35-0.5-0.75-0.4-0.93
		c0.22-0.4,1.12-0.44,0.51-1.25c-0.3-0.4-0.71-0.7-1.19-0.84L26.4,35.8c-0.7,0.81,0,1.23,0.46,1.75l0.31,0.48
		c0.05,0.76-0.1,1.52-0.41,2.22c-0.18,0.23-0.34,0.47-0.48,0.72c-0.05,0.24-0.53,0.55,0.1,0.7c0.26,0,0.47,0.06,0.57-0.3
		c0-0.19,0.28-0.13,0.43,0c0.09,0.07,0.11,0.2,0.04,0.29c-0.01,0.01-0.02,0.02-0.04,0.04c-0.55,0.7-0.26,1.79-1.09,2.37
		c0,0.22,0.14,0.31,0.33,0.37C27.08,44.39,27.46,44.39,27.66,44.82z"/>
	<path class="st108" d="M29.81,39.06l-0.73,0.64c1,0.54-0.59,1.76,0.61,2.26c0.16,0.07,0.23,0.33,0.35,0.5
		C30.8,41.27,29.86,40.2,29.81,39.06z"/>
	<path class="st117" d="M26.9,37.56c-0.07-0.61-0.55-1.11-0.46-1.75c-0.24-0.26-0.52-0.14-0.79-0.07c0.1,0.66,0.34,1.3,0.71,1.86
		C26.51,38,26.74,37.81,26.9,37.56z"/>
	<path class="st118" d="M26.42,41.68c-0.39-0.31,0.25-0.33,0.15-0.56c0.11-0.84-0.4-1.64-1.21-1.88c-1,0.72-0.74,1.56-0.26,2.43
		c0,0.45,0.21,0.58,0.61,0.41C25.93,41.92,26.48,42.34,26.42,41.68z"/>
	<path class="st119" d="M25.36,39.24c0.35,0.67,1.12,1,1.21,1.88l0.39-0.63c0.36-0.72,0.49-1.35-0.61-1.45L25.36,39.24z"/>
	<path class="st120" d="M26.35,39c0.73,0.26,0.84,0.78,0.61,1.45c0.66-0.65,0.76-1.68,0.25-2.45C26.72,38.2,26.57,38.65,26.35,39z"
		/>
	<path class="st121" d="M25.71,42.08l-0.61-0.41c-0.33,0.06-0.58,0.31-0.65,0.63C25.06,43.29,25.37,42.6,25.71,42.08z"/>
	<path class="st122" d="M26.69,44.27l-0.32-0.21c-0.15,0.06-0.26,0.33-0.47,0.1c-0.23,0.36-0.24,0.83-0.74,1.08s-1.1,0.65-0.31,1.31
		c0.42,0.35-1,0.63-0.06,1.05c0.53,0.11,1.14,1.21,1.56-0.13c0.27-0.04,0.52-0.18,0.7-0.39c-0.87-0.71-0.53-1.44-0.05-2.18
		C27.05,44.64,26.93,44.38,26.69,44.27z"/>
	<path class="st123" d="M23.57,52.9c0.54,0.19,0.27,0.67,0.32,1s-0.5,0.74,0,1s0.42-0.61,1-0.59c0.37,0,0.23-0.5,0.07-0.73
		c-0.78-1.09-0.08-1.31,0.82-1.45l0,0c-0.23-0.9,0.3-1.19,1-1.3l0,0c0.5-0.79,0.74-1.55-0.29-2.13c-0.55,0.86-1.2,1.48-2.33,1.12
		C22.88,50.31,22.72,51.06,23.57,52.9z"/>
	<path class="st124" d="M24.2,49.84c0.42,0.32,0.8,0.87,1.41,0.33c0.41-0.36,1.27-0.46,0.78-1.35c-0.24-0.36-0.52-0.24-0.82-0.08
		C24.77,48.68,23.85,48.46,24.2,49.84z"/>
	<path class="st101" d="M25.57,48.74l0.82,0.08c1.19,0.45,0.36,1.34,0.43,2c1.54-0.73,0.18-1.67,0.17-2.5c0-0.4-0.42-0.58-0.64-0.88
		c-0.48,0.62-1,0.12-1.56,0.13C25.13,47.9,25.4,48.3,25.57,48.74z"/>
	<path class="st125" d="M27.87,54.34c0.44,0.33,0.62,1,1.28,1c0.66-1.18,0.14-2.34-0.33-3.32c-0.3-0.61-1.07,0.26-1.65,0.31
		c-0.22,0.01-0.4,0.17-0.44,0.39c-0.05,0.47,1.37,0.6,0.29,1.32C26.85,54.2,26.94,54.33,27.87,54.34z"/>
	<path class="st101" d="M26.73,52.76l0.44-0.39c-0.21-0.49,0.18-1.11-0.34-1.53c-0.55-0.77-1.06,0.59-1.6,0
		c-0.34,0.65,0.39,0.84,0.55,1.27C26.81,51.28,26.12,53,26.73,52.76z"/>
	<path class="st109" d="M27.12,60.61c0.12-0.01,0.25-0.01,0.37,0c0.46,0,0.82,0.77,1.35,0.27c0.25-0.24-0.84-1.83-1.31-2
		c0.28,0.6,0.49,1.16-0.56,1.06c-0.24,0-0.44,0-0.41,0.3S26.86,60.62,27.12,60.61z"/>
	<path class="st101" d="M26.88,45C26.34,45.28,26,45.83,26,46.44c0,0.68,0.79,0.32,1.1,0.64c0.26-0.34,0.63-0.24,1.07-0.28
		c-1-0.19-0.84-1-0.94-1.6C27.14,45.09,27.02,45.02,26.88,45z"/>
	<path class="st100" d="M26.88,45l0.3,0.2c0.08-0.21,0.26-0.35,0.48-0.38c0.06-0.86-0.43-0.75-1-0.55
		C26.75,44.52,26.82,44.76,26.88,45z"/>
	<path class="st126" d="M60.6,30c-0.43-1.78,0.14-3.65,1.48-4.9c1.06-1.02,2.57-1.43,4-1.07c2.09,0.63,2.86,1.93,3.59,3.92
		c0.55,1.41,0.15,3.02-1,4c-1.05,0.98-2.51,1.37-3.91,1.05C62.08,32.75,61.31,32.06,60.6,30z"/>
	<path class="st127" d="M60.62,28.65c0.67,0.56,1.15,1.31,1.38,2.15c0.52,1.49,3.26,2.34,5.17,1.68c1.84-0.63,2.82-2.64,2.2-4.48
		c-0.54-2.15-2.62-2.74-4-4.09c3.07-0.17,6.44,4.09,4.13,7.82c-0.83,1.39-2.39,2.17-4,2C62.72,33.3,60.37,32.18,60.62,28.65z"/>
	<path class="st128" d="M62.5,26.77c0,0,0.57-1,1.13-1s1.16-0.52,0.8-0.64c-0.51-0.1-1.05,0-1.5,0.26
		C62.45,25.64,61.77,27.77,62.5,26.77z"/>
	<path class="st128" d="M62,28.11c0,0.21,0,0.39-0.21,0.39c-0.22,0-0.39-0.17-0.39-0.39c-0.01-0.21,0.16-0.38,0.37-0.39
		c0.01,0,0.01,0,0.02,0C62,27.72,62,27.89,62,28.11z"/>
	<path class="st126" d="M73.66,9.41C73.01,6.64,73.9,3.73,76,1.8c1.33-1.42,3.35-2.12,6.18-1.66c3.24,1,4.44,3,5.57,6.08
		c0.86,2.22,0.22,4.73-1.59,6.27c-2,1.92-4,1.93-6.06,1.71C75.94,13.74,74.75,12.67,73.66,9.41z"/>
	<path class="st127" d="M73.68,7.39c1.03,0.86,1.76,2.03,2.08,3.33c0.81,2.31,5,3.62,8,2.6c2.85-0.96,4.39-4.03,3.47-6.89
		c-0.82-3.33-4.04-4.25-6.1-6.34c4.75-0.27,10,6.34,6.4,12.12c-1.31,2.11-3.72,3.28-6.19,3C76.94,14.59,73.3,12.86,73.68,7.39z"/>
	<path class="st128" d="M76.6,4.48c0,0,0.88-1.48,1.76-1.59s1.79-0.8,1.24-1c-0.8-0.15-1.63,0-2.34,0.41
		C76.52,2.72,75.47,6,76.6,4.48z"/>
	<path class="st128" d="M75.86,6.54c0,0.34,0,0.61-0.33,0.61c-0.33,0.04-0.64-0.19-0.68-0.53c-0.04-0.33,0.19-0.64,0.53-0.68
		c0.05-0.01,0.1-0.01,0.16,0C75.86,5.94,75.86,6.21,75.86,6.54z"/>
	<path class="st129" d="M65.92,107.46c0.72,0.9,1.28,1.91,1.66,3c-0.1,0.47,0.03,0.97,0.35,1.33c0.12,0.24,0.35,0.49,0.06,0.71
		c-0.63,0-1.34,0.11-1.61-0.82c-0.09-0.25-0.36-0.38-0.61-0.29c-0.03,0.01-0.06,0.02-0.09,0.04c-0.25,0.14-0.35,0.45-0.21,0.71
		c0.02,0.03,0.04,0.06,0.06,0.08c0.33,0.66,0.56,1.37,0.71,2.09c0.54,0.08,1.07-0.59,1.4,0s-0.45,0.71-0.76,1
		c-0.12,0.13-0.31,0.19-0.37,0.46c0.56,0.06,0.62-0.36,0.78-0.67c0.05-0.19,0.25-0.3,0.44-0.25c0.21,0.05,0.42,0.23,0.4,0.4
		c-0.08,0.92,0.3,1.92,0,2.72c0.4-0.12,0.12-1.06,0.88-1c0.78,2.01,1.29,4.12,1.49,6.27c-0.08,0.51,0.27,0.99,0.79,1.07
		c0.02,0,0.04,0.01,0.06,0.01c0.22,0.29,0.17,0.69-0.11,0.92c-1,0.42-1.29,1.64-2.51,1.76c-0.54,0.1-0.91,0.61-0.81,1.16
		c0,0.02,0.01,0.04,0.01,0.06c0.05,0.26-0.02,0.53-0.18,0.74c-0.73,0.75-0.62,1.84-0.89,2.76c-0.13,0.42,0.68,0.7,0.89,1.23
		c0.11,0.27,0.73-0.13,1.17,0c0.11,0-0.11-0.11-0.13-0.21c-0.08-0.33,0.02-0.69,0.26-0.93c0.58-0.55,1.45-0.82,1.6-1.78
		c0-0.14,0.41-0.1,0.65,0c0.48,0.46,0.08,1,0.27,1.44c-0.47,0.46,0.07,1.58-1,1.64c-0.99,0.32-1.91,0.8-2.75,1.41
		c-1.55,1.51-3.53,1.3-5.06-0.6c-0.32-1.59-0.83-3.2-0.17-4.71c-0.47-0.29-0.71,0-1,0.24c-0.29,0.22-0.7,0.17-0.93-0.12
		c0-0.01-0.01-0.01-0.01-0.02c-0.25-0.25-0.44-0.6-0.22-0.84c0.55-0.57,0.66-1.6,1.75-1.62c0.11,0.02,0.19,0.12,0.19,0.23
		c0,0.29-0.36,0.55,0.18,0.84c0.88,0.63,1.63,1.42,2.21,2.33c0.41,0.19,0.61-0.06,0.67-0.35c0.49-1.55,0.42-3.23-0.21-4.74
		c-0.28-0.76-0.41-1.57-0.37-2.38c-0.07-0.93,0.18-1.83,0-2.79c-0.09-0.58,0.42-0.7,1.06-0.93c-0.08,0.01-0.15,0.01-0.23,0
		c-0.22,0.17-0.48,0.29-0.76,0.33c-0.51-0.53,0.27-1.2-0.39-1.71c-0.21-0.49-0.24-1.05-0.08-1.56c0.24-0.64-0.2-1.36-0.22-2
		c0-1-0.85-1.07-1.44-1.43c-0.28-0.17-0.53-0.39-0.79-0.58c-0.64-0.55-1.51-0.74-2.33-0.53c-0.5,0.15-1,0.43-1.64-0.07
		c-0.23-0.19-0.5,0-0.65,0.23c-0.23,0.39-0.64,0.64-1.09,0.66c-1.22,0.32-2.06,1.25-3.24,1.64c-1.59,0.6-3.24,1.02-4.92,1.26
		c-0.73,0-1.35,0.51-1.49,1.23c-0.3,1.11-0.85,2.14-1.62,3c-0.13,0.29-0.31,0.23-0.52,0c-0.12-0.4-0.02-0.83,0.26-1.14
		c0.2-0.27,0.47-0.57,0.16-1.07c-0.32,0.23-0.59,0.51-0.8,0.84c-0.13,0.23-0.31,0.47-0.62,0.27c-0.83-0.56-1.11,0.08-1.47,0.48
		c-0.53,0.8-1.32,1.39-2.24,1.67c-0.18,0-0.4,0-0.53-0.12s0-0.31,0.18-0.4c0.34-0.2,0.77-0.25,1-0.57c0.76-0.68,1.33-1.53,1.67-2.49
		c-0.55-0.43-0.29-0.83-0.09-1.21c0.26-0.37,0.16-0.87-0.2-1.13c-0.03-0.02-0.07-0.04-0.11-0.06c-0.34-0.23-0.77-0.46-0.52-0.91
		s0.67-0.16,1,0c0.13,0.06,0.27,0.09,0.42,0.09c0.1-0.38,0.1-0.78,0-1.16c0-0.35,0-0.72,0.48-0.67c2.62-0.25,5.16-1.01,7.48-2.25
		c0.56-0.29,1-0.47,0-1c-0.62-0.3-1.16-0.75-1.57-1.3c-0.06-0.47-0.08-0.91-0.69-1.17c-0.48-0.24-0.89-0.61-1.17-1.06
		c-1.43-2.07-3.12-4-4.69-5.93c0.06-0.72,0.32-1.61,1.05-1.46s0.24,1.12,0.4,1.51c1.56-0.52,3-1.37,4.79-1.4
		c0.38,0,0.37,0.59,0.78,0.55c0.22,0.27,0.43,0.87,0.7,0.13c0.08-0.27,0.15-0.55,0.2-0.83c0.48-0.27,1.1-0.18,1.62-0.49
		s0.91,0.35,1.12,0.94c0.14-0.75,0.64-0.8,1.27-0.53s0.32,0.74,0.23,1.14l0,0c-0.67,0.39-1.23,0.84-0.7,1.79
		c0.06,0.49,0.06,0.98,0,1.47c-0.25,1.2,0.54,2.09,1.34,2.86c0.49,0.46,1,0.94,1.54,1.36c0.08,0,0.18,0.1,0.18,0.14
		c-0.19,0.79,0.5,0.58,0.86,0.76c1.06,0.63,1.06,0.63,0.23,1.68c0.6-0.07,0.69-0.51,0.67-1c0-0.61-0.68-0.45-1-0.74
		c-0.56-0.06-0.59-0.7-1-0.9c-0.09-0.41-0.13-0.76,0.48-0.4c0.66,0.42,1.45,0.61,2.23,0.53l0,0c0.77,0.3,1.53,0,2.32,0.29
		c0.46,0.18,0.7-0.14,0.63-0.63c-0.02-0.16-0.05-0.31-0.09-0.46c-0.41-0.95-0.67-1.97-0.78-3c-0.07-0.6-0.39-1.15-0.87-1.52
		c-0.7-0.72-0.85-1.81-0.37-2.69c-0.55,0.26-1,0.16-1.17-0.52c-0.04-0.19-0.13-0.38-0.25-0.53c-1.49-1.6-1.93-3.55-2.48-5.46
		c-0.3-0.93-0.67-1.85-1-2.77c-0.62-1.89-1.13-3.86,0.1-5.55c0.67-0.86,1.9-1.03,2.77-0.38c0.1,0.07,0.27,0.14,0.26,0.23
		c0,1,1,1.4,1.34,2.18c0.37,0.91,0.66,1.84,0.88,2.79c0.39,1.13,0.88,2.21,1.48,3.24l0.25,0.61l0.39-0.37
		c0.46-1.15,0.71-2.37,0.74-3.61c0.18-1.35,0.44-2.68,0.77-4c0.2-1.11,1.06-1.98,2.16-2.2c0.82-0.26,1.7,0.19,1.96,1.01
		c0.01,0.04,0.03,0.09,0.04,0.13c0.23,0.62,0.29,1.28,0.17,1.93c-0.67,3.39-1.75,6.68-3.22,9.81c-0.62,1.23-1.01,2.55-1.14,3.92
		c-0.12,1.24,0.12,2.48,0.7,3.58c0.72,1.27,1.49,2.53,0.44,3.83C65.12,106.63,65.59,107.1,65.92,107.46z"/>
	<path class="st130" d="M83.35,116.62c0.14,0.92,0.66,0,1,0.29c0,0.23-0.23,0.24-0.29,0.31c1.09-0.11,2-0.83,3-1.07
		c0.33,0.19,0.2,0.42,0,0.54c-0.45,0.34-0.87,0.62-0.39,1.37c0.22,0.32-0.22,0.47-0.51,0.56c-0.46,0.14-0.88,0.37-1.25,0.68
		c-0.25,0.22-0.59,0.46-0.31,0.83s0.58-0.07,0.88-0.09s1-0.28,1.15,0.5c-1.44,1.16-3.32,1-5.13,1.15c-0.42-0.84-1.3-1.06-2.6-0.64
		c-0.61,0.34-1.32,0.45-2,0.31c-0.31-0.48,0.12-0.7,0.31-1c0.88-1.2,1.8-2.37,2.61-3.62c0.39-0.51,0.54-1.16,0.4-1.79
		c-0.59-2.28,0.31-4.68,2.26-6c1.18-0.91,1.41-2.36,1.47-3.79c0-1.05-0.1-2.13,0-3.19c0.11-1.85-0.63-3.65-1-5.47
		c-0.12-0.51-0.03-1.05,0.24-1.5c0.94-1.22,1.35-2.77,1.12-4.3c0-0.22,0.07-0.44,0.21-0.62c0.34-0.46,0.24-1.21,0.86-1.48
		c0.38-0.16,0.78-0.7,1.27,0s0.51,1.13-0.26,1.51c0.67,0.25,0.62-1.06,1.33-0.55c0.48,0.35-0.15,1,0.31,1.51
		c0.76,1.33-0.14,2.38-0.28,3.54c-0.08,0.54-0.04,1.09,0.11,1.62l0.29,0.37c0.46,0.27,0.63-0.12,0.85-0.32
		c2.14-1.83,3.47-4.42,3.72-7.22c0-0.61,0.47-1,0.54-1.67c0.01-1.08,0.43-2.11,1.18-2.89c0.66-0.65,1.52-1.06,2.44-1.18
		c0.79-0.14,1.55,0.38,1.7,1.18c0.03,0.17,0.03,0.34,0,0.5c-0.51,2.56-0.81,5.22-1.92,7.54c-0.81,1.59-1.99,2.96-3.44,4
		c-0.8,1-2,1.42-2.8,2.41c-0.32,0.35-0.65,0.68-1,1c-0.7,0.61-0.89,1.61-0.46,2.43c0.42,1.28,1.18,2.81,0.35,4.15
		c-0.07,0.12-0.08,0.28-0.15,0.42c-0.28,0.53-1.15,0.75-1.2,1.15c-0.11,0.77-0.54,0.94-1.11,1.15c-0.44,0.22-0.76,0.62-0.86,1.1
		c-0.6,1.89-1.88,3.46-2.28,5.45C83.68,116.19,83.24,116.24,83.35,116.62z"/>
	<path class="st131" d="M98.07,115.56l0.44,0.24c1.46,0.57,2.7,0,3.89-0.45c2.72-0.92,5.25-2.34,7.44-4.2
		c0.68-0.58,1.24-1.32,1.89-2c1.09-0.84,2.65-0.63,3.49,0.46c0.01,0.02,0.03,0.03,0.04,0.05c0.22,0.23,0.32,0.55,0.28,0.87
		c-0.33,1.42-0.64,2.86-1.94,3.7c-0.85,0.57-1.65,1.2-2.4,1.89c-2.59,2.29-5.84,3.16-9.37,3.54c-2.31,0.24-4.62,0.36-6.94,0.35
		c-1.1,0.04-2.2-0.07-3.28-0.31c-0.76-0.18-1.55-0.26-2.33-0.22c-0.27-0.19-0.48-0.45-0.63-0.74c-0.62-1-0.28-2,0.78-2.18
		c0.32-0.09,0.65,0.09,0.74,0.41c0,0.01,0,0.01,0.01,0.02c0.15,0.33,0.33,0.64,0.55,0.93c0.32,0.56,0.63,0.84,1.18,0.43
		c0.31-0.23,0.74-0.14,1.15-0.23c-0.75-1.09-2-2-1.15-3.4c0.39,0,0.83,0.36,1.13-0.06c0.61-0.52,0.87-1.33,1.5-1.83
		c0.45-0.29,0.76-0.8,1.41-0.81c0.35,0.59,0.19,2-0.33,2c-1,0.1-1.29,0.63-1.2,1.54c0,0.13-0.15,0.24-0.22,0.25
		c1-1.39,2.33-2.36,4.46-1.51C99,115.11,97.89,115,98.07,115.56z"/>
	<path class="st132" d="M77,121.33c1.21-0.42,2.47-0.7,3.74-0.82c0.36,0,0.73,0,1,0.34s-0.05,0.47-0.27,0.61
		c-1.72,0.25-2.56,1.58-3.67,2.62c-0.87,0.84-1.94,1.45-3.11,1.78c-0.49,0.33-0.84,0.82-1,1.39c-0.38,1.24-1.26,2.26-2.44,2.81
		c-0.17,0.13-0.62,0-0.55,0.25c0.25,0.94-0.43,1.11-1,1.31s-0.64,0.72-0.47,1.21c0.08,0.2,0.08,0.25-0.06,0.29
		c-0.43,0.12-1,0-1.22,0.49c0,0.09-0.4-0.06-0.38-0.17c0.23-1-1.6-1.22-1.2-1.65c0.56-0.6,0.07-1.41,0.59-1.9
		c0.24-0.23,0.12-0.74,0.56-0.86c-0.3-0.33,0.83-0.92-0.34-1.1c-0.21-0.04-0.35-0.23-0.33-0.44c0-0.27,0.28-0.2,0.46-0.11
		c0.37,0.21,0.54,0.17,0.67-0.23s0.41-0.8,1-0.38c0.22,0.15,0.36,0,0.41-0.19c0.19-0.62,0.7-1.09,1.34-1.21
		c0.51-0.15,0.36-0.67,0.65-0.92c0.09-0.65,0.23-1.3,0.44-1.92c0.1-0.48,0.04-0.98-0.17-1.42c0-0.27,0-0.54-0.08-0.81
		c-0.04-1.04,0.36-2.05,1.12-2.77c1-0.94,0.79-2.32,0.94-3.56s0-2.8,0.1-4.19c0.01-0.35,0.09-0.69,0.24-1c0.46-0.47,1-0.29,1.58,0
		c0.46,0.29,1.01,0.39,1.54,0.29c0.44,0.59,0.15,1.18,0.25,1.78c0.07,0.41-0.08,0.82,0.2,1.23c0.02,0.08,0.04,0.16,0.07,0.24
		c-0.23,0.68-0.26,1.4-0.1,2.1c0.19,0.68-0.38,1.24-0.46,1.91c-0.84,1.46-0.74,3.28-1.37,4.82c0,0.11,0.19,0,0.28,0.08h0.29
		C76.47,121.3,76.73,121.18,77,121.33z"/>
	<path class="st133" d="M62.25,127c-0.82,0.22-0.85,1.19-1.54,1.56c-0.34,0.18-0.08,0.55,0.19,0.76s0.55,0.2,0.65-0.12
		c0.3-1,1-0.08,1.5-0.11c0.22,0,0.25,0.38,0.1,0.57c-0.62,0.75-0.73,1.8-0.29,2.66c0.09,0.52,0.09,1.05,0,1.57
		c0.12,0.24,0.3,0.49,0.14,0.75c-0.77-0.99-1.71-1.84-2.77-2.51c-0.38-0.19-0.79-0.47-1.06-0.1c-1.09,1.46-2.83,1.36-4.52,1.4
		c-1.55-0.31-1.83-1.56-2.22-2.72c0.03-0.1,0.09-0.18,0.18-0.24c0.58-0.21,1.14,0.38,1.72,0.26c0.4,0.06,0.53,0.35,0.62,0.66
		c0.17,0.53,0.61,0.59,1,0.71c0.1-0.24-0.18-0.33-0.23-0.49c-0.12-0.71-0.66-1.28-1.37-1.43c-1.09-0.35-0.32-1-0.11-1.55
		c0.41-0.57,1.26-0.73,1.46-1.5c-0.19-0.38,0.35-0.74-0.14-1.12l-0.42-0.27c-0.39-0.58-1.36-0.75-1.34-1.63
		c0.17-0.37-0.08-1.06,0.58-1s0.7,0.57,0.89,1c0.33,0.78,1.27,1,1.77,1.74c0.22,0.32,0.85-0.23,1.27-0.44s0.95,0.06,1.08-0.56
		s0.15-1.32,1.14-0.55c0.25,0.19,0.47-0.26,0.65-0.47s0.33-0.53,0.72-0.31s0.21,0.44,0.28,0.7C62.46,125.13,62,126,62.25,127z"/>
	<path class="st134" d="M71.71,150c-0.94,0.61-2.16,0.52-3-0.22c-1.48-1.36-1.9-3.12-2.39-4.85c-0.09-0.42-0.21-0.83-0.36-1.23
		c0.13-0.88,0.94-0.51,1.39-0.45c0.71,0.1,1.4,0.08,2.44,0.25c-1.37-1.45-1.24-3.18-2.17-4.57c-0.49-0.75,0.42-1.05,0.09-1.78
		c-0.36,0.62-0.63,1.3-0.78,2c-0.05,0.33-0.17,0.64-0.35,0.92c-0.35,0.44-0.64,0.43-0.93-0.17c-0.3-0.94-0.37-1.94-0.2-2.92
		c0.51-0.63,1.45-0.48,2.05-0.94c0.41-0.22,0.95-0.2,1.26-0.63c0.46-0.65,1-0.49,1.52,0.14c0.21,0.6,0.59,1,0.21,1.84
		c-0.6,1-0.28,2.29,0.72,2.9c0.06,0.04,0.13,0.07,0.19,0.1c0.34,0.16,0.42,0.6,0.46,0.94c0.22,1.21,0.33,2.45,0.34,3.68
		c-0.08,0.42,0,0.85,0.22,1.21c0.06,0.53,0.15,1.06,0.18,1.57c0,0.7-0.46,1.27-0.6,2C71.91,149.87,71.82,149.95,71.71,150z"/>
	<path class="st135" d="M74.4,125.73c1.92-0.63,3.58-1.86,4.74-3.52c0.55-0.76,1.49-0.56,2.27-0.75c1.83,0.13,3.66-0.23,5.29-1.06
		c0.39-0.8,1.25-0.91,2-1.18c0.15,0,0.29,0.03,0.43,0.08c1.58-0.18,3.16,0.48,4.75,0.51c3.12,0.12,6.25-0.04,9.35-0.48
		c2.63-0.46,5.3-1,7.23-3c0.84-0.81,1.78-1.52,2.79-2.11c1.41-0.84,1.64-2.33,2-3.73c0.16-0.58-0.85-1.39-1.64-1.55
		c-1.1-0.18-2.2,0.38-2.7,1.38c-0.76,0.93-1.67,1.72-2.71,2.33c-2.38,1.73-5.11,2.91-8,3.47c-0.5,0.06-1,0.06-1.5,0
		c-0.23,0-0.36-0.16-0.2-0.38c4.43-0.16,7.77-2.37,11-4.73c0.7-0.53,1.3-1.16,1.79-1.88c0.7-1,1.8-0.82,2.78-0.63
		c1.09,0.15,1.86,1.15,1.72,2.25c-0.01,0.11-0.04,0.21-0.07,0.31c-0.26,1.45-1.08,2.74-2.3,3.58c-1.61,1.07-2.85,2.59-4.64,3.46
		c-3.07,1.5-6.49,1.87-10,2.08c-2.57,0.28-5.16,0.17-7.69-0.33c-1.31-0.34-2.71-0.07-3.8,0.74c-1.71,1.01-3.69,1.46-5.67,1.3
		c-1.01-0.13-2.01,0.29-2.62,1.11c-0.88,1.28-2.17,2.22-3.65,2.69C75,125.58,74.79,126.24,74.4,125.73z"/>
	<path class="st136" d="M43.13,111.94c-0.62,0.31,0,0.91-0.16,1.35c-0.09,0.28,0.37,0.72,0,1s-0.61-0.23-0.92-0.38
		c-0.14-0.06-0.29-0.14-0.44-0.19s-0.33,0-0.33,0.17s0,0.28,0.12,0.3c1.46,0.54,1.3,1.3,0.61,2.18c-0.1,0.13,0,0.44,0.06,0.67
		c-0.56-0.23-1.16,0-1.71-0.33c-1.3-0.63-2.64-1.19-4-1.67c-0.21-0.13-0.44-0.23-0.63-0.37c-0.38-0.29-1.2-0.07-1.17-0.74
		c-0.09-0.79,0.26-1.56,0.92-2c1.39-1.03,3.25-1.19,4.8-0.42c0.67,0.24,1.37,0.4,2.08,0.47c-0.07,0.24-0.31,0.36-0.39,0.61
		c0.17-0.18,0.3-0.38,0.39-0.61C42.59,111.83,42.88,111.82,43.13,111.94z"/>
	<path class="st137" d="M77,121.33c-0.26,0.12-0.53,0.3-0.76-0.13c1.37-1.49,2.59-3.11,3.65-4.84c0.2-0.37,0.24-0.8,0.13-1.2
		c-0.31-2-0.28-3.88,1-5.39c0.14-0.17,0.23-0.4,0.41-0.5c2.16-1.1,2.32-3.19,2.26-5.38c-0.02-0.3-0.02-0.61,0-0.91
		c0.25-2.32-0.59-4.61-1.13-6.9c-0.1-0.38-0.01-0.78,0.25-1.08c1.06-1.22,1.17-2.78,1.26-4.37c0-0.71,0.14-1.41,0.22-2.12
		c0.23,0.04,0.43,0.16,0.57,0.35c0.11,0.46,0.07,0.94-0.11,1.38c-0.42,0.43-0.08,1-0.06,1.49c-0.05,1.14-0.44,2.24-1.1,3.17
		c-0.34,0.51-0.44,1.16-0.27,1.75c0.58,1.72,0.9,3.52,0.94,5.34c-0.06,1.59,0.25,3.29-0.11,4.77c-0.1,1.14-0.76,2.15-1.77,2.69
		c-1.58,0.67-2.39,3.78-1.78,5.48c0.22,0.7,0.06,1.46-0.43,2C79.1,118.36,78.05,119.82,77,121.33z"/>
	<path class="st138" d="M65.92,107.46c-1.1-0.21-1.06-0.94-0.63-1.48c0.79-1,0.42-2-0.2-3c-1.09-1.48-1.41-3.4-0.85-5.16
		c1.17-3.38,2.57-6.67,3.6-10.1c0.53-1.26,0.71-2.64,0.52-4c-0.15-0.6-0.22-1.35-1-1.48c-0.74-0.12-1.49,0.14-2,0.7
		c-0.64,0.77-0.99,1.75-1,2.75c-0.07,0.91-0.48,1.67-0.55,2.55c-0.18,0.12-0.31,0.14-0.35-0.14c0.14-1.59,0.46-3.17,0.94-4.69
		c0.37-1.37,1.59-1.58,2.77-1.82c0.69-0.15,1.23,0.5,1.42,0.95c0.4,0.83,0.55,1.77,0.41,2.68c-0.71,4.22-2.85,7.83-3.9,11.88
		c-0.64,1.87-0.5,3.92,0.39,5.68c0.61,1.13,1.12,2.34,0.31,3.47C65.49,106.65,66,107.06,65.92,107.46z"/>
	<path class="st139" d="M54,124c-0.07,0.83,1.12,0.9,1.16,1.66c-2.83-1.58-4.14-4.62-3.05-7c0.63-1.38,2.12-1.41,3.25-0.18
		c1.13,1.18,1.85,2.7,2.05,4.32c-1.62-0.72-1.25-2.26-1.78-3.17c0,0.46-0.29,0.55-0.9,0c0.05,0.08,0.11,0.16,0.17,0.24
		c0.4,0.52,1.36,0.73,1.18,1.54c-0.13,0.61-2.19,1.23-3,1C53.16,123.09,54,123.36,54,124z"/>
	<path class="st140" d="M93.15,96.48c0.77-0.94,1.67-1.76,2.45-2.7c1.12-1.34,1.34-3,1.84-4.59c0.35-1.1,0.42-2.31,0.69-3.44
		c0.16-0.7,0.53-1.49-0.24-2c-0.76-0.44-1.71-0.35-2.38,0.22c-1,0.59-1.67,1.63-1.79,2.79c0,0.53,0.31,1.61-0.61,2.09
		c-0.21,0.11-0.22,1.15-0.36,1.77c-0.58,2.32-1.86,4.41-3.65,6c-0.45,0.45-0.48,0.42-0.95,0c2.52-1.83,4.09-4.68,4.3-7.79
		c0.03-2.09,1.02-4.05,2.68-5.32c0.8-0.4,1.7-0.58,2.59-0.51c0.74-0.06,1.4,1.08,1.19,2c-0.57,2.47-0.75,5.11-1.87,7.36
		c-0.76,1.81-2.07,3.34-3.74,4.37c-0.1-0.02-0.17-0.11-0.16-0.22C93.14,96.5,93.15,96.49,93.15,96.48z"/>
	<path class="st141" d="M44,121.46c-1.62,2-3.35,3.85-6.5,3.41c-1.67-0.24-2.6-1.67-1.93-3c0.42-0.81,1.44-0.61,2.2-0.87
		c0.11,0,0.25,0.12,0.28,0.22c0.34,1.42,1.67,1.17,2.55,1.51c0.48,0.19,1-0.53,1.54-0.9C42.6,121.29,43.37,121.14,44,121.46z"/>
	<path class="st142" d="M94.6,113.11c-0.54,0.57-0.76,1.42-1.57,1.76c-0.11-0.03-0.18-0.14-0.15-0.25c0.77-0.92,1.1-2.14,2-3
		c0.51-0.5,1-1.07,1.93-0.77c0.67,0.22,0.89-0.31,1.12-0.8c0.84-1.79,1-3.84,1.88-5.64c0.5-1.09,1.16-2.09,1.94-3
		c0.87-1,3-1.07,4.19-0.17c0.58,0.39,0.89,1.08,0.8,1.77c0.01,1.78-0.66,3.49-1.89,4.77c-0.38,0.35-0.41,1-0.88,1.38
		c-0.47-0.21-0.51-0.23-0.34-0.54c0.26-0.52,0.55-1.03,0.87-1.52c0.09-0.71,0-1.52,0.83-1.84c0.29-0.41,0.45-0.9,0.45-1.4
		c0-0.85-0.05-1.68-1.19-2c-1.49-0.48-1.91-0.35-2.86,1.07c-0.53,0.7-0.93,1.5-1.19,2.34c-0.18,0.78-0.81,1.36-0.8,2.22
		c-0.28,0.68-0.36,1.45-0.71,2.11c-0.33,0.93-0.6,1.92-1.84,2.07c-0.37-0.04-0.74-0.01-1.1,0.1
		C95.47,112.05,94.95,112.52,94.6,113.11z"/>
	<path class="st143" d="M42.59,99.17c1.74,1.91,3.39,3.92,4.92,6c0.6,0.68,1.37,1.18,2.23,1.46c-0.16,0.36-0.8,0.21-0.71,0.74
		c-0.96-0.74-1.8-1.62-2.48-2.62c-1.18-1.81-2.57-3.49-4.12-5c-2.16-2.16-3.07-5.27-2.43-8.25c0.06-0.67,0.61-1.18,1.28-1.19
		c1.52-0.21,3.06,0.3,4.16,1.37c1.86,1.92,3.27,4.23,4.11,6.76c0,0.16-0.08,0.45-0.16,0.46c-0.28,0-0.17-0.27-0.27-0.42
		c-0.1-0.16-0.19-0.33-0.26-0.51l-0.11-0.12c-0.53-0.5-0.55-1.29-1.19-1.71c-0.51-1.4-1.35-2.66-2.45-3.67
		c-0.8-0.82-1.86-1.32-3-1.42c-0.58-0.15-1.18,0.2-1.33,0.78c-0.01,0.04-0.02,0.07-0.02,0.11c-0.4,1.95-0.04,3.97,1,5.66
		C42.07,98.11,42.35,98.63,42.59,99.17z"/>
	<path class="st144" d="M65.51,137.16c0.31,0.2,0.41,0.61,0.21,0.92c0,0,0,0,0,0.01c-0.4,0.78,0,1.43,0.51,2.32
		c0.36-1.06,0.68-1.94,1-2.84c0.13-0.44,0.18-1,0.85-0.7s0,0.61,0,0.93s0.15,0.72,0.29,1.66c0.3,1.52,0.92,2.97,1.82,4.23
		c-1.42,0.22-2.79-0.29-4.08-0.15c-0.17,0-0.22,0-0.17-0.18c-0.27-2.32-1-4.66-0.63-7C65.72,136.6,65.63,136.88,65.51,137.16z"/>
	<path class="st145" d="M62.25,127c-1-0.31,0.11-1-0.44-1.41c0.68-0.54-0.28-1.32,0-2c-0.3,0.36-0.64,0.7-1,1
		c-0.51,0.38-0.93,0.33-0.69-0.94c-0.66,0.95-0.55,2.07-1.74,1.8c-0.26-0.17-0.33-0.52-0.16-0.78c0.64,0.49,1.1,0.62,1.11-0.36
		c0.03-0.34,0.09-0.67,0.18-1c0.03-0.68-0.06-1.35-0.26-2c-0.03-0.11-0.03-0.23,0-0.34c0.17-0.44,0.37-0.88,0.6-1.29
		c0.23-0.44,0.7-0.7,1.2-0.65c0.61,0.08,0.85,0.54,1,1.07c0.93,2.2,1.03,4.66,0.28,6.92L62.25,127z"/>
	<path class="st134" d="M58.25,124.7c0,0.26,0.1,0.52,0.16,0.78c-0.2,0.57-0.76,0.61-1.25,0.74c-0.15,0.03-0.29,0.03-0.44,0
		c-0.06-1.1-1.64-1.11-1.72-2.14c-0.03-0.39-0.28-0.73-0.65-0.87c-0.28,0.22,0.1,0.73-0.34,0.85c-0.65-0.4-1.1-1.06-1.22-1.81
		c0.91,0.15,1.9,0.47,2.25-0.68c0.16-0.49,0.55-0.35,1-0.19c-0.14-0.82-1.14-0.77-1.44-1.5c-0.16-0.37,0-0.53,0.09-0.6
		c0.36-0.21,0.26,0.19,0.32,0.33s0.2,0.29,0.35,0.23s0.08-0.46,0.12-1c0.82,1.43,0.74,3,2,3.93C57.7,123.43,58,124.07,58.25,124.7z"
		/>
	<path class="st146" d="M77,109.1c-0.2,0.38-0.26,0.78-0.94,0.25c-0.54-0.5-1.29-0.69-2-0.51c-0.72-0.64,0.1-1.33-0.32-2
		c0.25-1.22,0.27-2.56,1.66-3.12c0.42-0.23,0.94-0.14,1.25,0.23c0.62,1.03,0.82,2.26,0.54,3.43C76.63,107.85,77.53,108.64,77,109.1z
		"/>
	<path class="st147" d="M72.39,146.26c-0.35-0.16-0.71-0.18-0.56-0.79c0.34-0.76,0.26-1.64-0.21-2.32
		c-0.32-0.42,0.33-1.05,0.09-1.67c-0.19-0.47-0.2-1-1-1.16c-1.16-0.3-0.35-1.29-0.61-2c-0.17-0.44,0-1.14-0.24-1.7
		c0.43-0.25,0.45,0.3,0.75,0.3c-0.08-0.48-0.51-0.9-0.44-1.4c-0.12-0.77,0.26-1.47,0.1-2.24c0-0.16,0-0.31,0.25-0.32
		c0.87-0.12,0.22-1.25,0.91-1.48c0-0.16,0.09-0.18,0.2-0.05c0,0.85-0.34,1.58-0.38,2.42c-0.04,2.64,0.41,5.27,1.35,7.74
		c0.51,0.65,0.8,1.44,0.84,2.27C73.41,144.77,73.04,145.62,72.39,146.26z"/>
	<path class="st148" d="M56.32,112.39c0.26-0.39,0.82-0.49,0.93-1.07c0.06-0.35,0.65-0.22,0.79-0.1c0.48,0.37,1.14,0.4,1.65,0.07
		c0.7-0.3,1.5-0.17,2.08,0.32c0.75,0.45,1.48,1,2.25,1.39c0.77,0.39,0.42,1.55,0.8,2.32s-0.51,1.44-0.12,2.28h-0.17
		c-0.4-0.14-0.49-0.48-0.59-0.81v-0.08v-0.09c-0.13-1.26-1-2.32-2.22-2.69c-1.44-0.5-2.73-1.59-4.32-1.48L56.32,112.39z"/>
	<path class="st149" d="M54.64,98.8c-0.11-0.37,0.27-0.87-0.58-1s-0.56,0.28-0.56,0.68c0.02,0.19-0.11,0.37-0.3,0.39
		c-0.05,0.01-0.09,0-0.14-0.01c-0.29,0-0.35-0.29-0.28-0.53c0.14-0.35-0.03-0.74-0.38-0.88c-0.49-0.24-0.43,0.24-0.6,0.43
		c-0.45,0.5-0.94-0.19-1.4-0.12c-0.04-0.53-0.04-1.05,0-1.58c0.11-0.89,0.37-1.61,1.49-1.72c1.1-0.14,2.17,0.45,2.63,1.46
		C55.13,96.77,55.18,97.9,54.64,98.8z"/>
	<path class="st150" d="M56.56,91.8c0.43,0.89,0.76,1.83,1,2.79c0.17,0.9,0.62,1.72,1.29,2.34c0.4,0.44,0.76,0.75,0.58,1.3
		c0.63,0.12,1-0.35,1.59,0c-0.53,0.31-1.1,0.57-0.67,1.38c0.29,0.54,0,1.25,1,1.58c0.51,0.17,0.75,1.53,0.7,1.61
		c-0.68,1.13,0.64,2,0.7,3s-0.24,1.6-1.28,1.07c-0.68-0.35-1.42,0.3-2-0.48c0.6-0.34,1.29-0.06,1.94,0c0.4,0,0.78,0.09,0.51-0.58
		c-1-2.5-2-5-3-7.53c-0.33-0.78-0.75-1.51-1.25-2.19c-0.9-1.42-1.47-3.02-1.67-4.69C56.3,91.4,56.43,91.6,56.56,91.8z"/>
	<path class="st151" d="M68.94,117c-0.36,0.43-0.41,1.08-1,1.39c-0.25,0.13-0.4,0.14-0.56-0.12s-0.08-0.4,0.25-0.36
		s0.49-0.31,0.43-0.37c-0.83-0.83,0.21-1.64-0.33-2.66c-0.24,0.6-0.33,1.17-0.87,1.31c-0.26,0.07-0.61,0.3-0.83-0.06
		c-0.15-0.28-0.05-0.63,0.22-0.79c0.39-0.34,1-0.35,1.49-1.13l-1.65,0.56c-0.37-0.87-0.28-1.77-1-2.54c-0.45-0.49,0.11-1,0.38-1.24
		s1,0.23,1,0.35c0.09,1,1,0.7,1.44,1.1c0.84,0.87,0.88,2,1.41,3l-0.15,0.44C68.94,116.2,69.2,116.68,68.94,117z"/>
	<path class="st152" d="M93.15,96.48l0.15,0.23c-0.07,0.48-0.4,0.89-0.86,1.06C91,98.51,90.17,99.88,89,100.9
		c-0.14,0.13-0.38,0.32-0.15,0.57c1,1.09,0.44,2.47,1.16,3.65c0.35,0.56-0.21,1.26-0.48,1.73c-0.45,1.12-1.26,2.06-2.3,2.67
		c-0.36,0.16-0.72,0.3-0.87,0.75c-0.62,2-1.86,3.61-2.45,5.58c-0.06,0.33-0.27,0.61-0.56,0.77c-0.13,0-0.48,0.19-0.32-0.16
		c0.88-2,1.84-3.92,2.72-5.89c0.34-0.75,0.54-1.55,1.56-1.64c0.13,0,0.35-0.17,0.34-0.23c-0.19-0.74,0.18-1,0.8-1.17
		s0.45-1.18,0.8-1.7c0.29-0.41,0.29-0.97,0-1.38c-0.51-1-0.41-2.12-0.84-3.2c-0.18-0.44,0.71-1.25,1.21-1.81
		C90.64,98.28,91.83,97.29,93.15,96.48z"/>
	<path class="st153" d="M56.56,91.8c-0.25,0-0.38-0.23-0.53-0.4c-0.94-1.69-1.5-3.56-1.64-5.49c-0.14-1.2,0.36-2.39,1.33-3.12
		c1.36-1,3-0.26,3.81,1.37c1.21,2.42,1.75,5,2.7,7.42c-0.96-0.97-1.6-2.23-1.8-3.58c-0.21-1.24-0.74-2.41-1.54-3.38
		c-0.37-0.43-0.28-1.14-1-1.39c-1.38-0.46-3.21,0.88-2.85,2.32c0.12,0.5,0.18,1.01,0.16,1.52c0,1.5,1,2.77,1.3,4.19
		C56.53,91.44,56.55,91.62,56.56,91.8z"/>
	<path class="st154" d="M44,121.46c-1.13,0.08-2.17,0.66-2.82,1.59c-0.16,0.26-0.5,0.33-0.76,0.16c-0.04-0.03-0.09-0.06-0.12-0.1
		c-0.21-0.17-0.32-0.58-0.62-0.48c-1.59,0.51-1.56-0.78-1.91-1.65c0.75-0.75,1.9-0.87,2.77-1.43c-0.14,0.53-0.78,0.45-1.08,0.79
		c0.19,0.2,0.34,0,0.5,0c0.21,0.76,0.61,0.7,1.08,0.38c0.22-0.15,0.5-0.26,0.74,0c0.2,0.14,0.24,0.42,0.1,0.61
		c-0.03,0.04-0.06,0.07-0.1,0.1c0.92-0.68,1.88-1.31,2.87-1.89c0.14,0.09,0.32,0.09,0.46,0C44.93,120.27,44.54,120.94,44,121.46z"/>
	<path class="st155" d="M84.78,88.86c-0.22-0.05-0.4-0.19-0.49-0.39c0.46-1.82,1.13-3.58,2-5.24c0.68-1.2,2.2-1.62,3.39-0.94
		c0.11,0.06,0.22,0.13,0.32,0.21c0.35,0.22,0.58,0.59,0.64,1c0.24,1.57,0.06,3.17-0.53,4.64c-0.17,0.4-0.61,0.5-1,0.66
		c-0.12,0.18-0.27,0.13-0.43,0c-0.22-0.26-0.19-0.65,0.07-0.87c0.02-0.01,0.03-0.02,0.05-0.04c1-0.81,1-2,1-3.18
		c0-0.61,0.15-1.36-0.84-1.59s-1.91,0.08-2.06,1c-0.11,0.61-0.39,1.18-0.81,1.64c-0.4,0.82-0.73,1.67-1,2.54
		C85.11,88.52,85.14,88.84,84.78,88.86z"/>
	<path class="st156" d="M62.09,120.17c-0.3-0.37-0.53-0.89-1.09-0.84c-0.54,0.03-0.97,0.46-1,1c-0.05,0.47-0.42,0.66-0.6,1
		c-0.89-0.56-0.83-1.44-1-2.23l0,0c-0.07-0.57,0.3-1.05,0.16-1.63l0,0c0.67-0.62,1.6-0.26,2.42-0.33
		C61.95,117.82,62.39,119.03,62.09,120.17z"/>
	<path class="st157" d="M72.39,146.26c0.21-0.29,0.47-0.56,0.22-1c-0.1-0.16-0.14-0.35-0.1-0.53c0.69-1.45,0.7-1.44,0.06-2.89
		c0-0.06,0-0.14,0.06-0.2l1,1.37c0.07,0.09,0.13,0.19,0.16,0.3c1.41,2.46,0.31,4.22-1,5.94c-0.25,0.32-0.48,0.65-1,0.48
		c0.33-0.49,0.53-1-0.37-1.22c0.26-0.59,0.78,0.09,1.09-0.25C72.48,147.62,71.8,146.89,72.39,146.26z"/>
	<path class="st158" d="M104.78,107.16c-0.34,0.54-0.68,1.07-1,1.61c-0.1,0.17-0.14,0.35,0.18,0.39c-0.85,2.58-3,4.06-5,5.67
		c-0.3,0.25-0.62,0.49-0.93,0.73c-0.44-0.12-0.4-0.31-0.12-0.51s0.65-0.19,0.69-0.6c-0.04-0.28,0.09-0.55,0.33-0.7
		c0.58-0.38,1.13-0.81,1.64-1.28c0.33-0.35,0.8-0.55,0.31-1.42c-0.28-0.86-0.12-1.8,0.41-2.53c0.28-0.44,0.59,0,0.75,0.32
		s-0.08,0.82,0,1.24c0.2,0.14,0.34,0,0.32-0.13c-0.26-1.41,1.15-1.73,1.62-2.66C104.16,107.03,104.52,106.97,104.78,107.16
		C104.78,107.16,104.78,107.16,104.78,107.16z"/>
	<path class="st159" d="M70.55,133c0,0.11-0.06,0.21-0.08,0.31c-0.23,0.82-1.09,0.91-1.67,1.33s-1.12,0.7-1.07,1.51
		c-0.44,0.88-1.63,0.41-2.22,1c-0.08-0.25,0-0.53-0.22-0.76c-0.44-1-1.77-0.9-2.3-1.81c-0.09-0.25-0.29-0.49-0.14-0.75
		c1.62,1.43,2.86,2,3.82,1.1s2.38-1.1,3.17-2.16C70.14,132.38,70.35,132.76,70.55,133z"/>
	<path class="st160" d="M56,127.11c0.49,0.24,0.25,0.42,0,0.51c-0.6,0.26-1.15,0.63-1.62,1.09c-0.07,0.45-0.64,0.6-0.61,1.11
		c-0.26,0.44-0.91,0.3-1.2,0.7l0,0c-1,0.1-0.8,1-0.74,1.6c0,0.46,0.7,0.5,1.13,0.68s0.94-0.16,1,0.57c-0.67,0.07-1.35,0.01-2-0.17
		c-1.68-0.54-2.11-1.57-1-2.82c0.51-0.68,1.2-1.21,2-1.53c1.14-0.3,2.11-1.04,2.7-2.06C55.76,126.83,55.81,127.06,56,127.11z"/>
	<path class="st161" d="M64.91,119.36c0.5-0.14,0.91-0.51,1.09-1c0.32,0.42,0.14,0.65-0.09,0.73c-1,0.29-0.85,1-0.72,1.81
		s-0.29,1.88,0,2.9c0.17,0.51,0,1,0.53,1.55s0,1.3,0.23,2c0.34,1-0.3,1.88-0.38,2.86c0,0.28-0.45,0.48-0.84,0.34
		c-0.17-0.06-0.09-0.26,0-0.39c0.79-1.24,0.93-2.8,0.37-4.16c-0.47-1.31-0.63-2.72-0.46-4.1c0.06-0.79-0.08-1.58,0-2.36
		C64.63,119.35,64.72,119.28,64.91,119.36z"/>
	<path class="st162" d="M73.74,106.86c0.71,0.64-0.08,1.33,0.32,2c-0.35,2.17-0.06,4.45-0.33,6.65c-0.09,0.83-0.4,1.62-0.91,2.29
		c-0.67,0.6-1.03,1.47-1,2.37c0,0.17-0.12,0.26-0.31,0.15c-0.42-0.79-0.26-1.76,0.39-2.38c1.47-1.31,1.43-3.13,1.42-5
		C73.33,110.91,73.47,108.88,73.74,106.86z"/>
	<path class="st153" d="M92.88,114.62l0.15,0.25c-0.31,0.61-0.66,0.63-1-0.06c-0.24-0.05-0.46-0.15-0.66-0.3
		c-1.66-1.13-2-1.09-3.16,0.29c-0.38,0.45-0.49,1.08-1,1.4c-1.12,0.46-2,1.41-3.56,1.12l0.72-0.41c1.93-0.24,2.74-1.72,3.64-3.1
		s1.77-1.37,3.18-0.46C91.74,113.74,92.1,114.49,92.88,114.62z"/>
	<path class="st163" d="M71.8,149.72c1.71-1.31,2.49-3.5,2-5.59c-0.09-0.37-0.15-0.75-0.19-1.13c2.33,3.13,1.43,6.37-1.94,7
		L71.8,149.72z"/>
	<path class="st164" d="M56.8,106.29c-0.84,0.2-1.3-0.74-1.63-1.06c-0.74-0.71-1.87-1.53-1.51-2.86c0.1-0.62,0.14-1.25,0.12-1.88
		c0.16-0.12,0.28-0.12,0.34,0.12c-0.47,2.19,1,3.46,2.66,4.72c0.82,0.5,1.72,0.84,2.66,1c-0.77,0.54-1.54,0-2.25-0.33
		c-0.47-0.24-0.39,0-0.39,0.25V106.29z"/>
	<path class="st165" d="M68.94,117c-0.23-0.38-0.12-0.87,0.24-1.12c0.38,2,0.86,3.98,1.46,5.93c0,0.48,0.42,0.88,0.4,1.38
		c0.16-0.38,0.39-0.69,0.56-1v-1.06c0.66,1.05,0.55,2.41-0.27,3.34c-0.92,0-1.24-0.35-1.16-1.24c0.13-1.53-0.55-3-0.86-4.52
		C69.23,118.12,69.08,117.56,68.94,117z"/>
	<path class="st138" d="M88.72,88.64l0.42,0.13c-0.67,0.88-0.86,2.03-0.5,3.08c0.06,0.14,0.12,0.35,0.06,0.45
		c-0.78,1.16-0.33,2.69-0.84,3.93c-0.15,0-0.16,0.64-0.48,0c-0.21-0.38,0.6-1-0.44-1.16c0-0.1,0-0.24,0.09-0.3
		c0.91-0.97,1.23-2.36,0.84-3.64c-0.11-0.72-0.04-1.45,0.21-2.13C88.23,88.8,88.36,88.56,88.72,88.64z"/>
	<path class="st166" d="M53.9,133.37c-0.33-0.49-0.78-0.24-1.18-0.33c-0.63-0.15-1.44-0.25-1.07-1.24c0.03-0.07,0.03-0.15,0-0.22
		c-0.76-1.31,0-1.23,0.95-1.06c0.34,1.17,1.08,2.18,2.09,2.86L53.9,133.37z"/>
	<path class="st167" d="M57.37,112.46c1.41-0.66,2.62,0.44,3.87,0.92c1,0.38,2.12,0.76,2.49,2c0.12,0.41,0.35,0.8,0.18,1.22
		c-0.45-1.38-1.59-2.42-3-2.74C59.73,113.53,58.6,112.82,57.37,112.46z"/>
	<path class="st168" d="M71.66,131.47c-0.07,0.01-0.14,0.02-0.2,0.05c-0.34-0.48-0.06-1-0.23-1.46c1.03-0.86,1.84-1.96,2.35-3.2
		c0.18-0.44,0.46-0.83,0.82-1.13h1c-0.86,0.16-1.49,0.9-1.5,1.78c-0.08,0.55-0.39,1.04-0.84,1.35
		C72.27,129.51,71.77,130.45,71.66,131.47z"/>
	<path class="st169" d="M65.92,143.36l0.16,0.18c0.59,1.27,0.77,2.61,1.26,3.91c0.34,0.89,1.16,1.47,1.41,2.36
		c-1.07-0.7-1.8-1.82-2-3.08C66.5,145.6,65.86,144.52,65.92,143.36z"/>
	<path class="st170" d="M75.94,121.24l-0.61,0.42c0.67-1.89,0.58-3.85,1.61-5.4c0.15,0,0.2,0.11,0.16,0.24
		C76.71,118.08,76.32,119.66,75.94,121.24z"/>
	<path class="st171" d="M36.41,115c1.48,0.09,2.89,0.68,4,1.67C38.93,116.56,37.53,115.97,36.41,115z"/>
	<path class="st172" d="M77,109.1c0.14-0.53-0.45-1.18,0.11-1.63c0.03-0.1,0.14-0.16,0.24-0.12c0.01,0,0.02,0.01,0.03,0.01
		c-0.15,1.56,0.39,3.18,0.14,4.73c-0.9-0.63-0.26-1.42-0.45-2.12C77,109.71,77.2,109.4,77,109.1z"/>
	<path class="st173" d="M77.1,116.5c0-0.08-0.1-0.16-0.16-0.24c0-0.93,0.59-1.76,0.12-2.82c-0.1-0.45,0.12-0.91,0.53-1.11
		C78,113.73,77.82,115.23,77.1,116.5z"/>
	<path class="st143" d="M63.41,88.13l0.35,0.14c-0.06,1.27,0.23,2.65-0.89,3.55L63.41,88.13z"/>
	<path class="st149" d="M54.12,100.61l-0.34-0.12c-0.56-0.94-0.69-1.65,0.86-1.69C54.72,99.45,54.53,100.1,54.12,100.61z"/>
	<path class="st174" d="M77.38,107.36l-0.27,0.1c0.05-1.18-0.11-2.36-0.46-3.49C77.52,104.87,77.8,106.18,77.38,107.36z"/>
	<path class="st175" d="M69.33,115.44c-0.87-0.86-0.77-2.06-1.41-3c0.11-0.29-0.08-0.53-0.24-0.78s0-0.27,0.17-0.28
		C68.31,112.74,69.21,114,69.33,115.44z"/>
	<path class="st176" d="M60.93,117.15c-0.7,0.53-1.61,0.24-2.42,0.33C59.47,116.5,60,116.43,60.93,117.15z"/>
	<path class="st177" d="M71.6,122.17c-0.01,0.72-0.25,1.42-0.69,2c-0.2-0.78-0.29-1.59-0.27-2.4
		C70.87,122.25,71.17,122.47,71.6,122.17z"/>
	<path class="st176" d="M58.35,119.1c0.27,0.77,0.6,1.52,1,2.23l0,0c-0.12,0.18,0.28,0.58-0.2,0.61
		C58.79,121,58.1,120.14,58.35,119.1z"/>
	<path class="st148" d="M64.91,119.36l-0.32,0.15c0-0.17-0.07-0.33-0.11-0.49c0.12-0.46-0.63-1.12,0.17-1.43l0,0
		C65.43,118.19,65,118.77,64.91,119.36z"/>
	<path class="st156" d="M59.19,121.94c0.06-0.2,0.13-0.41,0.2-0.61c0.44,0.6,0.5,1.4,0.15,2.06
		C59.42,122.91,59.3,122.42,59.19,121.94z"/>
	<path class="st176" d="M58.51,117.49c0.11,0.22,1,0.21,0.26,0.71c-0.24,0.18-0.29,0.6-0.42,0.92
		C58.14,118.58,58.2,117.98,58.51,117.49z"/>
	<path class="st178" d="M64.65,117.59c-0.48,0.38,0.14,1-0.17,1.43c-0.31-0.7-0.49-1.45-0.54-2.22L64.65,117.59z"/>
	<path class="st138" d="M67.85,111.38l-0.17,0.28c-0.71-0.42-0.31-0.8-0.1-1.19C67.83,110.7,67.94,111.05,67.85,111.38z"/>
	<path class="st134" d="M56,127.11c-0.22,0-0.31-0.18-0.43-0.32s0-0.55,0-0.83c0.4-0.09,0.76,0,0.45,0.43
		C55.87,126.61,55.87,126.89,56,127.11z"/>
	<path class="st179" d="M42.59,99.17c-2.27-2-2.61-5.59-2.14-7.59c0.2-0.89,1.49-1.06,2.81-0.6c2.07,0.71,3,2.6,4.31,4.06
		c0.28,0.31-0.39,0.68,0.14,1c0.31,0.67,0.38,1.44,1.09,1.92l0,0c-1,0.09-1.69,0.8-2.7,0.79c-0.16,0-0.36-0.12-0.44,0.17
		c-0.22,0.79-0.7,0.7-1.23,0.12c-0.32,0.23,0.08,0.44,0,0.65c-0.04,0.23-0.26,0.39-0.49,0.35c-0.4,0-0.19-0.31-0.26-0.49
		c-0.25-0.57,0.42-1.35-0.16-1.58s-0.3,0.94-0.9,1.1C42.62,99.08,42.61,99.14,42.59,99.17z"/>
	<path class="st180" d="M44.59,119.53c-0.87,1.04-2.01,1.82-3.29,2.27c-0.14-0.3,0.13-0.29,0.23-0.4s0.29-0.4,0.07-0.58
		s-0.44,0-0.53,0.21c-0.47,1.11-1-0.3-1.43-0.15c0.09-0.18,0.19-0.36,0.28-0.55c0.81-0.24,1.48-0.81,1.86-1.56
		c0.24-0.4,0.64-0.55,0.91-0.86c0.52-0.61,0.68,0.22,1.13,0.8c-0.12-1,0.57-1.14,0.91-1.56s0.42,0.14,0.58,0.26s0.47,0.52,0.06,0.81
		C44.99,118.57,44.71,119.03,44.59,119.53z"/>
	<path class="st164" d="M57.8,107.17c0.34,0.19,0.9-0.43,1.09,0.45c0.22,1.06-0.09,1.63-1.28,1.63c-0.12-0.75,0.44-1,1-1.34
		c-0.27-0.27-0.68-0.35-0.77-0.74H57.8z"/>
	<path class="st181" d="M48.17,111l3.61-1.63c0.15,0.23,0.2,0.7-0.08,0.67C50.31,109.93,49.44,110.86,48.17,111z"/>
	<path class="st164" d="M57.8,107.17l-1.41,0.22c0.09-0.46,0.87-0.54,0.41-1.1l0,0C57.2,106.49,57.54,106.79,57.8,107.17
		L57.8,107.17z"/>
	<path class="st150" d="M57.06,92.31c0.36-0.21,0.52-0.56,0.95-0.36c0.08,0.07,0.14,0.16,0.17,0.26
		C57.89,92.53,57.4,92.57,57.06,92.31z"/>
	<path class="st132" d="M87.14,116.2c0.26-0.99,0.83-1.87,1.62-2.52c0.55-0.58,1.36-0.33,2,0.08c0.42,0.3,0.81,0.64,1.17,1
		c-0.34,0.68,0,1.31,0.33,2s1.15,0.88,1.33,1.72c-0.72,0.09-1.56-0.08-2.16,0.46c-0.11,0.1-0.66,0.14-0.65-0.23
		c0-0.76-1.27-0.92-0.91-1.77c0,0-0.1-0.15-0.15-0.15c-0.14-0.01-0.29-0.01-0.43,0c0.65,1-1.61,0.12-0.79,1.22
		c0.24,0.38,0.43,0.79,0.58,1.22l-0.22,0.07c-0.86,0.09-1.53,0.9-2.6,0.25c-0.26-0.16-0.51,0.35-0.79,0.51
		c-0.01,0.36-0.32,0.64-0.67,0.62c-0.02,0-0.04,0-0.06,0c-0.53,0-0.39-0.42-0.55-0.64s-0.15-0.59,0.19-0.84
		c0.66-0.57,1.49-0.92,2.36-1c-1.39-0.82-0.94-1.24-0.07-1.57C86.9,116.6,87.09,116.43,87.14,116.2z"/>
	<path class="st182" d="M88.26,89.14l-0.39,2c-1.12-0.45,0.27-1.09-0.4-1.62c-0.43,0.39-0.72,1.06-1.55,1
		c-0.12-0.52-0.32-1,0.57-0.88c0.56,0.08,0.48-0.39,0.16-0.5c-0.48-0.17-0.3-0.74-0.45-0.7c-0.48,0.14-1,0.27-1.13,0.9
		c0,0.28,0,0.63-0.32,0.77v-1.33c0.19-1.13,0.62-2.21,1.25-3.16c0.44-0.12,0.9-0.51,1.32,0.16c0.29,0.46,0,1-0.87,1.71
		c0.46,0,0.73-0.22,1-0.21c0.53,0,0.84,0.38,0.48,0.7C87.29,88.57,88,88.78,88.26,89.14z"/>
	<path class="st131" d="M85.52,120.13c0.21-0.93,0.6-1.08,1.33-0.56c0.31,0.18,0.69,0.18,1,0c0.34-0.11,0.62-0.42,1.06-0.23l-2.21,1
		C86.32,120.18,85.88,120.52,85.52,120.13z"/>
	<path class="st149" d="M99.14,113.94l-0.5,0.51c-0.21,0-0.47,0.21-0.65,0.14c-1.7-0.7-2.53,0.3-3.41,1.27
		c-0.18,0.18-0.39,0.33-0.62,0.44c-0.15,0.09-0.38,0.19-0.52,0s0-0.39,0.26-0.46s1-0.2,0.18-0.74c0.24-0.38,0.45-1.09,0.72-1.08
		c1.43,0.07,1.15-1.13,1.5-1.84c-0.26-0.23-0.34-0.47-0.15-0.73c0.3-0.22,0.7-0.22,1,0c0.52,0.13,1.07,0.1,1.57-0.09
		c0.38-0.15,0.82,0.02,1,0.39c0.25,0.36,0,0.56-0.24,0.72C98.77,112.86,99.21,113.46,99.14,113.94z"/>
	<path class="st183" d="M96,111.43l0.15,0.73l-1.5,1C94.62,112.19,95.25,111.78,96,111.43z"/>
	<path class="st129" d="M71,127.71c-0.39-0.05-0.75-0.24-1-0.55c-0.29-0.3,0-0.53,0.32-0.67s0.59-0.16,0.79,0.23
		C71.28,127.04,71.24,127.43,71,127.71z"/>
	<path class="st129" d="M69.14,127.51c-0.14,0.57,0.46,1.07,0.1,1.56c-0.1,0.14-0.13,0.39-0.38,0.26s-0.26-0.3-0.22-0.37
		C68.85,128.51,68,127.69,69.14,127.51z"/>
	<path class="st134" d="M53.65,129.75c0-0.55,0.45-0.71,0.71-1c-0.35,1.2-0.28,1.27,1.12,1.32c0.24,0.03,0.47,0.09,0.69,0.17
		c-0.63,0.59-0.6,1.11,0.19,1.6c0.19,0.12,0.45,0.29,0.25,0.54s-0.36,0.16-0.62,0.13c-1-0.11-1.29-1-1.73-1.65
		C53.75,130.61,53.34,130.34,53.65,129.75z"/>
	<path class="st166" d="M53.65,129.75c-0.07,0.48,0.36,0.73,0.61,1.07c-0.61,0.51-1.13-0.35-1.71-0.3
		C52.45,129.67,53.33,130.07,53.65,129.75z"/>
	<path class="st129" d="M67.73,136.15c-0.46-0.45-0.48-0.73,0-1.14c0.83-0.67,1.83-1.08,2.7-1.7c0.29,0.75,0.19,1.59-0.27,2.25
		c-0.58-0.32-1.17-0.44-1.36,0.25S68.06,136,67.73,136.15z"/>
	<path class="st129" d="M42.41,112c-0.08,0.46-0.15,0.93-0.25,1.48C41.47,112.67,41.58,112.21,42.41,112z"/>
	<path class="st184" d="M99.14,113.94c-0.6-0.85-0.87-1.6,0.43-1.89c-0.83-1.09-1.83,0.47-2.58-0.58c1.24-0.19,1.42-1.28,1.83-2.17
		c0.53-0.27,0.53-0.27,1.19,0.15c-0.57-0.52-0.86-1,0-1.3c0.56-0.2,1.12-0.38,1.7-0.52c0.09-0.56-1.14-0.85-0.4-1.48
		c-0.65,0.22-0.46,0.84-0.58,1.3c-0.07,0.3-0.2,0.57-0.58,0.54s-0.62-0.17-0.58-0.59c-0.28-1,0.52-1.48,0.79-2.22
		c0.27-1.3,1.29-0.69,2.18-0.53c-1.34-0.66-1.34-0.66-1-1.87c0.75-1.63,1.92-2,3.61-1.07c1,0.52,0.92,1.39,0.88,2.23
		c-0.73,0.29-1,0.76-0.42,1.52c-0.94,0.2-0.6,1.11-0.83,1.7c-1,0.35-1.15,1.51-2.06,2c-0.4,0.19,0.35,0.28,0.28,0.58
		c-0.12,0.61-0.65,0.77-1.11,1c-0.42-0.74,0.3-1.47-0.24-2.24c-0.79,0.63,0,1.73-0.63,2.43c-0.24,0.26,0.6,0.08,0.75,0.34
		C101.32,112.6,100.19,113.23,99.14,113.94z"/>
	<path class="st183" d="M99.55,107.4c0.63,0.69,0.92,0.58,0.93-0.27c0-0.38-0.23-0.9,0.39-1c0.37-0.06,0.69-0.76,1-0.24
		s-0.71,0.16-0.66,0.66c1.23,1.11,1.23,1.11-0.35,1.58l-0.86,0.23c-0.21,0-0.38,0.13-0.37,0.34c0,0.5,0.31,0.11,0.48,0.16
		c0.33,0.09,0.21,0.37,0.29,0.57s0.06,0.4-0.22,0.36s-0.72,0.17-0.78-0.24c-0.1-0.74-0.42-0.2-0.63-0.24
		C99.15,108.71,99.08,107.93,99.55,107.4z"/>
	<path class="st183" d="M101.54,102.78c0.2,0.16,0.31,0.29,0.17,0.56c-0.26,0.49-0.22,0.48,0.4,0.57s0.49,0.87,0.94,1.25
		c-1-0.31-2-1.06-2.71,0C100.45,104.25,100.87,103.41,101.54,102.78z"/>
	<path class="st185" d="M105.61,105.46c-0.17-0.53-0.67-0.62-1.28-0.84c0.65-0.28,1-0.78,1.7-0.68
		C106.2,104.56,105.71,104.94,105.61,105.46z"/>
	<path class="st129" d="M48.8,98c-1.16-0.28-1.18-1.07-1.09-1.92C48.48,96.51,48.56,97.27,48.8,98z"/>
	<path class="st134" d="M66.42,141.05c0.49,0.22,0.51,0.74,1,0.84s0.34,0.4,0.31,0.66s-0.4,0.22-0.63,0.27
		c-0.22,0.08-0.47-0.03-0.55-0.25c-0.02-0.05-0.03-0.1-0.03-0.15C66.43,142,66.18,141.54,66.42,141.05z"/>
	<path class="st184" d="M88.26,89.14c-0.62,0.15-0.84-0.34-1-0.75c-0.34-0.71,0.63-0.28,0.67-0.8c-0.43-0.09-0.88,0.01-1.22,0.29
		c-0.29,0.23-0.53,0-0.69-0.25s0.06-0.38,0.24-0.49c0.06-0.04,0.13-0.07,0.2-0.09c0.5-0.18,0.87-0.51,0.73-1.07
		c-0.2-0.77-0.83,0-1.18-0.36c0.31-0.55,0.55-1.13,0.72-1.74c0.22-1.13,1.74-1.52,2.91-0.93c0.39,0.17,0.61,0.58,0.53,1
		c0,1.67,0.13,3.35-1.35,4.42c-0.07,0.05-0.05,0.21-0.07,0.32L88.26,89.14z"/>
	<path class="st186" d="M52.58,54.47c-0.33-0.91,0.42-1.85,1.91-1c0.21,0.27,0.38,0.56,0.5,0.88c0.08,0.59-0.34,1.13-0.93,1.21
		c-0.08,0.01-0.16,0.01-0.23,0.01C53.3,55.53,52.6,55.53,52.58,54.47z"/>
	<path class="st187" d="M99.39,39.13l0.81,0.33c0.57,0.6,1.38,0.91,2.2,0.87c0.65,0,1.3,0,1.63,0.74c0.37,1.13,0.48,2.14-1,2.63
		c-0.28,0.09-0.2,0.58-0.37,0.86c-0.17,0.29-0.48,0.47-0.82,0.46c-1.78-0.13-3.55,0.37-5,1.41c-4.95,1.54-10.34,0.43-14.29-2.92
		l-0.29-0.27c-2.1-1.66-2.09-2.21,0.08-3.92c0.69-1.37,2.17-1.45,3.34-2c3.32-0.7,6.58-0.75,9.7,0.83
		C96.92,37.85,98,39.16,99.39,39.13z"/>
	<path class="st188" d="M108.07,47.44l-1.6-1.18c-0.33-0.74-0.19-1.6,0.34-2.2c0.96-1.12,1.58-2.48,1.8-3.94
		c0.64-0.47,1.35-0.84,2.09-1.12c0.55-0.31,1.24-0.14,1.59,0.38c0.4,0.54-0.29,0.76-0.42,1.15c-0.64,1.84-1.6,3.66-0.65,5.69l0,0
		C110.71,48.12,109.38,47.75,108.07,47.44z"/>
	<path class="st189" d="M108.84,40.32c0.73,2.59-2.31,3.67-2.37,5.94c-0.9,0.11-1.09-0.8-1.67-1.16c-0.02-0.25-0.02-0.51,0-0.76
		c0.15-1.19-0.06-2.42,0.5-3.55c0.17-0.33,0.65-0.45,0.64-0.91l1-0.35c0.73-0.31,1.58,0.03,1.89,0.76
		C108.83,40.3,108.84,40.31,108.84,40.32z"/>
	<path class="st190" d="M108.84,40.32l-1.92-0.79c1.38-0.59,2.82-1.03,4.29-1.3c0.9-0.18,1.77-0.41,2.27,0.48s-0.12,1.71-0.74,2.26
		c-1.67,1.47-1.75,3.32-1.52,5.29c-0.06,0-0.16,0-0.19,0c-0.93-1.22-0.24-5.7,1.06-6.58C110.71,38.53,110,40.78,108.84,40.32z"/>
	<path class="st191" d="M82.72,43.1c4.21,3.52,9,4.19,14.24,3.08c0.36-0.13,0.47,0,0.43,0.38c-5.73,1.94-10.82,0.69-15.42-3.07
		C82,42.83,82.26,42.83,82.72,43.1z"/>
	<path class="st192" d="M95.8,38.37c-1.55,0.3-2.65-1-4.13-1.12c-2.03-0.09-4.07,0.03-6.07,0.37c-0.41,0.17-0.79,0.28-0.85-0.37
		c3.76-1.11,7.46-1.27,11,0.68C95.88,38.04,95.9,38.23,95.8,38.37z"/>
	<path class="st193" d="M97.39,46.56L97,46.18c1.45-1.82,3.73-1.18,5.56-1.88c0.69-0.68,1.81-0.68,2.49,0.01
		c0.08,0.08,0.15,0.17,0.21,0.26l-0.42,0.53C102.27,45.29,99.68,45.16,97.39,46.56z"/>
	<path class="st194" d="M82.72,43.1c-0.3,0-0.61,0-0.75,0.39c-0.23-0.1-0.45-0.23-0.65-0.39c-2.42-2.52-2.37-2.81,0.75-4
		c0.29-0.06,0.58,0.11,0.67,0.39C80.69,41.38,80.69,41.38,82.72,43.1z"/>
	<path class="st195" d="M105.94,39.88c0.65,0.59,0,0.67-0.34,0.87c-0.57,0.39-1.09,1-1.87,0.35c-1.07-0.28-2.15-0.54-3.21-0.85
		c-0.36-0.1-0.8-0.29-0.32-0.79C102.09,39.84,104,40.42,105.94,39.88z"/>
	<path class="st196" d="M108.07,47.44c1.09-0.28,2.39,0,3.15-1.16c1,0.79,0.66,1.36-0.34,1.74
		C109.92,48.46,108.78,48.22,108.07,47.44z"/>
	<path class="st197" d="M95.8,38.37v-0.44c0.42-0.52,1.18-0.6,1.7-0.18c0.07,0.05,0.13,0.11,0.18,0.18
		c0.55,0.43,1.13,0.83,1.74,1.19C98,39.83,97,38.54,95.8,38.37z"/>
	<path class="st198" d="M82.74,39.54l-0.67-0.39c0.51-1.05,1.52-1.76,2.68-1.9l0.85,0.37C84.88,38.61,83.26,38.25,82.74,39.54z"/>
	<path class="st199" d="M103.73,41.1l1.87-0.35c-0.13,1.27-0.25,2.55-0.38,3.82c-0.87-0.29-1.79-0.38-2.7-0.27
		c0.06-0.37-0.31-1.06,0-1.06C104.42,43.28,103.6,42,103.73,41.1z"/>
	<path class="st192" d="M85.51,40c-0.21-0.57,0.26-1.17,1.21-0.63c0.13,0.17,0.23,0.37,0.31,0.57c0.05,0.37-0.21,0.72-0.58,0.77
		c-0.05,0.01-0.1,0.01-0.15,0C86,40.64,85.51,40.63,85.51,40z"/>
</g>
</svg>
