<?xml version="1.0" encoding="utf-8"?>
<!-- Generator: Adobe Illustrator 26.0.2, SVG Export Plug-In . SVG Version: 6.00 Build 0)  -->
<svg version="1.1" id="レイヤー_1" xmlns="http://www.w3.org/2000/svg" xmlns:xlink="http://www.w3.org/1999/xlink" x="0px"
	 y="0px" viewBox="0 0 101.41 125.81" style="enable-background:new 0 0 101.41 125.81;" xml:space="preserve">
<style type="text/css">
	.st0{fill-rule:evenodd;clip-rule:evenodd;fill:#EA8018;}
	.st1{fill-rule:evenodd;clip-rule:evenodd;fill:#F4F3C9;}
	.st2{fill-rule:evenodd;clip-rule:evenodd;fill:#F0B45F;}
	.st3{fill-rule:evenodd;clip-rule:evenodd;fill:#9C3224;}
	.st4{fill-rule:evenodd;clip-rule:evenodd;fill:#F5F5D8;}
	.st5{fill-rule:evenodd;clip-rule:evenodd;fill:#881D22;}
	.st6{fill-rule:evenodd;clip-rule:evenodd;fill:#B23F21;}
	.st7{fill-rule:evenodd;clip-rule:evenodd;fill:#F3EDB4;}
	.st8{fill-rule:evenodd;clip-rule:evenodd;fill:#ED8F17;}
	.st9{fill-rule:evenodd;clip-rule:evenodd;fill:#EFE4A9;}
	.st10{fill-rule:evenodd;clip-rule:evenodd;fill:#E0D19F;}
	.st11{fill-rule:evenodd;clip-rule:evenodd;fill:#8C1D22;}
	.st12{fill-rule:evenodd;clip-rule:evenodd;fill:#B34121;}
	.st13{fill-rule:evenodd;clip-rule:evenodd;fill:#EFA932;}
	.st14{fill-rule:evenodd;clip-rule:evenodd;fill:#9E3724;}
	.st15{fill-rule:evenodd;clip-rule:evenodd;fill:#B62221;}
	.st16{fill-rule:evenodd;clip-rule:evenodd;fill:#ED953A;}
	.st17{fill-rule:evenodd;clip-rule:evenodd;fill:#A01F24;}
	.st18{fill-rule:evenodd;clip-rule:evenodd;fill:#EE9B18;}
	.st19{fill-rule:evenodd;clip-rule:evenodd;fill:#F2EDBD;}
	.st20{fill-rule:evenodd;clip-rule:evenodd;fill:#8B1F22;}
	.st21{fill-rule:evenodd;clip-rule:evenodd;fill:#7D191E;}
	.st22{fill-rule:evenodd;clip-rule:evenodd;fill:#9E3424;}
	.st23{fill-rule:evenodd;clip-rule:evenodd;fill:#B25320;}
	.st24{fill-rule:evenodd;clip-rule:evenodd;fill:#B56721;}
	.st25{fill-rule:evenodd;clip-rule:evenodd;fill:#CA6713;}
	.st26{fill-rule:evenodd;clip-rule:evenodd;fill:#AC5921;}
	.st27{fill-rule:evenodd;clip-rule:evenodd;fill:#CB5516;}
	.st28{fill-rule:evenodd;clip-rule:evenodd;fill:#602A16;}
	.st29{fill-rule:evenodd;clip-rule:evenodd;fill:#9D2224;}
	.st30{fill-rule:evenodd;clip-rule:evenodd;fill:#EC8D15;}
	.st31{fill-rule:evenodd;clip-rule:evenodd;fill:#A74F23;}
	.st32{fill-rule:evenodd;clip-rule:evenodd;fill:#B93D1F;}
	.st33{fill-rule:evenodd;clip-rule:evenodd;fill:#B43921;}
	.st34{fill-rule:evenodd;clip-rule:evenodd;fill:#E66413;}
	.st35{fill-rule:evenodd;clip-rule:evenodd;fill:#E76B17;}
	.st36{fill-rule:evenodd;clip-rule:evenodd;fill:#BD4E1C;}
	.st37{fill-rule:evenodd;clip-rule:evenodd;fill:#E45C0F;}
	.st38{fill-rule:evenodd;clip-rule:evenodd;fill:#CA2B1A;}
	.st39{fill-rule:evenodd;clip-rule:evenodd;fill:#A81F24;}
	.st40{fill-rule:evenodd;clip-rule:evenodd;fill:#D43915;}
	.st41{fill-rule:evenodd;clip-rule:evenodd;fill:#A62424;}
	.st42{fill-rule:evenodd;clip-rule:evenodd;fill:#C84F18;}
	.st43{fill-rule:evenodd;clip-rule:evenodd;fill:#F5F4D3;}
	.st44{fill-rule:evenodd;clip-rule:evenodd;fill:#C84A18;}
	.st45{fill-rule:evenodd;clip-rule:evenodd;fill:#B63520;}
	.st46{fill-rule:evenodd;clip-rule:evenodd;fill:#EEA437;}
	.st47{fill-rule:evenodd;clip-rule:evenodd;fill:#C67E37;}
	.st48{fill-rule:evenodd;clip-rule:evenodd;fill:#D3924C;}
	.st49{fill-rule:evenodd;clip-rule:evenodd;fill:#9F2F24;}
	.st50{fill-rule:evenodd;clip-rule:evenodd;fill:#F2CF94;}
	.st51{fill-rule:evenodd;clip-rule:evenodd;fill:#EA8118;}
	.st52{fill-rule:evenodd;clip-rule:evenodd;fill:#E07B14;}
	.st53{fill-rule:evenodd;clip-rule:evenodd;fill:#D4760E;}
	.st54{fill-rule:evenodd;clip-rule:evenodd;fill:#CA6C15;}
	.st55{fill-rule:evenodd;clip-rule:evenodd;fill:#AF4222;}
	.st56{fill-rule:evenodd;clip-rule:evenodd;fill:#BB5A1C;}
	.st57{fill-rule:evenodd;clip-rule:evenodd;fill:#ED8F15;}
	.st58{fill-rule:evenodd;clip-rule:evenodd;fill:#D8610E;}
	.st59{fill-rule:evenodd;clip-rule:evenodd;fill:#AE6520;}
	.st60{fill-rule:evenodd;clip-rule:evenodd;fill:#A43A23;}
	.st61{fill-rule:evenodd;clip-rule:evenodd;fill:#B94D1E;}
	.st62{fill-rule:evenodd;clip-rule:evenodd;fill:#B03B22;}
	.st63{fill-rule:evenodd;clip-rule:evenodd;fill:#DA500E;}
	.st64{fill-rule:evenodd;clip-rule:evenodd;fill:#E66916;}
	.st65{fill-rule:evenodd;clip-rule:evenodd;fill:#EF9E16;}
	.st66{fill-rule:evenodd;clip-rule:evenodd;fill:#DA580E;}
	.st67{fill-rule:evenodd;clip-rule:evenodd;fill:#F5F4D1;}
	.st68{fill-rule:evenodd;clip-rule:evenodd;fill:#A13524;}
	.st69{fill-rule:evenodd;clip-rule:evenodd;fill:#CA8A53;}
	.st70{fill-rule:evenodd;clip-rule:evenodd;fill:#B47D25;}
	.st71{fill-rule:evenodd;clip-rule:evenodd;fill:#D3851E;}
	.st72{fill-rule:evenodd;clip-rule:evenodd;fill:#EB962C;}
	.st73{fill-rule:evenodd;clip-rule:evenodd;fill:#B8751A;}
	.st74{fill-rule:evenodd;clip-rule:evenodd;fill:#801B20;}
	.st75{fill-rule:evenodd;clip-rule:evenodd;fill:#EB8517;}
	.st76{fill-rule:evenodd;clip-rule:evenodd;fill:#D04416;}
	.st77{fill-rule:evenodd;clip-rule:evenodd;fill:#C87517;}
	.st78{fill-rule:evenodd;clip-rule:evenodd;fill:#9C2724;}
	.st79{fill-rule:evenodd;clip-rule:evenodd;fill:#C9381A;}
	.st80{fill-rule:evenodd;clip-rule:evenodd;fill:#E97A18;}
	.st81{fill-rule:evenodd;clip-rule:evenodd;fill:#E3630E;}
	.st82{fill-rule:evenodd;clip-rule:evenodd;fill:#B83320;}
	.st83{fill-rule:evenodd;clip-rule:evenodd;fill:#D14615;}
	.st84{fill-rule:evenodd;clip-rule:evenodd;fill:#E76D16;}
	.st85{fill-rule:evenodd;clip-rule:evenodd;fill:#941F24;}
	.st86{fill-rule:evenodd;clip-rule:evenodd;fill:#B82520;}
	.st87{fill-rule:evenodd;clip-rule:evenodd;fill:#B15420;}
	.st88{fill-rule:evenodd;clip-rule:evenodd;fill:#7CC2D2;}
	.st89{fill-rule:evenodd;clip-rule:evenodd;fill:#80B2BC;}
	.st90{fill-rule:evenodd;clip-rule:evenodd;fill:#C0FFF3;}
	.st91{fill-rule:evenodd;clip-rule:evenodd;fill:#E76948;}
	.st92{fill-rule:evenodd;clip-rule:evenodd;fill:#E65A30;}
	.st93{fill-rule:evenodd;clip-rule:evenodd;fill:#E27B48;}
	.st94{fill-rule:evenodd;clip-rule:evenodd;fill:#D26832;}
	.st95{fill-rule:evenodd;clip-rule:evenodd;fill:#DF8F5A;}
	.st96{fill-rule:evenodd;clip-rule:evenodd;fill:#E76733;}
	.st97{fill-rule:evenodd;clip-rule:evenodd;fill:#CA885B;}
	.st98{fill-rule:evenodd;clip-rule:evenodd;fill:#E65D24;}
	.st99{fill-rule:evenodd;clip-rule:evenodd;fill:#CE8557;}
	.st100{fill-rule:evenodd;clip-rule:evenodd;fill:#CE7D47;}
	.st101{fill-rule:evenodd;clip-rule:evenodd;fill:#EC8856;}
	.st102{fill-rule:evenodd;clip-rule:evenodd;fill:#F0A56B;}
	.st103{fill-rule:evenodd;clip-rule:evenodd;fill:#ED8D50;}
	.st104{fill-rule:evenodd;clip-rule:evenodd;fill:#AA1F33;}
	.st105{fill-rule:evenodd;clip-rule:evenodd;fill:#EFA534;}
	.st106{fill-rule:evenodd;clip-rule:evenodd;fill:#EB844E;}
	.st107{fill-rule:evenodd;clip-rule:evenodd;fill:#C16980;}
	.st108{fill-rule:evenodd;clip-rule:evenodd;fill:#EC863A;}
	.st109{fill-rule:evenodd;clip-rule:evenodd;fill:#B7576B;}
	.st110{fill-rule:evenodd;clip-rule:evenodd;fill:#E56B39;}
	.st111{fill-rule:evenodd;clip-rule:evenodd;fill:#CC804C;}
	.st112{fill-rule:evenodd;clip-rule:evenodd;fill:#C6863B;}
	.st113{fill-rule:evenodd;clip-rule:evenodd;fill:#B46F3B;}
	.st114{fill-rule:evenodd;clip-rule:evenodd;fill:#C2801E;}
	.st115{fill-rule:evenodd;clip-rule:evenodd;fill:#D39639;}
	.st116{fill-rule:evenodd;clip-rule:evenodd;fill:#C67A78;}
	.st117{fill-rule:evenodd;clip-rule:evenodd;fill:#C98E29;}
	.st118{fill-rule:evenodd;clip-rule:evenodd;fill:#E0A669;}
	.st119{fill-rule:evenodd;clip-rule:evenodd;fill:#EA8165;}
	.st120{fill-rule:evenodd;clip-rule:evenodd;fill:#E87462;}
	.st121{fill-rule:evenodd;clip-rule:evenodd;fill:#E66880;}
</style>
<g id="文字">
	<path class="st0" d="M30.12,83.64c-2.33-0.27-4.61-0.82-6.81-1.64c-1.78-0.63-3.55-1.31-5.32-2c-0.19-0.1-0.37-0.23-0.52-0.38
		c-0.23-0.3-0.41-0.71-0.22-1c1-1.5-0.24-1.63-1.16-2c-0.26-0.05-0.5-0.19-0.67-0.39c-0.07-1,0.77-1,1.44-1.25
		c1.5-0.4,1.85-1.8,2.5-2.93c0.7-2.08,1.8-4,1.83-6.31c0-0.71,0.24-1.41,0.22-2.11c-0.16,0.21-0.17,0.67-0.57,0.57
		s-0.33-0.51-0.28-0.8c0.17-1,0.17-2,0.29-2.92c0.86-2,0.19-3.9-0.65-5.75c-0.02-0.13-0.02-0.27,0-0.4
		c0.22-0.59,0.86-0.56,1.28-0.84c0.63-0.41,1.4-0.55,2.13-0.39c1.11,0.28,2.21,0.88,3.37,0.14c0.04-0.02,0.09-0.02,0.13,0
		c1.38,0.72,2.78,0.31,4.18,0.09c0.56,1.01,1.31,1.92,2.19,2.67c0.59,0.42,0.54,1.29,0.59,2c0,0.31-0.15,0.63,0.29,0.77
		c0.33,0.16,0.73,0.02,0.89-0.32c0,0,0-0.01,0.01-0.01c0.17-0.3,0.38-0.93,0.8-0.16c0.12,1.38-0.68,2.5-1,3.75
		c-0.3,0.68-1,0.9-1.51,1.39c-1.61,0.46-2,2.18-3.2,3.11c-0.51,0.4-0.73,0.89-1.25,0s-3.85-1.63-4.81-1.16
		c-0.21,0.1-0.38,0.28-0.54,0c-0.04-0.08-0.04-0.17,0-0.25c-0.09,0-0.1,0-0.08,0.16s0.19,0.43,0.32,0.31
		c1.2-1.09,1.66,0.33,2.43,0.69c2.48,1.2,3,3.31,2.65,5.8c-0.12,0.25-0.29,0.48-0.5,0.66c-1.92,1.4-1.86,0.74-3.94-1
		c-0.28-0.29-0.51-0.63-0.66-1c-0.25-0.47-0.46-1-0.82-1.56c-0.35,0.56-0.31,1.28,0.1,1.8c0.06,0.12,0.1,0.24,0.14,0.36
		c0.09,0.6-0.36,0.65-0.76,0.69c-1,0.08-1.28,0.66-1,1.56c0.18,0.59,0,1.27,0.51,1.77c0.15,0.1,0.3,0.21,0.44,0.32
		c0.55,0.7,1.07,1.43,2.1,1.38c1.07,0.45,2.3,0.32,3.26-0.33c0.66-0.47,1.29-0.98,1.89-1.53c1.2-1.06,1.68-0.92,2.06,0.61
		c0.07,0.26,0.11,0.52,0.16,0.79c0,1.58,0.22,3.15-0.82,4.62c-0.74,1.05,0.62,0.79,1,1.16C32.19,83.74,31.11,83.62,30.12,83.64z"/>
	<path class="st1" d="M30.12,83.64c0.93-0.03,1.75-0.59,2.1-1.45c0-0.07,0-0.14,0-0.21c0.05-0.84,0.2-1.67,0.44-2.48
		c0.32-1.25,0.37-2.55,0.12-3.82c-0.07-0.19-0.07-0.41,0-0.6c0.51-1.12,1-2.27,1.57-3.37c0.32-0.62,0.68-0.95,1.36-0.7
		c0.84,0.19,1.69,0.33,2.54,0.42c1,0.24,1.81-0.57,2.78-0.66c0.32,0,0.62-0.54,0.5-1c-0.36-0.76-0.17-1.66,0.47-2.21
		c0.2-0.16,0.1-0.42,0-0.64c-0.16-0.72-0.01-1.48,0.42-2.08c-0.46,0.52-0.79,1.11-1.4,1c-0.91-0.2,0-1.18-0.54-1.58
		c-0.32,0-0.38,0.22-0.31,0.47c0.12,0.41,0.26,0.85-0.36,0.93c-0.5,0.1-0.98-0.23-1.08-0.73c0-0.02-0.01-0.04-0.01-0.06
		c-0.1-0.49-0.07-1,0.08-1.48c0.36-0.9-0.07-1.92-0.97-2.28c-0.01,0-0.02-0.01-0.03-0.01c-0.08-0.35-0.08-0.72,0-1.07
		c0.06-0.59,0.26-1.17,0.58-1.67c0.75-0.35,0.81,0.17,0.88,0.69c0.21,1.54,0.22,1.54,1.8,1.54c1.26,0,2,0.66,2.35,2.11
		c0.22-0.27,0.08-0.93,0.76-0.7c0.26,0.64,0.26,1.36,0,2c-0.73,3.57-1.46,7.14-2.32,10.68c-0.1,1.07-0.39,2.12-0.85,3.1
		c-0.77,1.52-1.77,2.9-2.46,4.45c-0.34,0.39-0.76,0.69-1.13,1c-0.31,0.19-0.66,0.26-1,0.44c-0.3,0.17-0.65,0.26-1,0.26L30.12,83.64z
		"/>
	<path class="st1" d="M17,75c-0.37,0.6-1.26,0.51-1.55,1.2c0.04,0.12,0.04,0.26,0,0.38c-0.19,0.4-0.21,0.9-0.69,1.12
		c-1.84-1.29-3.64-2.61-4.52-4.81c-0.16-0.39-0.58-0.67-0.88-1c0.08-0.27,0.19-0.56,0.52-0.51c0.63,0.1,0.88-0.34,1.18-0.73
		c0.34-0.38,0.63-0.81,0.86-1.27c1.12-1.75,1.95-3.67,2.46-5.69c0.05-0.12,0.12-0.24,0.2-0.34c0.67-0.54,1.11-1.31,1.25-2.16
		c0.09-0.37,0.22-0.82,0.62-0.77c1.22,0.18,2.55-0.62,3.67,0.41c0.66,1.88,0,3.75-0.09,5.61c-0.04,1.17-0.24,2.33-0.58,3.45
		C18.81,71.61,18.45,73.57,17,75z"/>
	<path class="st2" d="M11.24,70.81c-0.21,1.09-1.21,0.74-1.86,1c-1.48-1.51-2-3.76-3.71-5.07c-0.09-0.07,0-0.33-0.07-0.49
		c0.83-0.5,1.24-1,0.47-2s-0.28-2.19,1.15-2.68c0.57-0.13,1.02-0.56,1.17-1.13c0.24-1,1.48-1.17,1.58-2.2
		c0.73-0.84,1.65-1.49,2.67-1.93c0.36,0.52,0.53,1.14,0.48,1.77c-0.05,0.53,0,1.06,0.13,1.57c0.16,0.66-0.17,0.89-0.78,0.85
		c-1.8-0.22-2.29,0.22-2,1.82c0.35,0.63,0.76,1.12,1.59,0.81c1.12,0.18,0.55,1,0.44,1.45c-0.5,1.68-1.26,3.28-2.25,4.73
		c-0.3,0.5-0.69,1,0.27,1.27C10.78,70.57,11.03,70.65,11.24,70.81z"/>
	<path class="st3" d="M59.29,62.72c1.8,0.05,3.58,0.31,5.31,0.79c0.44,0.27,1.05,0.44,0.89,1.14c-0.15,0.7-0.59,1.31-1.21,1.67
		c-0.32,0.12-0.66,0.2-1,0.23c-1.55,0.59-2.85,1.68-3.72,3.09c-0.41,0.67-1.12,1-1.52,1.81c-0.72,1.38-0.52,2.89-0.89,4.3
		c-0.25,0.37-0.14,1-0.7,1.13c-0.76-0.18-0.77-0.76-0.71-1.35c0.09-0.47,0.07-0.96-0.06-1.43c0.16-0.9,0.45-1.77,0.86-2.58
		c0.17-0.67,0.75-1.13,1-1.78c0.65-1.16,0.35-2.61,1.13-3.73c0.58-0.6,1.26-1.09,2-1.47c0.23,0-0.08-0.27,0-0.12
		c-1,0.08-2,0.09-1.84-1.44C58.93,62.82,59.1,62.73,59.29,62.72z"/>
	<path class="st4" d="M19.84,60.62c-0.11,0.18-0.3,0.57-0.42,0.39c-0.86-1.26-2,0.33-3-0.35c-0.21-0.15-0.16,0.49-0.27,0.73
		c-0.32,0.7-0.32,1.66-1.33,1.86c-0.09-0.09-0.15-0.2-0.18-0.33c0.44-2.26-0.06-4.6-1.38-6.48c0-0.06,0-0.12-0.08-0.17l1-0.64
		c0.68,0.11,1.34-0.24,2.05,0c0.71,0.24,0.81-0.39,1.07-0.79c0.52-0.79,1.06-0.9,1.64-0.07c0.38,0.55,0.68,1.15,0.88,1.79
		C20.16,57.92,20.61,59.27,19.84,60.62z"/>
	<path class="st5" d="M44.28,52.54c1.31-0.23,2.54-0.77,3.87-1c1.01-0.19,2.06,0.04,2.9,0.64c0.84,0.58,1.69,1.17,2.48,1.81
		c0.9,0.73,1.41,1.84,1.39,3c0.04,1.28,0.28,2.55,0.72,3.76c0.05,0.24-0.09,0.48-0.33,0.56c-1.2,0.84-1.2,0.84-1.6-0.28
		c-0.11-0.78-0.93-1.52,0.06-2.4c0.21-0.18,0-1.4-0.39-2c-0.81-1.33-1.59-2.72-3.17-3.34c-1.51-0.4-3-0.87-4.48,0.13
		c-0.34,0.19-0.61,0.49-1,0.66c-1.13,0.06-1-0.63-0.77-1.33C44.04,52.65,44.15,52.58,44.28,52.54z"/>
	<path class="st6" d="M75.29,66.07c0.8,0.03,1.46,0.62,1.58,1.41c0.57,1.6,0.73,3.32,0.46,5c-0.42,1.61-0.75,3.24-1,4.89
		c-0.07,0.66-0.61,1.09-1,1.58c-1.21,1.57-2.23,3.39-4.41,3.86c-1.56,0.17-1.64,0.12-1.4-0.91c1.33-0.62,2.57-1.43,3.67-2.41
		c1.35-1.1,2.23-2.68,2.43-4.41c-0.01-1.21,0.18-2.42,0.58-3.57c0.46-1.11,0.29-2.37-0.43-3.33C75.4,67.55,74.64,67,75.29,66.07z"/>
	<path class="st7" d="M63.09,66.25c0.6-0.2,1.25-0.1,1.69-0.81s0.59-1.35-0.18-1.93c1.25,0.28,2.45,1.18,3.8,0.16
		c0.2-0.15,0.91,0.15,1.22,0.42c0.61,0.42,1.28,0.73,2,0.91c-0.12,0.5-0.63,0.47-0.94,0.72c-0.63,0.14-1.2,0.45-1.68,0.88
		c-0.69,0.58-1.43,1.1-2.22,1.54c-0.36,0.22-0.72,0.6-1.21,0.24c-0.16-0.95,0.77-1.07,1.3-1.64c-0.77,0.01-1.54,0.14-2.27,0.38
		c-0.65,0.31-1.41,0.25-2-0.15C62.52,66.58,62.77,66.39,63.09,66.25z"/>
	<path class="st8" d="M75.29,66.07c-0.21,0.8,0.42,1.34,0.63,2c0.55,1.06,0.58,2.32,0.08,3.4c-0.09,0.15-0.2,0.3-0.31,0.44
		c-0.25,0.35-0.13,1-0.69,1.06s-0.66-0.63-0.93-1c-0.46-0.62-0.56-1.45-0.25-2.16c0.2-0.53,0.19-1.3-0.51-1.26
		c-1.69,0.09-1.59-1-1.66-2.11c-0.01-0.18-0.01-0.36,0-0.54c0.01-0.27,0.16-0.52,0.4-0.66C73.09,65.78,74.33,65.38,75.29,66.07z"/>
	<path class="st9" d="M56.63,76.77c-0.09-0.36-0.19-0.72,0.23-1c0.06-0.11,0.18-0.18,0.31-0.19c0.92,0.23,0.89,1,1,1.72
		c0.29,2.91,0.32,3,3.19,3.69c0.45,0.11,0.86,0.48,1.26-0.33c0.28-0.56,1.15-0.12,1.75,0c0.13,0.01,0.26,0.03,0.38,0.06
		c0.39,0.1,0.74,0.31,1,0.61c0.5,0.78,1.33,1.29,2.25,1.38c0.26,0.04,0.51,0.11,0.76,0.21c0.19,0.08,0.35,0.22,0.43,0.41
		c-1.65,0.04-3.29-0.15-4.89-0.57c-2.41-0.47-4.75-1.33-7.13-2c-0.07-0.53-0.2-1.04-0.39-1.54C56.7,78.38,56.23,77.59,56.63,76.77z"
		/>
	<path class="st10" d="M44.28,52.54c-0.04,0.07-0.07,0.14-0.1,0.21c-0.1,0.15-0.17,0.32-0.36,0.39c-0.23,0.05-0.47,0.05-0.7,0
		c-0.61,0.19-0.17,0.52-0.11,0.8s0.57,0.82,0,1.25c-0.63,0-0.83-0.64-1.33-0.84c-1.19-0.47-2.09-0.08-2.7,1.22
		c-0.29,0.16-0.51,0-0.73-0.17c-0.19-0.2-0.3-0.45-0.33-0.72c-0.13-0.56-0.33-1.09-0.61-1.59c-0.17-0.47-0.58-0.94-0.13-1.47
		c1.08,0.17,2.13,0.59,3.26,0.06c0.89-0.43,1.74,0.17,2.56,0.44C43.44,52.24,43.85,52.43,44.28,52.54z"/>
	<path class="st11" d="M57,79.34c0.39,0.44,0.73,0.88,0.11,1.39c-2.12-0.9-4.57-0.43-6.2,1.2c-0.29,0.34-0.57,0.8-1.08,0.91
		c-0.13,0.08-0.29,0.04-0.37-0.09c0,0-0.01-0.01-0.01-0.01c-0.26-0.8,0.18-1.41,0.51-2.06s1-0.9,1.1-1.64s0.62-0.53,1.08-0.45
		c0.68,0.4,1.53,0.37,2.17-0.08c0.08,0,0.16-0.09,0.24-0.12c0.66-0.16,1.19-1,1.78-0.79S56.43,78.86,57,79.34z"/>
	<path class="st12" d="M37.2,51.6c-0.09,1.16,1.19,1.86,1,3c-0.15,0.79-0.22,1.6-0.2,2.4c0,0.56-0.2,1.1-0.56,1.52
		c-0.17,0.21-0.36,0.4-0.57,0.57c-0.52,0.61-0.86,1.34-1,2.13c-0.22,0.63-0.25,1.46-1.23,1.48c-0.09-0.19-0.03-0.42,0.14-0.55
		c0.2-1.45,1-2.72,1.16-4.19c0.22-1.19,0.34-2.4,0.34-3.61c0.58-1-0.38-1.63-0.61-2.44c-0.15-0.52-0.69-1-0.06-1.54L37.2,51.6z"/>
	<path class="st13" d="M55.18,61.21c0.21-0.05,0.39-0.2,0.46-0.41c-0.09,0.75,0.45,1.43,1.2,1.52c0.05,0.01,0.11,0.01,0.16,0.01
		l2.34,0.39l-0.3,0.2c-0.46,0.34-0.22,0.83-0.24,1.25c-0.09,1.71-0.34,2-2.08,2.29c-0.22,0.04-0.44,0.11-0.64,0.21
		c-0.6,0.29-1.33,0.09-1.69-0.47c-0.27-0.62-0.21-1.33,0.16-1.9c0.24-0.51,1-0.44,1.59-0.16c-0.05-0.08-0.12-0.15-0.16-0.23
		c-0.19-0.45-0.44-0.93,0.28-1.17c-0.35-0.33-0.94-0.23-1.2-0.69C54.87,61.78,54.92,61.41,55.18,61.21z"/>
	<path class="st14" d="M49.5,82.78l0.32,0.06c-1.66,2.34-4.1,3-6.75,2.92c-2.67,0.06-5.32-0.55-7.7-1.76
		c0.24-0.27,0.47-0.52,0.88-0.43c0.78-0.18,1.33,1.06,2.2,0.36c0.2-0.16,0.5-0.16,0.7,0c0.21,0.24,0.4,0.53,0.72,0.58
		c2.8,0.47,5.53,0.53,7.91-1.38C48.25,82.71,48.91,82.58,49.5,82.78z"/>
	<path class="st15" d="M23.51,53.42c-0.69-0.18-1.43-0.03-2,0.41c-0.44,0.14-0.82,0.06-1-0.4s0.42-0.56,0.67-0.82
		c0.58,0,0.74-0.54,1-0.94c0.09,0.07,0.16,0.18,0.2,0.29c0.1,0.22,0.05,0.62,0.41,0.58s0.31-0.55,0.41-0.86
		c0.02-0.12,0.07-0.23,0.13-0.34c0.21-0.24,0.42-0.51,0.79-0.24c0.4,0.61,1,0.49,1.57,0.39c1.14-0.2,2.29-0.23,3.43-0.45
		c0.27-0.02,0.55,0,0.82,0.05c0.36,0.04,0.7,0.17,1,0.36c0.39,0.31,0.81,0.69,0.57,1.22s-0.7,0.14-1.07,0.1
		c-0.69-0.07-1.36-0.48-2.08-0.13C26.78,53.08,25.12,53.11,23.51,53.42z"/>
	<path class="st16" d="M10,58.31c0.82,0.45,0.09,0.75-0.16,0.94C9.26,59.7,8.82,60.31,8.58,61c-0.19,0.48-0.4,1.31-1.42,1
		c-0.23-0.08-1.17,0.47-1.09,1.12c0.06,0.41-0.5,1.36,0.78,1.28c0.45,0-0.29,0.6-0.14,1c0.53,1.32-0.52,0.91-1.11,1
		c-0.29-0.85-0.12-1.77-0.47-2.63c-0.24-0.59,0.26-1.07,0.65-1.52C7.05,60.73,8.59,59.61,10,58.31z"/>
	<path class="st17" d="M35.55,50.39c-0.21,1.13,0.64,1.89,1.06,2.77c0.24,0.52,0.36,0.77-0.17,1.05c-0.56-0.19-0.7-0.82-1.15-1.12
		s-1.15-0.27-1.43-0.91c-0.11-0.27-0.31-0.47-0.13-0.84c0.61-1.37,0.3-1.92-1.21-2.25c-0.34-0.08-0.78,0-0.82-0.51
		s0.27-0.63,0.67-0.68c0.68,0.17,1.33,0.46,1.92,0.84C34.82,49.21,35.61,49.47,35.55,50.39z"/>
	<path class="st18" d="M14.78,77.66c0.17-0.43,0.08-1,0.53-1.3c0.34,0.75,0.61,0.46,0.87-0.06c0.79,0,1.2,0.53,1.7,1
		c0.34,0.33,0.27,0.64,0.08,0.75c-0.69,0.38-0.33,1-0.49,1.52C16.42,79.19,15.49,78.53,14.78,77.66z"/>
	<path class="st19" d="M18.77,54.94c-0.44-0.56-0.85-0.81-1.18,0.09s-1,1.42-2,0.8c-0.44-0.27-1,0.58-1.4-0.2
		c0.43-0.67,1.14-1.13,1.93-1.23c0.86-0.18,1.68-0.5,2.44-0.94C19,53.9,19.25,54.37,18.77,54.94z"/>
	<path class="st20" d="M34.29,48.74c-0.76-0.09-1.5-0.32-2.18-0.68c-0.45,0.13-0.91,0.2-1.38,0.2c-0.54,0.1-1.1,0.1-1.64,0
		c-0.23-0.12-0.53-0.21-0.46-0.53c0.11-0.52,0.6-0.35,0.94-0.43C31.29,46.84,33.12,47.4,34.29,48.74z"/>
	<path class="st21" d="M24,51l-0.62,0.44c-0.11-0.23-0.22-0.46-0.54-0.42c0.51-1.11,1.39-2,2.49-2.52c0.53-0.37,1-0.62,1.22,0.33
		c-0.12,0.32-0.35,0.58-0.65,0.74c-0.61,0.41-1.17,0.89-1.67,1.43H24z"/>
	<path class="st22" d="M18.77,54.94c-0.07-0.5-0.13-1-0.2-1.48c0.18-0.29,0.39-0.51,0.78-0.39c1-0.06,0.89,0.7,0.92,1.34l0,0
		c0.14,0.68,0.04,1.39-0.28,2c-0.17,0.15-0.34,0.26-0.55,0.06C19.22,56,19,55.46,18.77,54.94z"/>
	<path class="st23" d="M26.38,49c0.05-1-0.63-0.41-1-0.47c1.08-1.47,2.65-1.36,4.2-1.27c-0.84,0.37-0.84,0.37-0.43,0.74
		c0,0.23-0.21,0.31-0.41,0.36C27.8,48,27.25,49.11,26.38,49z"/>
	<path class="st24" d="M72.1,65.22c-0.06,0.31-0.12,0.63-0.17,1c-0.21,0.68-0.59,0.55-1,0.22c-0.19-0.24-0.52-0.44-0.3-0.83
		s0.69-0.34,1-0.56L72.1,65.22z"/>
	<path class="st25" d="M69.12,83.33l-0.51-0.19c-0.3-1.13-0.09-1.35,1-1.09c-0.09,0.64-0.09,0.64,1.24,0.8
		C70.31,83.13,69.72,83.29,69.12,83.33z"/>
	<path class="st26" d="M12.84,58.09c-0.07-0.57-0.14-1.14-0.2-1.71l0.56-0.11l0,0c0.37,0.34,0.59,0.82,0.59,1.32
		c0.01,0.22-0.02,0.43-0.11,0.63c-0.11,0.23-0.21,0.52-0.52,0.49S13,58.27,12.84,58.09z"/>
	<path class="st27" d="M20.27,54.41c-0.39-0.4-0.21-1.18-0.92-1.34l1.85-0.46c-0.58,0.57-0.79,1,0.29,1.22
		C21.15,54.17,20.52,53.88,20.27,54.41z"/>
	<path class="st28" d="M22.88,51.06c0.32,0,0.62-0.05,0.54,0.42l0,0c-0.25,0.3-0.17,0.76-0.51,1c-0.58,0.44-0.63,0-0.71-0.4v-0.43
		C22.34,51.37,22.58,51.16,22.88,51.06z"/>
	<path class="st29" d="M31.73,76.5c-0.44-2-0.42-2-2.07-0.81c-0.54,0.39-0.92,1-1.63,1.17c-0.08,0.03-0.17,0.06-0.25,0.09
		c-0.82,0.32-1.93,0.58-2.38-0.09S24.25,75,25.31,74c0.05-0.19,0.16-0.36,0.3-0.5c0.91-0.4,2.13,0.07,2.79-1l0.38-0.46
		c0.25-0.33,0.34-0.75,0.22-1.15c-0.1-0.63-0.24-1.26,0.78-0.92c0.18,0,0.17-0.08,0.24-0.19c0.68-1,1.08-1,1.67,0
		c0.38,0.47,0.41,1.13,0.07,1.63c-0.42,0.13-0.85,0.25-0.66,0.86c0.25,0.83,0.89,0.22,1.32,0.37c0.13,0.07,0.24,0.18,0.31,0.31
		c0.34,1.16-0.23,2.19-0.5,3.25c-0.03,0.21-0.23,0.35-0.43,0.32C31.77,76.51,31.75,76.51,31.73,76.5z"/>
	<path class="st30" d="M35.58,52.92l0.86,1.29c0.35,1.29,0.14,2.66-0.56,3.79c-0.38,0.83-0.8,1.59-1.93,1.11
		c-0.32-0.14-0.6-0.37-0.46-0.7c0.6-1.39-0.06-2.24-1.15-3c-0.62-0.48-0.99-1.22-1-2c-0.04-0.08-0.04-0.16,0-0.24
		c0-0.09,0-0.12,0.06-0.12c0.26-0.23,0.47-0.73,0.82-0.58C33.28,52.93,34.46,52.67,35.58,52.92z"/>
	<path class="st31" d="M19.44,56.49l0.47-0.22c1.26,0.74,1.2,2,1.35,3.25c0,0.3-0.2,0.6-0.05,0.92c-0.02,1.2-0.19,2.4-0.49,3.56
		c0.62-0.35,0.37-0.94,0.75-1.41c0.39,1,0.39,2.11,0,3.11c-0.48,0.35-0.77,0.9-0.78,1.49c-0.21,1.75-0.6,3.47-1.14,5.14
		c-0.42,1.16-1.13,2.19-2.07,3c-0.5,0.47-0.42-0.06-0.45-0.35c2.03-4.18,3.05-8.78,3-13.43c-0.03-0.31-0.1-0.62-0.2-0.91
		C19.99,59.24,19.86,57.83,19.44,56.49z"/>
	<path class="st32" d="M32.44,72.81l-0.19-0.08c-0.42-0.25-0.65-0.73-0.58-1.22c0.18-0.47,0.12-1.01-0.16-1.43
		c-0.28-0.32-0.36-1-0.9-0.86c-0.71,0.16,0,0.66-0.1,1s-0.05,0.5-0.3,0.55c-0.52,0.11-0.38-0.69-0.89-0.69
		c-0.42,0.58,0.27,1.48-0.54,1.94c-0.12-3.32,0.2-4-2.71-5.57c-0.05-0.41-0.68-0.78-0.21-1.18s0.83,0.09,1.24,0.24
		c0.95,0.35,1.82,0.89,2.57,1.58c0.83,0.79,2.11,0.92,2.8,1.92c0.69,1,0.09,2.35,0.24,3.52C32.66,72.66,32.57,72.76,32.44,72.81z"/>
	<path class="st33" d="M25.54,74.1c0,0.28,0.32,0.64-0.2,0.76c-0.21,0-0.58,0.23-0.45,0.31c0.65,0.36,1.11,0.68,0.52,1.44
		c0.6,0.38,1.34,0.46,2,0.2c0.17-0.08,0.43,0,0.65,0c-0.95,0.79-2.29,0.94-3.39,0.37c-0.83-0.36-1.58-0.89-2.2-1.55l-0.5-0.12
		c0.09-0.68-0.02-1.38-0.32-2c-0.2-0.37-0.66-1.06,0-1.42c0.59-0.41,1.39-0.32,1.87,0.22C24.08,73.02,24.76,73.63,25.54,74.1z"/>
	<path class="st34" d="M32.41,69.2c-0.83-0.75-2.09-0.82-2.79-1.86c-0.48-0.53-1.06-0.95-1.72-1.23c-0.71-0.22-1.38-0.53-2-0.94
		c0.06,0.57,0.1,0.92,0.14,1.28c-0.61-0.46-1-1.63-2.09-0.73c-0.1,0.08-0.41,0.14-0.45-0.09s-0.23-0.81,0.25-1.07
		c0.39,0,0,0.82,0.27,0.54c0.79-0.86,1.62-0.32,2.36-0.2c0.93,0.14,1.64,1,2.73,0.87c0.55-0.06,0.35,0.64,0.34,1.38
		c0.8-1.5,2.15-2.07,2.57-3.44c0.15-0.51,0.9-0.23,1.34-0.43c0.21,0.3,0.21,0.7,0,1c-0.07,0.11-0.15,0.21-0.24,0.3
		c-0.44,0.22-0.86,0.49-1.23,0.82c-0.41,0.37-0.59,0.93-0.47,1.47c0.19,0.72,0.85,0,1.11,0.4C32.54,67.88,32.93,68.58,32.41,69.2z"
		/>
	<path class="st35" d="M31.37,53.15l-0.06,0.26c-1.34,0.45-2.67,1.15-4,0.09c-0.06,0-0.21-0.06-0.25,0
		c-1.2,1.16-2.34,0.11-3.51-0.07c1.13-0.82,2.48-0.62,3.74-0.84c0.31-0.06,0.62-0.08,0.93-0.12C29.3,52.41,30.45,52.24,31.37,53.15z
		"/>
	<path class="st36" d="M32.44,72.81c0.03-0.07,0.06-0.15,0.08-0.23c0.91,0.57,1,1.22,0.36,2.52l0.1,0.37
		c-0.44,1.37-0.58,2.81-0.41,4.24c0.06,0.84-0.05,1.68-0.33,2.48l0,0c-0.51,0.25-1.1,0.68-1.48,0c-0.27-0.52-0.24-1,0.34-1.58
		c1.05-1.09,0.61-2.67,0.65-4.06C32.43,75.43,32.67,74.1,32.44,72.81z"/>
	<path class="st37" d="M25.54,74.1c-0.67,0.09-1.34-0.24-1.67-0.83c-0.19-0.3-0.41-0.58-0.66-0.84c-0.41-0.39-1.04-0.42-1.49-0.08
		c-0.45,0.3-0.11,0.89,0.17,1.16c0.56,0.44,0.67,1.25,0.23,1.81c-0.05,0.07-0.11,0.13-0.18,0.19c-0.86-1-0.59-2.31-0.78-3.47
		c-0.05-0.29,0.94-0.48,1.49-0.5s0.59,0,0.49-0.49c1.25,0.3,2.23,1.26,2.55,2.51L25.54,74.1z"/>
	<path class="st38" d="M23.66,66.8c1.43,0.89,2.66,2.07,3.6,3.47c0.17,0.2,0.4,0.46,0.19,0.71s-0.46,0-0.7-0.12
		C25.19,70,24.07,68.53,23.66,66.8z"/>
	<path class="st39" d="M19.54,72.34c0-0.08-0.14-0.18-0.11-0.23c0.83-2,0.46-4.14,1.17-6.13c0.21-0.6,0.45-0.56,0.86-0.27
		c0.15,0.42,0.15,0.89,0,1.31C20.81,68.79,20.51,70.69,19.54,72.34z"/>
	<path class="st40" d="M25.69,73.61c-0.7-0.98-1.56-1.83-2.55-2.51l0,0c-0.19-0.32-0.09-0.73,0.22-0.92c0.01,0,0.01-0.01,0.02-0.01
		c0.36-0.21,0.58,0,0.75,0.29c0.49,1,1.54,1.55,2.27,2.37s1.33-0.21,2-0.35C27.88,73.78,26.69,73.46,25.69,73.61z"/>
	<path class="st27" d="M21.21,60.44c-0.12-1.47-0.56-2.89-1.3-4.17c-0.2-0.68,0.2-1.24,0.36-1.85
		C21.5,56.28,22.11,58.24,21.21,60.44z"/>
	<path class="st37" d="M24.13,70.46c-0.8-0.51-0.85,0.13-1,0.64c-0.42-0.35-0.65-0.87-0.65-1.41c-0.09-0.45,0.15-0.91,0.57-1.1
		c0.64-0.22,0.51,0.46,0.61,0.77S24.2,70,24.13,70.46z"/>
	<path class="st41" d="M16.18,76.3c0,0.09,0,0.2,0,0.26c-0.25,0.38,0.52,1.17-0.24,1.18s-0.66-0.79-0.59-1.38
		c0.02-0.09,0.08-0.16,0.16-0.2L16.18,76.3z"/>
	<path class="st37" d="M22.44,75.68c0.95,0.2,1.42,1.09,2.2,1.55C23.63,77.32,22.7,76.66,22.44,75.68z"/>
	<path class="st42" d="M33.16,64.34c0.08-0.35,0.15-0.71,0.23-1.06c0.17-0.71,0.92-0.7,1.33-1.11c0,0.18-0.06,0.36-0.1,0.54
		C34.38,63.47,34.07,64.18,33.16,64.34z"/>
	<path class="st43" d="M32.88,75.1c0-0.86,0.31-1.76-0.36-2.52c-0.4-1.11,0.24-2.26-0.11-3.38c0.33-0.6-0.75-1.37,0.22-1.9
		c0.08-0.34,0.24-0.65,0.45-0.93c0.31-0.43,0.7-0.8,1.15-1.09c0.2-0.14,0.41-0.27,0.63-0.38c0.81-0.76,1.51-1.64,2.07-2.6
		c0.29-0.43,0.42-1,1.08-1.09c1.34,0,1.62,0.32,1.19,1.56c-0.22,0.63,0,1.27-0.19,1.92s0.43,0.75,1.19,0.7
		c-1.6-1.36-0.08-1.39,0.61-1.83c0.34,0.62,0.34,1.38,0,2c1.17,0,1.09-1.26,1.91-1.67c0.15,0.53,0.05,1.11-0.27,1.56
		c-0.21,0.36-0.46,0.81-0.25,1.14c0.45,0.71,0.71,1.13-0.38,1.53c-0.61,0.23-0.09,1,0,1.46c0.05,0.35,0.56,0.93-0.1,0.95
		s-0.37,1.89-1.48,0.7c-0.07-0.06-0.32-0.09-0.36,0c-1.26,1.55-2.72,0.24-4,0.11c-1-0.09-1,0.19-1.39,0.77
		C33.8,73.06,34,74.41,32.88,75.1z"/>
	<path class="st44" d="M40.6,77.86c0.37-1.02,0.67-2.06,0.89-3.12c0.32-0.3,0.06-1,0.67-1.07c0.1,0.2,0.07,0.3,0.34,0
		c0.74-0.67,0.89-1.78,0.36-2.62c-0.1-0.93,0.19-1.87,0.81-2.57c0.4,0.61,0.4,0.61,0,1.52c-0.07,0.17,0.31,0,0.13,0
		c0.37-1.37,0.37-2.81,0.63-4.21c0.27-1.08,0.61-2.15,1-3.19c0.06-0.27,0.2-0.66,0.6-0.56s0.37,0.45,0.32,0.77
		c-0.06,0.49-0.19,1,0.44,1.25c0.63,0.25,1.09-0.05,1.49-0.5c0.9,0.62,0.43,1.57,0.53,2.38c-0.02,0.39-0.07,0.78-0.14,1.16
		c-0.62,4.6-2.34,8.97-5,12.77c-0.23,0.32-0.55,0.6-0.55,1c-0.46,0.57-1.29,0.65-1.86,0.19c-0.15-0.12-0.27-0.27-0.35-0.44
		C40.36,79.81,40.25,78.78,40.6,77.86z"/>
	<path class="st43" d="M38.86,55.59c0.41-0.51-0.27-1.47,0.47-1.68c0.84-0.16,1.7-0.15,2.53,0.05c0.7,0.12,0.61,1,1.26,1.12
		s0.83,0.62,1.17,1c0.47,1.62,0.61,3.32,0.4,5c-0.11,0.37-0.27,0.68-0.7,0.74c-0.13,0.47-0.26,0.94-0.39,1.44
		c-1-0.33-0.26-1.53-1.19-1.95c-0.46-0.31-1.02-0.45-1.57-0.4c-1.53,0.29-2-0.19-1.86-1.77c0-0.37,0.13-0.72-0.33-0.88
		C38.26,57.39,38.34,56.38,38.86,55.59z"/>
	<path class="st45" d="M40.6,77.86c-0.07,0.99,0.15,1.97,0.65,2.83c0.22,0.51,0.81,0.74,1.31,0.52c0.18-0.08,0.33-0.2,0.44-0.36
		c0.38-0.61,0.96-1.06,1.65-1.28c0.94,0,1.87,0.1,2.81,0.1c1.56,0,2.47-1.1,3.62-1.8c0.62,0.1,1.52-0.13,1.24,1
		c-0.49-0.06-1.1-0.35-1,0.61c0.08,0.75-0.77,0.74-1.08,1.19c-0.4,0.19-0.85,0.26-1.29,0.21c-1.11,0.07-2.33-0.22-2.94,1.15
		c-0.1,0.21-0.48,0.16-0.75,0.14c-0.86-0.05-1.73,0.13-2.5,0.52c-1.21,0.35-2.52,0.33-3.66,1c-0.33-0.5-0.46-1.1-0.34-1.69
		c0.19-0.26-0.14-0.23,0-0.16s0,0,0,0.12s-0.17,0.56-0.54,0.29C38.8,80.68,39.6,79.2,40.6,77.86z"/>
	<path class="st46" d="M44,61.85c0.12-0.25,0.25-0.5,0.38-0.76c0.58,0.14,0.49,0.66,0.6,1.07c0.09,0.73,0.05,1.48-0.14,2.19
		c-0.14,0.51-0.23,1-0.34,1.54c-0.16,0.87,0.14,1.85-0.59,2.59c-0.44,0.95-0.73,1.96-0.85,3c0.22,0.85-0.1,1.74-0.8,2.27
		c-0.25,0.34-0.5,0.69-0.76,1c0.62-2.88,1.27-5.77,1.85-8.67C43.62,64.67,44.21,63.32,44,61.85z"/>
	<path class="st47" d="M38.86,55.59l-0.21,2.7l-0.45,1.82c-0.23,0.26-0.33,0.73-0.85,0.55c-1.15-0.62-0.6-1.4-0.2-2.17
		c0.31-0.47,0.52-1,0.6-1.55c0-0.64,0-1.3,0.57-1.75C38.6,55.18,38.71,55.42,38.86,55.59z"/>
	<path class="st48" d="M32.24,82.19c0.39-1.53-0.24-3-0.09-4.58c0.08-0.84,0.08-1.61,0.83-2.14C33.7,77.82,33,80,32.24,82.19z"/>
	<path class="st49" d="M38.21,82.29c0.34-0.05,0.41-0.32,0.44-0.59c0.05-0.45,0.35-0.54,0.64-0.35s-0.08,0.39-0.19,0.56
		c-0.34,0.58,0.37,1.17,0,1.74c0.04,0.07,0.02,0.16-0.05,0.21c-0.02,0.01-0.05,0.02-0.07,0.02l-0.57,0.18
		c-0.62,0-1.36,0.13-1.18-0.92C37.35,82.68,37.74,82.34,38.21,82.29z"/>
	<path class="st50" d="M37.59,60.58l0.61-0.47c-0.06,0.37-0.13,0.73-0.19,1.1l-2.08,3.09c-0.27,0.4-0.46,0.9-1.06,0.94
		c-0.14-0.4-0.04-0.84,0.25-1.14C36,63,36.68,61.7,37.59,60.58z"/>
	<path class="st51" d="M37.21,83.14c0,0.75,0.81,0.59,1.18,0.92c0.07,0.28,0.11,0.53-0.33,0.46c-0.69-0.14-1.33-0.49-1.81-1
		C36.46,83.14,36.82,83.12,37.21,83.14z"/>
	<path class="st52" d="M10.66,70.93c-0.44,0.22-0.89,0.35-1.12-0.24c-0.2-0.51-0.08-1.1,0.31-1.49c1.23-1.58,2.09-3.41,2.51-5.37
		c0.13-0.58-0.23-0.29-0.4-0.35c-0.12-0.68,0.32-0.68,0.78-0.64c0.89,0.27,0.6,1.18,0.95,1.74c0.46-0.23,0.3-0.85,0.7-1.12
		c0.09-0.08,0.23-0.08,0.32,0c-0.4,2.24-1.29,4.36-2.61,6.22c-0.14-0.32-0.21-0.36-0.34-0.21C11.31,69.89,10.94,70.38,10.66,70.93z"
		/>
	<path class="st53" d="M14.71,63.5H14.5c-0.51,0.47-0.59,1.18-0.94,1.74c-0.94-0.46,0.1-1.57-0.67-2.09
		c-0.16-0.2-0.27-0.43-0.34-0.67c0.08-0.75-0.39-1.44-0.2-2.2c0.22-0.09,0.83,0.45,0.59-0.35c-0.24-0.57-0.27-1.21-0.1-1.8
		c0.09,0.13,0.19,0.26,0.3,0.37c0.43-0.25,0.25-0.74,0.42-1.1c1.2,0.73,1.06,2,1.28,3.15c0.16,0.83-0.09,1.67,0,2.5
		c-0.05,0.07-0.05,0.17,0,0.24L14.71,63.5z"/>
	<path class="st54" d="M10.66,70.93c-0.07-0.51-0.33-1.08,0.49-1.28s0.37-1,0.66-1.49c0.81,0.46,0.2,1.07,0.29,1.56
		c-0.08,0.53-0.52,0.77-0.86,1.09L10.66,70.93z"/>
	<path class="st55" d="M12.35,60.24c0.45,0.67,0.61,1.49,0.44,2.28c-0.63,0.19-0.63,0.19-1.23-0.82c0-0.18-0.24,0-0.07,0
		c0.12,1-0.56,1-1.24,0.87c-0.47-0.61-0.4-1.47,0.16-2C11,59.86,11.65,60,12.35,60.24z"/>
	<path class="st56" d="M10.25,62.55c0.34-0.09,0.66-0.23,0.95-0.42c0.51-0.47-0.59-0.17-0.29-0.51s0.61-0.2,0.92,0.06s0.27,1,1,0.84
		c0,0.2,0.06,0.39,0.1,0.59c-0.4-0.08-0.77-0.14-0.93,0.37C10.71,64.43,10.78,62.94,10.25,62.55z"/>
	<path class="st57" d="M48.4,67c0.1-1.13,0.08-2.27-0.08-3.4c-0.29-0.13-0.48-0.42-0.48-0.74C47.62,60.61,47,58.41,46,56.38
		c-0.16-1,0.2-1.27,1.11-0.74c0.6,0.45,1.28,0.79,2,1c0.85,0.41,1.6,1.01,2.19,1.75c0.09,0.09,0.17,0.18,0.24,0.28l0.24,0.28
		c0.87,0.56,1.66,1.25,2.32,2.05c0,2.15,0.82-0.46,1.08,0.19c-0.18,0.53,0,0.82,0.54,1c0.53,0.2,1.05,0.43,1.55,0.7
		c-0.49,0.57-0.85,0.07-1.23,0.13c-0.21,0.58,0.28,0.87,0.52,1.27c0.14,0.19,0.11,0.45-0.06,0.61c-0.21,0.18-0.51,0.12-0.55-0.11
		c-0.23-1.15-1-0.11-1.39-0.35c-0.28,0.68,0.68,0.46,0.69,0.92c-0.15,0.46-0.74-0.05-0.9,0.53c0.59,0.22,1,1.23,1.82,0.22
		c0.34-0.4,0.83,0.15,1.42-0.15c1.29-0.66,0.5-1.83,1-2.63c0.12-0.21,0-0.55,0.42-0.42c-0.25,1.81,1.32,1,2.2,1.52l-2.35,1.68
		c-1.65,1.55-2.96,3.42-3.86,5.5c-0.4,0.32-0.77,0.94-1.35,0.35s-0.4-1.34-0.15-2c0.13-0.37,0.62-0.53,0.55-1.05
		c-0.13,0.54-0.65,0.85-0.72,1.42c-0.11,0.82-0.45,1.59-1.3,1.69c-1.21,0.14-2.6,0.55-3.37-1.14c-0.3,0.35-0.29,0.89-0.93,1.09
		C47.59,70.2,48.5,68.66,48.4,67z"/>
	<path class="st58" d="M54.71,71.39c0.7-1.82,1.8-3.46,3.22-4.8c0.22-0.28,0.55-0.46,0.91-0.47c-0.66,1.14-0.3,2.57-1.05,3.68
		c-1.08,0.18-1.22,0.87-0.94,1.77c-0.35,0.85-0.71,1.7-1.06,2.54c0.15,1.7-0.4,3.39-1.51,4.68c-0.14,0.24-0.4,0.38-0.68,0.36
		c-0.41-2.01-0.34-4.1,0.19-6.08C54,72.39,54.58,72,54.71,71.39z"/>
	<path class="st59" d="M57.1,75.74c-0.08,0.01-0.16,0.03-0.24,0.07c0.16-1.72,0-3.56,1.18-5c1.44-1.81,2.71-3.81,5.05-4.56
		l-0.48,0.71c0.09,0.5-0.12,1.01-0.55,1.29c-1.7,1.25-2.97,3-3.65,5C58.2,74.18,57.75,75.04,57.1,75.74z"/>
	<path class="st60" d="M54.28,78.79c0.61-1.52,1.12-3.09,1.51-4.68c0.72,0.28,0.35,0.82,0.28,1.26s-0.27,1.18,0.56,1.4L57,79.34
		c-1-0.17-0.13-1.15-0.76-1.5C55.68,78.33,55.01,78.66,54.28,78.79z"/>
	<path class="st61" d="M56.85,71.57c-0.05-0.07-0.1-0.14-0.13-0.22C56,69.72,56,69.72,57.79,69.8
		C57.82,70.57,56.88,70.83,56.85,71.57z"/>
	<path class="st1" d="M14.84,63c-0.24-0.83-0.32-1.7-0.26-2.56c0.04-1.12-0.31-2.21-1-3.09c-0.13-0.36-0.25-0.72-0.37-1.09
		c1.27,0.13,1.24,1.41,1.44,2.1C15.07,59.84,15.67,61.44,14.84,63z"/>
	<path class="st62" d="M46.19,56.3c1.43,2.23,1.74,4.78,2.13,7.31c0,1.63-1.19,1-1.82,0.84C45.07,64.12,46.29,63,46,62
		c-0.45,1.46-0.84,2.7-1.22,3.93c-0.14,0.12-0.35,0.09-0.46-0.05c-0.01-0.02-0.03-0.03-0.04-0.05c0.12-0.54,0.23-1.08,0.34-1.63
		c0.28-0.88,0.41-1.8,0.38-2.73c0.05,0.26-0.08,0.52-0.31,0.64c-0.1-0.34-0.21-0.68-0.32-1c0.09-1.64-0.03-3.29-0.33-4.9
		c-0.28-0.74-0.5-1.5-0.64-2.28c0.01-0.38,0.18-0.74,0.46-1l0.32-0.17c0.22,0.42-0.48,1.29,0.62,1.29c0.46-0.09,0.76,0.22,1.08,0.45
		c0.64,0.45,0.32,0.78-0.15,1.12c-0.2,0.15-0.46-0.1-0.63,0.13c0.32,0.1,0.38,0.82,0.92,0.39C46.06,56.1,46.16,56.21,46.19,56.3z"/>
	<path class="st63" d="M46.19,56.3c-0.81-0.19,0,0.58-0.45,0.65c-0.36-0.43-1-0.87-1.09-1.37C44.5,54.21,46,56.43,46,55l-1.2-1
		c0.04-0.36,0.31-0.65,0.66-0.72c0.66,0.29,1.38,0.38,2.09,0.28c0.32-0.06,0.65,0.02,0.9,0.22c1.15,0.79,1.15,0.79,1.63-0.49
		c0.07-0.18,0.27-0.22,0.43-0.28c2.05,1.22,3.44,3.31,3.77,5.68c0,0.12,0,0.36-0.06,0.39c-1.27,0.56-0.14,1.27-0.12,1.9
		c-0.95-0.57-1.83-1.24-2.63-2c0.26-0.15,0.62-0.14,0.76-0.43c-0.28,0.23-0.59,0.47-1,0.12l0,0c0-0.59,0.29-1.14,0.77-1.47
		c-0.82-0.07-1.61-0.31-2.34-0.69c-0.37-0.24-0.34,0.28-0.53,0.41c-1,0.15-1.66-0.63-2.4-1.1C45.83,55.23,46.21,56,46.19,56.3z"/>
	<path class="st64" d="M50.51,53.05c0,0.07-0.16,0.16-0.14,0.22c0.36,1.73-1.08,1.33-2,1.72c0.47-1.39-0.62-1.23-1.14-1.07
		c-0.65,0.28-1.4,0.02-1.74-0.6C47.08,52,48.8,52.55,50.51,53.05z"/>
	<path class="st65" d="M69.66,82.05c-0.85-0.12-1.16,0.29-1,1.09l-0.83-0.1c-0.07-0.11-0.12-0.23-0.16-0.36
		c0.03-1.38-0.69-2.67-1.89-3.35c-1.66-1-2.4-4.43-1.6-6.42c0.77-1.87,2.11-3.46,3.82-4.55c0.86-0.4,1.62-1,2.2-1.75
		c0.16-0.29,0.48-0.46,0.81-0.44c0.15,0.25,0.47,0.32,0.71,0.18c0.07-0.04,0.13-0.1,0.18-0.18c-0.2,0.54,0.62,1,0.15,1.63
		c-0.17,0.25,0.52,0.45,0.94,0.41c0.88-0.07,1.78,0.81,1.33,1.43c-1,1.4,0.29,2.12,0.52,3.13c0.75-0.12-0.13-1.23,0.84-1.11
		c0.65,0.49,0.13,1.08,0.11,1.61c-0.21,2-0.8,3.94-1.73,5.73c-0.18,0.36-0.49,0.64-0.86,0.78C72.28,80.88,71.04,81.67,69.66,82.05z"
		/>
	<path class="st66" d="M73.2,79.75c0.6-0.55,1-1.29,1.12-2.1c0.55-2,1.66-3.83,1.39-6c0.36-1.16,0.43-2.38,0.21-3.57
		c0.99,0.99,1.2,2.51,0.53,3.73c-0.39,0.95-0.56,1.98-0.49,3c0.16,2-1.19,3.21-2,4.69C73.79,79.76,73.48,79.77,73.2,79.75z"/>
	<path class="st67" d="M57.1,75.74c0.68-2.58,1.92-4.97,3.64-7c0.59-0.62,1.5-0.91,1.87-1.77c1.38,0.24,2.59-0.51,3.91-0.65
		c0.39,0,0.76-0.16,0.9,0.28s-0.33,0.5-0.57,0.64c-0.56,0.3-1.18,0.52-1.23,1.29s-0.71,1.2-1.11,1.77
		c-0.54,0.67-1.05,1.36-1.51,2.08c-0.49,0.89-0.69,1.92-0.55,2.93c0.08,0.48,0.08,0.96,0,1.44c-0.16,0.36-0.48,0.75-0.06,1.1
		c0.88,0.73,1.12,1.94,2,2.64c0.06,0.11,0.06,0.25,0,0.36c-0.52,0.53-1-0.5-1.46,0c-1.63,1.76-3,0-4.34-0.41
		c-1.18-0.34-0.61-1.73-0.78-2.64C57.69,77,57.88,76.22,57.1,75.74z"/>
	<path class="st68" d="M62.83,72.18c0.54-1.52,1.89-2.42,2.79-3.66l3.22-2.17c0.52-0.33,1.21-0.21,1.59,0.27
		c0.38,0.77-0.4,0.78-0.72,1c-2.08,1.44-4.23,2.76-5.23,5.29c-0.71,1.8-0.27,4.81,1.25,6c0.76,0.46,1.4,1.1,1.86,1.86
		c0.38,0.62,0.47,1.37,0.26,2.07c-0.04,0-0.09,0-0.13,0c-0.5-0.17-1.16-0.22-0.85-1c-0.37,0.31-0.93,0.26-1.24-0.12
		c-0.04-0.05-0.08-0.11-0.11-0.17L64.68,81c-0.14-0.79-0.65-1.47-1.37-1.82c-0.06-0.12-0.11-0.24-0.15-0.37
		C62.42,76.68,62.3,74.38,62.83,72.18z"/>
	<path class="st69" d="M70.43,66.62l-1.59-0.27c0.44-0.51,1.09-0.8,1.77-0.79c0.14,0.2,0.28,0.41,0.43,0.61L70.43,66.62z"/>
	<path class="st70" d="M65.52,81.49c1.09-0.11,1.52,1,2.33,1.33l-0.07,0.22C66.8,82.99,65.93,82.39,65.52,81.49z"/>
	<path class="st71" d="M63.39,79c1.21,0.14,1.5,0.88,1.29,2l-0.27-0.09c0-0.07-0.03-0.14-0.07-0.2C64.08,80.06,63.05,79.91,63.39,79
		z"/>
	<path class="st72" d="M43.63,54.08c0.38,0.63,0.51,1.39,0.37,2.11l-0.92-1.11c-0.2-0.48-0.42-1-0.61-1.46s-0.22-1,0.57-0.83
		C43.28,53.2,43.48,53.63,43.63,54.08z"/>
	<path class="st73" d="M43.63,54.08c-0.25-0.41-0.9-0.63-0.55-1.29l0.78,0.13C43.78,53.31,43.7,53.69,43.63,54.08z"/>
	<path class="st74" d="M38.32,55.19l-0.57,1.75c-0.22-0.8-0.05-1.65,0.46-2.3C38.25,54.82,38.28,55,38.32,55.19z"/>
	<path class="st75" d="M54.71,71.39c-0.37,1.61-1.13,3.14-1.06,4.86c0,0.44-0.14,0.87,0.12,1.29c0.29,0.52,0.23,1.17-0.17,1.61
		c-0.45,0-0.94,0.3-1.28-0.24c-0.09-1-1-0.58-1.51-0.84c-2.09,0.53-4.18,1-6.22,1.71c-0.45,0.47-0.99,0.83-1.59,1.07
		c-0.15-0.06-0.65,0.1-0.38-0.21c3.32-4,4.8-8.69,5.78-13.63c0.41,1.06-0.26,2-0.35,3c-0.11,0.53-0.16,1.07-0.15,1.61
		c0.07-0.16,0.13-0.31,0.19-0.47c0.17-0.39,0-1.11,0.49-1.13c0.66,0,0.34,0.65,0.43,1s1.47,0.74,1.79,0.46s0.3-0.2,0.45-0.06
		c1.16,1,1.45-0.35,1.7-0.84c0.25-0.51,0.45-1.04,0.6-1.59c0.09-0.35,0-0.91,0.5-1c0.28,0,0.43,0.31,0.51,0.56
		c0.2,0.41,0.04,0.9-0.37,1.1c-0.02,0.01-0.05,0.02-0.07,0.03c-0.53,0.17-0.82,0.73-0.65,1.25c0.01,0.02,0.01,0.04,0.02,0.07
		c0,0.35,0.06,0.78,0.41,1S54.33,71.42,54.71,71.39z"/>
	<path class="st76" d="M45.27,81.89c0.17,0,0.49,0.09,0.51,0c0.95-2.37,2.9-1.07,4.45-1.22l-0.73,2.07
		c-0.44,0.33-1.09,0.09-1.49,0.53c-0.32,0.12-0.66,0.21-1,0.27C46.11,83.36,45.23,83.09,45.27,81.89z"/>
	<path class="st77" d="M37.59,60.58c-0.2,0.96-0.67,1.85-1.36,2.55c-0.53,0.65-0.98,1.36-1.36,2.11l-0.58,0.26
		c-0.25-0.39-0.25-0.9,0-1.29c1-1.65,1.43-3.57,2.45-5.21l0.4-0.51C37.06,59.24,36.6,60.06,37.59,60.58z"/>
	<path class="st78" d="M36.75,59c-0.57,1.74-1.24,3.44-2,5.1c-0.18,0.46-0.31,0.93-0.47,1.4l-1,1.06c-0.65,0.06-0.59-0.39-0.47-0.75
		s-0.16-1.08,0.35-1.47l0,0c0.49-0.54,1-1.08,1.46-1.63c1-0.9,0.9-2.34,1.53-3.43C36.33,59,36.36,58.69,36.75,59z"/>
	<path class="st51" d="M47.17,83.37c0.26-0.25,0.56-0.11,0.84-0.06c-1.53,1.74-3.66,1.65-5.68,1.82c-0.89-0.01-1.78-0.1-2.65-0.26
		c-0.63-0.06-0.86-0.39-0.72-1c0.06-0.07,0.1-0.15,0.12-0.23c0.75-0.47,1.34-1.29,2.45-0.93c0.32,0.1,0.76-0.17,1.14-0.27
		c0.19-0.14,0.44-0.14,0.63,0C44.37,83.77,45.85,83.19,47.17,83.37z"/>
	<path class="st79" d="M31.37,53.15c-1-0.67-2.17-0.28-3.19-0.69c0.38-0.82,1-0.26,1.5-0.21c0.56,0.08,1.11,0.19,1.65,0.33
		c-0.15-0.92-0.88-1-1.56-1.18c0-0.37,0.46-0.57,0.38-1c-0.26-0.85-0.02-1.78,0.62-2.4c0.46-0.3,0.89,0,1.34,0.06
		c-0.19,0.37-0.53,0.8,0.33,0.67c1.12-0.15,1.68,0.54,2.1,1.44c0.16,0.31,0.16,0.69,0,1c-0.49,0.88-0.42,1.06,0.66,1.38
		c0.15,0,0.27,0.21,0.4,0.33c-0.43-0.12-0.89-0.04-1.25,0.23c-0.36,0.31-0.89,0.28-1.22-0.06c-0.43-0.46-1.15-0.49-1.61-0.07
		C31.46,53.03,31.41,53.09,31.37,53.15z"/>
	<path class="st80" d="M30.77,48c0.15,0.16,0.82,0.33,0.43,0.42c-1.37,0.31-0.85,1.21-0.66,1.85c0.25,0.85-0.17,1-0.77,1.13
		L29,51.27c-0.53-0.08-1.07-0.08-1.6,0c-0.55,0-1-0.29-0.77-0.79c0.45-1,0.83-2.14,2.18-2.34l0.33-0.17L30.77,48z"/>
	<path class="st81" d="M28.81,48.18c-0.73,0.5-1.31,1.19-1.67,2c-0.11,0.25-0.57,0.4-0.21,0.76s0.57,0.19,0.87,0
		c0.48-0.27,0.91-0.32,1.2,0.27c-1.45,0.34-2.92,0.56-4.4,0.65c-0.74,0-0.65-0.41-0.56-0.88l0,0c0.52-0.56,1.08-1.09,1.68-1.58
		c0.14-0.23,0.37-0.4,0.63-0.46C27.09,48.45,27.7,47.59,28.81,48.18z"/>
	<path class="st21" d="M22.19,52.1c0.2,0,0.18,0.62,0.56,0.18c0.23-0.26,0.26-0.69,0.66-0.8c0.11,0.55,0.31,1.23-0.38,1.46
		C22.52,53.11,21.93,52.93,22.19,52.1z"/>
	<path class="st23" d="M25.75,49.47c-0.38,0.69-0.96,1.25-1.68,1.58C24.38,50.31,24.99,49.73,25.75,49.47z"/>
	<path class="st11" d="M31.67,71.51c0.43,0.29,0.42,0.8,0.58,1.22c-0.09,0.38-0.48,0.62-0.86,0.52C31.24,73.22,31.1,73.13,31,73
		c-0.47-0.55-0.47-1.36,0-1.91C31.36,70.71,31.4,71.43,31.67,71.51z"/>
	<path class="st42" d="M33.16,64.34c0.15,0.73-0.26,1.5,0.12,2.22c0,0.44-0.32,0.59-0.65,0.74c-0.48-0.44-0.88,1-1.38,0.06
		s0-1.93,0.79-2.6C32.39,64.56,32.77,64.42,33.16,64.34z"/>
	<path class="st82" d="M42.25,73.7c0.27-0.76,0.54-1.51,0.8-2.27c0.23,0,0.73,0,0.65,0.06c-0.77,0.6,0.52,2.13-1.07,2.34
		c-0.27,0-0.06,0.61-0.48,0.8C42.19,74.29,42.22,74,42.25,73.7z"/>
	<path class="st82" d="M44.25,65.85l0.5,0.1c-0.24,1.52-0.21,3.11-1.22,4.78c0.16-1,0.26-1.61,0.37-2.25
		C44.14,67.62,44.26,66.74,44.25,65.85z"/>
	<path class="st83" d="M44.59,79.78c1.86-1.17,4.02-1.76,6.22-1.71c-0.76,1.8-2.47,1.77-4,2C46.06,80.07,45.32,79.97,44.59,79.78z"
		/>
	<path class="st84" d="M47.17,83.37c-0.57,0.25-1.23,0.58-1.74,0.22s-0.87,1.06-1.45,0c-0.25-0.44-0.5-1.22-1.31-1.16
		c0.78-0.47,1.7-0.67,2.6-0.56C45.62,82.65,46.33,83.21,47.17,83.37z"/>
	<path class="st85" d="M44.69,62.11c0.1-0.28,0.19-0.56,0.35-1c0.34,1.06,0.17,2.22-0.45,3.15C44.62,63.52,44.66,62.82,44.69,62.11z
		"/>
	<path class="st56" d="M13.56,65.2c-0.47-0.89,0.47-1.22,0.72-1.82c0,0,0.09,0,0.13,0s0.06,0.06,0.09,0.09
		C14.16,64,14.65,65,13.56,65.2z"/>
	<path class="st86" d="M49.15,56.92c-0.11-0.3-0.5-0.59,0-0.92c0.22-0.17,0.53-0.14,0.7,0.08c0.01,0.01,0.01,0.01,0.02,0.02
		c0.44,0.54,1.14,0.78,1.82,0.63c0.36-0.07,0.71,0.17,0.78,0.53c0,0.01,0,0.03,0.01,0.04c0.12,0.43-0.35,0.25-0.48,0.38
		c-0.28,0.33-0.52,0.68-0.73,1.06L49.15,56.92z"/>
	<path class="st86" d="M51.25,58.74L53,58.09c-0.37,0.69-0.71,1.18-1.51,1C51.4,59,51.33,58.84,51.25,58.74z"/>
	<path class="st87" d="M62.83,72.18c-0.05,2.23,0.13,4.46,0.53,6.65c-0.74-0.39-1.19-1.17-1.16-2c-0.09-1.12-0.09-2.24,0-3.36
		C62.22,72.97,62.45,72.5,62.83,72.18z"/>
	<path class="st9" d="M62.2,76.79c0.39,0.68,0.78,1.36,1.16,2c-0.03,0.05-0.03,0.1,0,0.15c0,0.72,0.85,1,1,1.67
		c-1.38-0.6-1.54-2.22-2.6-3.11C61.3,77.17,62.07,77.07,62.2,76.79z"/>
	<path class="st88" d="M0.17,30.08c-0.5-2.09,0.16-4.28,1.74-5.74c1.24-1.2,3.02-1.67,4.7-1.25c2.44,0.74,3.34,2.25,4.2,4.58
		c0.65,1.67,0.17,3.57-1.2,4.73C8.39,33.58,6.66,34.06,5,33.69C1.9,33.35,1,32.54,0.17,30.08z"/>
	<path class="st89" d="M0.19,28.55c0.77,0.66,1.32,1.54,1.57,2.52c0.61,1.74,3.81,2.73,6.05,2c2.15-0.72,3.32-3.04,2.62-5.2
		c-0.63-2.52-3.06-3.2-4.62-4.78c3.59-0.2,7.53,4.78,4.83,9.14C9.65,33.81,7.85,34.68,6,34.48C2.65,34-0.09,32.68,0.19,28.55z"/>
	<path class="st90" d="M2.4,26.36c0,0,0.66-1.14,1.32-1.2s1.35-0.61,0.94-0.75c-0.61-0.11-1.24,0-1.77,0.31
		C2.33,25,1.55,27.52,2.4,26.36z"/>
	<path class="st90" d="M1.84,27.92c0,0.25,0,0.45-0.25,0.45c-0.25,0.04-0.49-0.14-0.52-0.39c-0.04-0.25,0.14-0.49,0.39-0.52
		c0.04-0.01,0.09-0.01,0.14,0C1.84,27.46,1.84,27.66,1.84,27.92z"/>
	<path class="st88" d="M8.78,9.48C8.11,6.7,8.99,3.77,11.09,1.82c1.39-1.44,3.42-2.15,6.28-1.67c3.26,1,4.46,3,5.6,6.12
		c0.88,2.23,0.23,4.77-1.6,6.31c-2,1.94-4,1.95-6.1,1.72C11.08,13.84,9.88,12.77,8.78,9.48z"/>
	<path class="st89" d="M8.81,7.44c1.03,0.88,1.76,2.05,2.09,3.36c0.81,2.32,5.09,3.65,8.08,2.62s4.26-3.87,3.49-6.95
		c-0.85-3.35-4.09-4.27-6.16-6.37c4.78-0.28,10.05,6.38,6.44,12.2c-1.33,2.12-3.75,3.28-6.23,3C12.09,14.69,8.42,13,8.81,7.44z"/>
	<path class="st90" d="M11.74,4.51c0,0,0.89-1.52,1.78-1.6s1.8-0.81,1.24-1c-0.81-0.15-1.64,0-2.35,0.42
		C11.66,2.74,10.61,6.06,11.74,4.51z"/>
	<path class="st90" d="M11,6.59c0,0.34,0,0.61-0.34,0.61c-0.34,0-0.61-0.27-0.61-0.61c0-0.34,0.27-0.61,0.61-0.61
		C11,6,11,6.25,11,6.59z"/>
	<path class="st91" d="M65.18,32.67c-3.7-1.32-7.23-6-7.4-9.75c-0.05-1.12,0.06-1.92,1.58-1.5c0.64,0.08,1.28,0,1.88-0.23
		C66.71,19.73,72,20.63,77,22.88c2.21,0.88,4.12,2.39,5.47,4.35c0.46,0.8,1.34,1.26,2.26,1.17c1.22-0.14,2.45-0.03,3.63,0.3
		c0.17,0.65-0.37,0.69-0.74,0.77c-0.58,0.13-0.66,0.45-0.51,0.93c0.13,0.54-0.07,1.11-0.52,1.44c-0.93-0.34-1.97-0.09-2.65,0.63
		c-3.72,0.91-7.55,1.12-11.32,1.7c-2.44,0.38-4.65-0.65-6.68-1.93C65.17,31.76,65.37,32.42,65.18,32.67z"/>
	<path class="st92" d="M65.18,32.67c0-0.64-1.43-0.68-0.81-1.42c0.47-0.56,1.17,0.12,1.67,0.45c2.66,1.89,6.02,2.51,9.17,1.68
		c1.53-0.37,3.1-1.14,4.84-0.48c1.4,0.53,2.61-1,4.06-0.72l0.07,0.25c-0.29,0.47-0.88,0.53-1.23,0.93
		c-2.54-0.42-4.62,1.32-7.15,1.39C72,34.86,68.42,34.92,65.18,32.67z"/>
	<path class="st93" d="M90.63,28.68c2.14-0.79,4.21-1.82,6.55-1.93c0.39-0.19,0.85-0.19,1.24,0c0.33,0.63,0,1-0.55,1.22
		c-1.21,0.3-2.34,0.89-3.58,1.12c-0.85,0.39-1.78,0.59-2.72,0.58C91.12,29.5,90.77,29.14,90.63,28.68z"/>
	<path class="st94" d="M91.87,40.27c-0.28-0.34-0.74-0.65-0.79-1c-0.31-2.3-1.78-3.77-3.51-5.07c-0.41-0.83,0-1,0.72-0.87
		c0.57,0.25,1.11,0.56,1.61,0.94c0.14,0.1,0.28,0.22,0.4,0.34c1.77,1.49,1.86,3.58,2,5.64c-0.07,0.1-0.18,0.14-0.3,0.13
		C91.92,40.33,91.87,40.3,91.87,40.27z"/>
	<path class="st95" d="M94.6,34c0.53,2,0.41,4.15,1.33,6.11c0.49,1-0.33,1.63-1.41,1.7c-0.32-0.25-1-0.13-0.83-0.87
		c0.55-0.78,0.67-1.79,0.31-2.68c-0.28-0.76-0.34-1.59-0.17-2.39C94.08,35.24,93.92,34.44,94.6,34z"/>
	<path class="st96" d="M88.42,33.7c-0.46-0.16-0.87-0.24-0.85,0.47c-0.73-0.21-1.4-0.62-1.93-1.17c-0.37-0.53-1.15-0.29-1.53-0.82
		l0,0c0.51-1.67,1.32-1.61,2.32-0.39c0.73-0.17,1.5-0.01,2.1,0.44c0.14,0.1,0.25,0.22,0.33,0.37C88.93,33.02,88.76,33.44,88.42,33.7
		z"/>
	<path class="st97" d="M98.42,26.79h-1.24c1.3-0.64,2.92-1.82,3.92-0.27s-0.69,2.54-1.87,3.39c-0.26,0.18-0.53,0.33-0.8,0.5
		c-0.13-0.12-0.21-0.29-0.21-0.47c0.06-0.44,0.3-0.83,0.66-1.09C100.26,27.76,99.56,27.23,98.42,26.79z"/>
	<path class="st98" d="M90.63,28.68c0.48,0.05,0.81,0.25,0.8,0.79c-0.09,0.19-0.23,0.34-0.4,0.46c-1.34,0.53-2.81,0.63-4.22,0.31
		c-0.43-0.46-1.08-1,0.19-1.14c0.48-0.06,1,0.12,1.36-0.4L90.63,28.68z"/>
	<path class="st99" d="M98.39,29.86c0,0.17,0,0.34,0,0.51c-0.63,0.77-1.46,1.37-2.39,1.72c-0.75,0.37-1.28,1.08-1.4,1.91
		c-0.22,0.67,0.21,1.48-0.45,2.05c-1-2.08-0.78-3.34,0.87-4.67C95.92,30.48,97.12,29.94,98.39,29.86z"/>
	<path class="st100" d="M93.74,41.08l0.78,0.71c-1.04,0.38-2.19-0.16-2.56-1.2c-0.04-0.1-0.07-0.21-0.09-0.32h0.38
		c0.33-0.18,0.59,0,0.86,0.16C93.38,40.58,93.6,40.81,93.74,41.08z"/>
	<path class="st91" d="M84.11,32.18c0.67,0,1.29,0,1.53,0.82c-1-0.39-1.79,0.26-2.69,0.36C83.09,32.72,83.82,32.66,84.11,32.18z"/>
	<path class="st101" d="M86.81,30.24c1.3-0.91,2.94,0.09,4.26-0.72c0.48,1-0.27,1.4-0.85,1.86c-0.55,0.33-1.04,0.73-1.48,1.19
		l-2.31-0.78C86.72,31.33,86.86,30.78,86.81,30.24z"/>
	<path class="st102" d="M88.74,32.57c-0.25-0.55-0.51-1,0.46-1.19c0.96-0.15,1.72-0.9,1.87-1.86c0.12-0.03,0.24-0.04,0.36-0.05
		l2.71-0.77c1.26,0.04,2.49-0.36,3.48-1.13c0.43,0.01,0.78-0.34,0.79-0.77c0,0,0-0.01,0-0.01c0.66,0.13,1.65-0.4,1.92,0.29
		s-0.32,1.55-1.11,2c-0.3,0.22-0.58,0.48-0.83,0.77c-0.35,0.29-0.73,0.53-1.13,0.72c-2.65,0.92-3.75,2.68-3.11,5.45
		c-0.03,1.03,0.16,2.05,0.57,3c0.37,0.7,0.11,1.56-0.59,1.94c-0.13,0.07-0.27,0.12-0.41,0.14L93,40.67
		c-0.29-1.22-0.94-2.3-0.92-3.67s-1.32-1.77-2.19-2.5l0,0C89.33,33.96,89.19,33.17,88.74,32.57z"/>
	<path class="st101" d="M97.62,27.57c-0.66,1.25-2.21,1.75-3.48,1.13L97.62,27.57z"/>
	<path class="st103" d="M89.89,34.5c1.43,0.8,3.44,1.08,2.6,3.64c-0.22,0.67,1.23,1.47,0.51,2.53l-0.75-0.4
		C91.52,38.33,91.55,36.07,89.89,34.5z"/>
	<path class="st101" d="M88.74,32.57c1.1,0.21,1.1,1.08,1.15,1.93c-0.65,0-1-0.54-1.47-0.8C88.52,33.32,88.63,33,88.74,32.57z"/>
	<path class="st104" d="M63.08,23.8c-0.22-0.6,0.28-1.23,1.27-0.66c0.14,0.18,0.25,0.38,0.33,0.59c0.06,0.39-0.21,0.75-0.6,0.81
		c-0.06,0.01-0.11,0.01-0.17,0C63.56,24.51,63.09,24.51,63.08,23.8z"/>
	<path class="st105" d="M55.76,121.19c0.7,0.14,1.42,0.04,2.06-0.26c1.85-0.88,3.73-1.44,5.76-0.61c1.45-1,1.58-1.79,0.68-3.92
		c-2.02-1.82-4.13-3.54-6.32-5.14c-0.27-0.18-0.61-0.21-0.91-0.08c-1.13,1.41-0.4,2.76,0.57,3.61c0.66,0.53,1.15,1.25,1.4,2.06
		c-1.17,1.13-2.82,1.64-4.42,1.35l-1.43,0.45c-0.34,0.82-1.17,1.77,0.53,2.06c0.92,0.15,1.86,0.15,2.78,0
		C56.17,120.78,55.85,120.82,55.76,121.19z"/>
	<path class="st106" d="M81.06,115.08l-0.89-0.06c-3.15,0.16-6.09,1.77-9.33,1.4c-0.61,0.12-1.28,0.15-1.68,0.74
		c-0.56,0.83,0.16,1,0.64,1.42c0.15,0.13-0.62,0.42-0.42,0.9c0.47,0.36,1.09,0.43,1.63,0.2c3.01-0.98,6.12-1.65,9.27-2
		c0.85-0.14,1.49-0.85,1.53-1.71C81.75,115.48,81.39,115.29,81.06,115.08z"/>
	<path class="st107" d="M85.8,125c4.2,0.39,8.32-1.33,11-4.59c1.11-1.35,0.84-3.08,0.38-4.58c-0.4-1.27-1.66-1.6-3-1.68
		c-3.09-0.21-6.19-1-9.26,0.14c-0.51,0.06-1.15-0.11-1.25,0.69c0.32,0.29,0.76,0.4,1.17,0.29c3.13-0.67,6.26-0.26,9.36,0.18
		c2.21,0.32,2.88,2.49,1.31,4.25s-3.48,3.77-6.37,3.85c-1.03,0.08-2.04,0.31-3,0.69C85.9,124.42,85.77,124.7,85.8,125z"/>
	<path class="st108" d="M63.76,116.38c0.56,1.26,1.16,2.52-0.17,3.69c-0.09,0.48,0.34,0.56,0.59,0.78c0.9,0.28,1.7,0.94,2.73,0.71
		c0.27-0.65,0.13-1.39,0.4-2c0.45-2.3,0.45-2.3-2.07-3.54c-0.09-0.05-0.2-0.05-0.29,0C64.52,115.9,64.05,116.04,63.76,116.38z"/>
	<path class="st109" d="M85.8,125l0.32-0.51c-0.4-0.34-0.95-0.44-1.44-0.25c-3.73,0.73-7.6,0.19-11-1.52
		c-0.52-0.24-1.1-0.32-1.64-0.53c-0.38-0.14-0.79-0.19-1.19-0.17c-0.54,0.01-1.02,0.31-1.27,0.79c1.45,0.14,2.86,0.57,4.14,1.27
		C77.63,125.85,81.64,126.46,85.8,125z"/>
	<path class="st110" d="M65.24,116c0.08,0.17,0.13,0.46,0.25,0.49c1.68,0.42,1.91,1.56,1.55,3c0.51,0.6,1.4,0.68,2,0.17
		c0.14-0.12,0.25-0.26,0.34-0.42c0.38-0.18,1.06-0.11,1.09-0.56c0-0.75-0.77-0.64-1.25-0.87c0.16-0.83,0.92-0.74,1.45-1
		c-0.37-0.8-1-0.61-1.68-0.5c-0.85,0.15-1.73,0.07-2.54-0.25C66.05,115.93,65.67,115.68,65.24,116z"/>
	<path class="st111" d="M66.45,116.07c0.56,0.64,1.45,0.85,2.24,0.54c0.66-0.28,1.41-0.2,2,0.21c3.28,0,6.38-0.94,9.5-1.8
		c-1.83-0.05-3.66,0.22-5.4,0.81c-2,0.75-4.27,0.06-6.43,0.22C67.71,116.1,67.08,116.07,66.45,116.07z"/>
	<path class="st112" d="M63.76,116.38L65,116c-2.03-1.3-3.97-2.73-5.82-4.28c-0.53-0.39-1.09-1.6-2.1-0.54
		C59.46,112.71,61.69,114.45,63.76,116.38z"/>
	<path class="st113" d="M69.59,122.78l1.45-0.45c-1.23-1.18-2.71-1-4.21-0.83l-2.63-0.82c-0.22-0.14-0.35-0.08-0.39,0.17
		C65.56,121.93,67.54,122.6,69.59,122.78z"/>
	<path class="st114" d="M63.81,120.85l0.38-0.17l-0.6-0.61c-2.12-1-4-0.37-5.77,0.86C59.81,120.69,61.8,119.68,63.81,120.85z"/>
	<path class="st115" d="M54.59,118.2c1.64,0.78,3.94,0.08,4.42-1.35C57.49,117.14,56.16,118.08,54.59,118.2z"/>
	<path class="st116" d="M83.81,115c0.22-0.51,0.74-0.54,1.16-0.74c-1.43-0.35-2.52,1-3.92,0.82c0.05,0.3,0.27,0.55,0.57,0.63
		c0.79,0.41,1.76,0.11,2.17-0.68C83.8,115.02,83.8,115.01,83.81,115z"/>
	<path class="st117" d="M55.76,121.19l1-0.47c-1.13-0.57-2.14-0.09-3.1-0.22c-0.18,0.17-0.15,0.32,0.07,0.43
		C54.36,121.23,55.07,121.32,55.76,121.19z"/>
	<path class="st118" d="M53.77,120.93c0-0.14,0-0.29-0.07-0.43c-1.39-0.26-0.45-1.21-0.54-1.85C52,120,52.1,120.39,53.77,120.93z"/>
	<path class="st119" d="M66.83,121.5l4.21,0.83l0.89,0.12c0.39-0.04,0.74-0.22,1-0.51c1.35-1.58,3.54-2.14,5.48-1.42
		c1.92-0.32,1.9-1.86,2-3.3c-3.23-0.14-6.2,1-9.23,1.85c-0.59,0.16-1.18,0.55-1.83,0.15c-0.74,0.31-1.56,0.4-2.35,0.25
		C66.31,120.08,66.6,120.79,66.83,121.5z"/>
	<path class="st120" d="M80.44,117.22c-0.91,0.82-0.38,2.58-2,3c0.78,1.16,1.45,0.36,1.91-0.22c0.67-0.83,1.58-1.45,2.6-1.78
		c1.49-0.4,2.38-1.92,2-3.42l-1.14,0.23l-2.19,0.71C81.52,116.41,81.07,116.98,80.44,117.22z"/>
	<path class="st121" d="M85,114.77c-0.49,1.84-1.45,3.16-3.53,3.43c-0.64,0.08-1,0.69-1.26,1.33s-0.84,1.11-1.67,0.66
		c-2.17-1.19-4.93-0.31-6.56,2.26c4.3,2.46,9.38,3.18,14.19,2c3.85,0.16,7.55-1.5,10-4.47c0.82-0.95,1.04-2.28,0.57-3.45
		c-0.55-1.1-1.67-1.79-2.89-1.79C90.86,114.68,87.91,114,85,114.77z"/>
	<path class="st104" d="M91.67,116.93c-0.22-0.61,0.28-1.24,1.27-0.66c0.14,0.18,0.25,0.38,0.33,0.59c0.06,0.38-0.21,0.74-0.59,0.8
		c-0.06,0.01-0.12,0.01-0.18,0C92.15,117.63,91.68,117.63,91.67,116.93z"/>
</g>
</svg>
