<svg xmlns="http://www.w3.org/2000/svg" viewBox="0 0 91.45 23.14"><defs><style>.cls-1,.cls-2{fill:#6491d7;}.cls-2{fill-rule:evenodd;}</style></defs><g id="文字"><path class="cls-1" d="M9.47,13.86A.41.41,0,0,1,9,13.53a.43.43,0,0,1,.21-.42,15.65,15.65,0,0,0,4.28-4.83,11,11,0,0,0-2.29-.79A.31.31,0,0,1,11,7.24a.38.38,0,0,1,.35-.43,10.05,10.05,0,0,1,2.57.79,20.31,20.31,0,0,0,1.65-4,.52.52,0,0,1,.42-.41.47.47,0,0,1,.53.39,22.73,22.73,0,0,1-1.87,4.4c1.2.58,2,1.15,2,1.47a.46.46,0,0,1-.37.51.34.34,0,0,1-.33-.13,8.44,8.44,0,0,0-1.74-1.16A14.93,14.93,0,0,1,9.47,13.86Z"/><path class="cls-1" d="M22.05,7.13v0c0-.56-.08-1.25-.15-2-.11-1.09-.26-2.24-.38-3.06v0a.39.39,0,0,1,.39-.42.41.41,0,0,1,.47.34c.11.78.25,2,.35,3.11.07.7.14,1.39.17,1.89a.45.45,0,0,1-.4.51A.39.39,0,0,1,22.05,7.13ZM26.55,2c.09,1.11.23,2.35.31,3.35a6.91,6.91,0,0,1-3.14,6.74.74.74,0,0,1-.32.13.38.38,0,0,1-.44-.34.45.45,0,0,1,.22-.41,6,6,0,0,0,2.83-6c-.1-1.12-.31-2.85-.41-4A.42.42,0,0,1,26,1a.41.41,0,0,1,.49.37C26.52,1.58,26.53,1.8,26.55,2Z"/><path class="cls-1" d="M33.33,7.23A4.37,4.37,0,0,0,32.25,6a.33.33,0,0,1-.13-.24.42.42,0,0,1,.39-.4c.38,0,1.55,1.27,1.57,1.64a.43.43,0,0,1-.39.44A.4.4,0,0,1,33.33,7.23Zm.18,4a.34.34,0,0,1-.38-.35.37.37,0,0,1,.23-.38,8.3,8.3,0,0,0,4.57-5.81.39.39,0,0,1,.38-.33.42.42,0,0,1,.46.39,9.56,9.56,0,0,1-5,6.41A1,1,0,0,1,33.51,11.26Zm1.74-4.89A4.5,4.5,0,0,0,34.37,5a.28.28,0,0,1-.09-.19.39.39,0,0,1,.37-.37c.48,0,1.37,1.47,1.38,1.77a.42.42,0,0,1-.4.42A.37.37,0,0,1,35.25,6.37Z"/><path class="cls-1" d="M45.29.41c0,1.22,0,2.45,0,3.68l.13,0a10.51,10.51,0,0,1,3.83,1.29.43.43,0,0,1-.22.79.46.46,0,0,1-.28-.1,10.26,10.26,0,0,0-3.38-1.25.16.16,0,0,1-.09,0V6.48c0,1.56,0,3,0,3.95a.44.44,0,0,1-.46.5.41.41,0,0,1-.43-.44v0c.06-1.62.09-4.84.07-7.35,0-1.11,0-2.08,0-2.71v0A.38.38,0,0,1,44.84,0a.4.4,0,0,1,.45.39Z"/><path class="cls-1" d="M59.34,5.49A2.71,2.71,0,0,0,57.22,8a2.46,2.46,0,0,0,2.49,2.55c.42,0,.79.06.76.5,0,.24-.24.46-.64.44A3.46,3.46,0,0,1,56.52,8a3.39,3.39,0,0,1,1-2.1.76.76,0,0,0,.08-.13h0a21.45,21.45,0,0,0-3.05.81.54.54,0,0,1-.2,0,.49.49,0,0,1-.45-.43.46.46,0,0,1,.39-.39l.9-.22A2.08,2.08,0,0,0,56,5.31,38.92,38.92,0,0,0,59.85.84a.59.59,0,0,1,.49-.28.47.47,0,0,1,.43.48.44.44,0,0,1-.12.27c-1.5,1.63-3,3.3-3.66,3.82l-.06,0s0,0,0,0l.13,0a24.66,24.66,0,0,1,4.58-.56.39.39,0,0,1,.41.42.38.38,0,0,1-.43.39l-.64,0A9.39,9.39,0,0,0,59.34,5.49Zm-2.78-2.6a.42.42,0,0,1-.36-.26,3.42,3.42,0,0,0-1.11-1.28A.25.25,0,0,1,55,1.11a.39.39,0,0,1,.42-.35C55.83.77,57,2,57,2.5A.44.44,0,0,1,56.56,2.89Z"/><path class="cls-1" d="M71.3,3.93c-.15,1.29-2.57,6.35-4.45,6.19a2.43,2.43,0,0,1-1.63-2.77,5.24,5.24,0,0,1,6-4.42c2.52.26,4.53,2.07,4.22,4.52C75,10.87,71,11.54,70.54,11.5c-.31,0-.46-.24-.44-.44s.16-.33.47-.36c1.94-.21,3.8-1.3,4.06-3.4s-1.4-3.54-3.49-3.76A.39.39,0,0,1,71.3,3.93ZM66,7.36c-.08,1,.43,1.87,1,1.92,1,.08,3-3.1,3.5-5.43a.49.49,0,0,1,.19-.33A4.55,4.55,0,0,0,66,7.36Z"/><path class="cls-1" d="M82.32,13.1c-.42-.08-1.41-.24-2.43-.38s-2-.29-2.44-.33h0c-.51-.06-.75-.36-.7-.73a1,1,0,0,1,.4-.65c1.22-1.08,3.14-2.34,4.67-3.66A3.27,3.27,0,0,0,83,5.41a1.79,1.79,0,0,0-1.72-2A2.19,2.19,0,0,0,79,4.48a.49.49,0,0,1-.5.29.45.45,0,0,1-.4-.51,3,3,0,0,1,3.4-1.65A2.63,2.63,0,0,1,84,5.52a4.07,4.07,0,0,1-1.47,2.35c-1.46,1.29-3.2,2.28-4.7,3.58a.1.1,0,0,0,0,.05c0,.07.07.12.17.13,1.4.19,3.39.42,4.51.59.35.06.48.29.45.51a.47.47,0,0,1-.58.37Z"/><path class="cls-2" d="M91.23,13.38c-.67-.31-2.74,2.47-5.26,3.92-3.26,1.89-4.63,1.81-7.2,1.94A47.27,47.27,0,0,1,67.68,18c-4.54-.91-8.22-2.06-12.86-2.95-2.77-.53-4.87.09-7.16.69-2,.52-2.81.4-5.49-.31-4.8-1.26-7.28.31-11.55,1.52-6.95,2-15.46,4.16-23.2,2a10,10,0,0,1-5.1-3.2c-.71-.81-1.26-2-2.18-1.4-.41.29.2,1.19.45,1.56,3.75,5.36,12.28,5.91,19.32,5,9.8-1.25,16-4.8,20.11-4.55a14.56,14.56,0,0,1,4.64,1,4.31,4.31,0,0,0-1.93,2.49,2.93,2.93,0,0,0,2,3.15,2.83,2.83,0,0,0,3.69-2.94,3.18,3.18,0,0,0-1.76-2.58,16.36,16.36,0,0,1,7.71-1.09c6.18,1.16,16.27,4.24,23.55,4.22a16.45,16.45,0,0,0,9-2.14C88.78,17.43,92.39,14.09,91.23,13.38Zm-44.1,7.77A1.54,1.54,0,0,1,45.6,22c-1.18,0-1.83-1-1.45-2.36s1-1.5,1.54-1.5C46.37,18.13,47.62,19.12,47.13,21.15Z"/></g></svg>