<svg xmlns="http://www.w3.org/2000/svg" viewBox="0 0 91.45 23.03"><defs><style>.cls-1,.cls-2{fill:#6491d7;}.cls-2{fill-rule:evenodd;}</style></defs><g id="文字"><path class="cls-1" d="M9.89,13.74a.4.4,0,0,1-.48-.33A.43.43,0,0,1,9.62,13a15.81,15.81,0,0,0,4.29-4.83,11,11,0,0,0-2.29-.79.28.28,0,0,1-.24-.25.38.38,0,0,1,.34-.43,10.53,10.53,0,0,1,2.58.79A21.64,21.64,0,0,0,16,3.43.54.54,0,0,1,16.38,3a.47.47,0,0,1,.52.4A22.47,22.47,0,0,1,15,7.81c1.19.58,2,1.15,2,1.48a.47.47,0,0,1-.36.51.41.41,0,0,1-.34-.13A8.07,8.07,0,0,0,14.62,8.5,15,15,0,0,1,9.89,13.74Z"/><path class="cls-1" d="M22.49,7V7c0-.56-.08-1.24-.14-2C22.23,3.94,22.09,2.8,22,2V2a.39.39,0,0,1,.39-.42.41.41,0,0,1,.47.34c.11.78.24,2,.34,3.11.07.7.13,1.39.17,1.89a.46.46,0,0,1-.4.51A.39.39,0,0,1,22.49,7ZM27,1.92c.08,1.11.22,2.35.29,3.35A6.92,6.92,0,0,1,24.15,12a.63.63,0,0,1-.33.13.38.38,0,0,1-.43-.34.44.44,0,0,1,.21-.41,6,6,0,0,0,2.85-6c-.09-1.12-.3-2.85-.39-4a.45.45,0,0,1,.9-.09C27,1.49,27,1.71,27,1.92Z"/><path class="cls-1" d="M33.77,7.16A4.46,4.46,0,0,0,32.7,5.94a.33.33,0,0,1-.13-.24A.42.42,0,0,1,33,5.3c.38,0,1.55,1.28,1.57,1.65a.44.44,0,0,1-.4.44A.41.41,0,0,1,33.77,7.16Zm.17,4a.35.35,0,0,1-.39-.34.4.4,0,0,1,.24-.38,8.33,8.33,0,0,0,4.6-5.79.39.39,0,0,1,.38-.33.42.42,0,0,1,.46.4,9.6,9.6,0,0,1-5,6.37A.56.56,0,0,1,33.94,11.19ZM35.7,6.32A4.58,4.58,0,0,0,34.83,5a.35.35,0,0,1-.1-.19.41.41,0,0,1,.38-.37c.48,0,1.37,1.48,1.37,1.78a.42.42,0,0,1-.4.42A.37.37,0,0,1,35.7,6.32Z"/><path class="cls-1" d="M45.78.41c0,1.23,0,2.45-.05,3.68a.5.5,0,0,1,.13,0,10.8,10.8,0,0,1,3.82,1.32.41.41,0,0,1,.18.35.43.43,0,0,1-.41.44.41.41,0,0,1-.27-.1A10.42,10.42,0,0,0,45.8,4.79l-.09,0c0,.58,0,1.15,0,1.72,0,1.56,0,3,0,3.95a.45.45,0,0,1-.46.5.42.42,0,0,1-.43-.45v0c.07-1.61.12-4.83.12-7.35,0-1.11,0-2.07,0-2.71h0A.39.39,0,0,1,45.34,0a.4.4,0,0,1,.44.39Z"/><path class="cls-1" d="M59.82,5.6a2.69,2.69,0,0,0-2.14,2.46,2.46,2.46,0,0,0,2.46,2.58c.43,0,.79.07.76.5,0,.24-.24.46-.65.44-1.19-.09-3.4-1.11-3.28-3.46A3.44,3.44,0,0,1,58,6S58,5.93,58,5.9s0,0,0,0a22.61,22.61,0,0,0-3.06.78.51.51,0,0,1-.2,0,.47.47,0,0,1-.44-.43c0-.17.14-.33.39-.39l.91-.21a2.21,2.21,0,0,0,.88-.28A38.87,38.87,0,0,0,60.37,1a.59.59,0,0,1,.49-.27.46.46,0,0,1,.43.48.44.44,0,0,1-.12.27c-1.52,1.61-3.05,3.27-3.7,3.78,0,0-.06,0-.06.06h0l.13,0a25.56,25.56,0,0,1,4.59-.52.4.4,0,0,1,.41.43.4.4,0,0,1-.44.39l-.64-.05A9.73,9.73,0,0,0,59.82,5.6ZM57.05,3a.41.41,0,0,1-.35-.26,3.49,3.49,0,0,0-1.1-1.29.26.26,0,0,1-.13-.25A.39.39,0,0,1,55.9.84c.44,0,1.65,1.25,1.62,1.75A.46.46,0,0,1,57.05,3Z"/><path class="cls-1" d="M71.82,4.17c-.17,1.29-2.65,6.32-4.53,6.14a2.43,2.43,0,0,1-1.61-2.78,5.25,5.25,0,0,1,6.06-4.36c2.52.29,4.52,2.12,4.18,4.57-.48,3.42-4.47,4-5,4a.43.43,0,0,1-.44-.44.45.45,0,0,1,.47-.36c2-.18,3.82-1.25,4.11-3.35S73.75,4,71.66,3.78A.39.39,0,0,1,71.82,4.17ZM66.44,7.54c-.09,1,.41,1.88,1,1.93,1,.09,3.09-3.06,3.57-5.39a.48.48,0,0,1,.18-.33A4.55,4.55,0,0,0,66.44,7.54Z"/><path class="cls-1" d="M80.23,12.77a.46.46,0,0,1-.55.37.43.43,0,0,1-.38-.49h0c.23-1.41.79-4.75,1.1-6.72.1-.69.18-1.21.2-1.43.05-.53-.07-.72-.65-.81l-.34,0h0a.44.44,0,0,1-.41-.49.48.48,0,0,1,.54-.39l.72.09c.83.13,1.26.6,1.17,1.34,0,.24-.08.63-.16,1.1-.21,1.32-.56,3.37-.88,5.35-.11.72-.22,1.44-.32,2.11Z"/><path class="cls-2" d="M91.23,13.26c-.67-.31-2.74,2.47-5.26,3.92a12.26,12.26,0,0,1-7.2,1.94A46.74,46.74,0,0,1,67.68,17.9C63.14,17,59.46,15.84,54.82,15c-2.77-.54-4.87.09-7.16.68-2,.52-2.81.4-5.49-.31-4.8-1.26-7.28.31-11.55,1.52-6.95,2-15.46,4.16-23.2,2a10,10,0,0,1-5.1-3.2c-.71-.81-1.26-2-2.18-1.4-.41.29.2,1.2.45,1.56,3.75,5.36,12.28,5.91,19.32,5,9.8-1.25,16-4.8,20.11-4.55a14.56,14.56,0,0,1,4.64,1,4.31,4.31,0,0,0-1.93,2.49,2.93,2.93,0,0,0,2,3.15A2.83,2.83,0,0,0,48.44,20a3.16,3.16,0,0,0-1.76-2.57,16.27,16.27,0,0,1,7.71-1.1c6.18,1.16,16.27,4.24,23.55,4.22a16.45,16.45,0,0,0,9-2.14C88.78,17.31,92.39,14,91.23,13.26ZM47.13,21a1.54,1.54,0,0,1-1.53.84c-1.18,0-1.83-1-1.45-2.36s1-1.5,1.54-1.5C46.37,18,47.62,19,47.13,21Z"/></g></svg>