<svg xmlns="http://www.w3.org/2000/svg" viewBox="0 0 91.45 23.16"><defs><style>.cls-1,.cls-2{fill:#6491d7;}.cls-2{fill-rule:evenodd;}</style></defs><g id="文字"><path class="cls-1" d="M9.4,13.88a.42.42,0,0,1-.48-.34.43.43,0,0,1,.21-.42,15.53,15.53,0,0,0,4.28-4.83,11,11,0,0,0-2.29-.79.3.3,0,0,1-.24-.24.39.39,0,0,1,.35-.44,10.47,10.47,0,0,1,2.57.79,20.92,20.92,0,0,0,1.65-4.05.52.52,0,0,1,.42-.41.47.47,0,0,1,.53.39,23.41,23.41,0,0,1-1.87,4.4c1.2.58,2,1.15,2,1.47a.45.45,0,0,1-.37.51.36.36,0,0,1-.33-.12,8.61,8.61,0,0,0-1.73-1.17A15.21,15.21,0,0,1,9.4,13.88Z"/><path class="cls-1" d="M22,7.14v0c0-.56-.08-1.25-.16-2-.1-1.09-.25-2.24-.37-3.06v0a.4.4,0,0,1,.39-.42.4.4,0,0,1,.46.34c.12.78.25,2,.36,3.11.07.7.13,1.39.17,1.89a.46.46,0,0,1-.4.51A.39.39,0,0,1,22,7.14ZM26.48,2c.08,1.11.23,2.35.31,3.35a6.91,6.91,0,0,1-3.14,6.74.64.64,0,0,1-.32.13.37.37,0,0,1-.43-.34.42.42,0,0,1,.21-.41,6,6,0,0,0,2.83-6c-.1-1.12-.31-2.85-.41-4a.45.45,0,0,1,.9-.1C26.44,1.59,26.46,1.81,26.48,2Z"/><path class="cls-1" d="M33.26,7.23A4.67,4.67,0,0,0,32.18,6a.31.31,0,0,1-.13-.23.42.42,0,0,1,.39-.4C32.81,5.36,34,6.65,34,7a.42.42,0,0,1-.4.44A.37.37,0,0,1,33.26,7.23Zm.18,4a.34.34,0,0,1-.38-.34.37.37,0,0,1,.23-.38,8.32,8.32,0,0,0,4.57-5.81.39.39,0,0,1,.38-.34.44.44,0,0,1,.46.4,9.6,9.6,0,0,1-5,6.4A.53.53,0,0,1,33.44,11.26Zm1.73-4.88A4.23,4.23,0,0,0,34.3,5a.35.35,0,0,1-.1-.19.4.4,0,0,1,.38-.37c.48,0,1.37,1.47,1.38,1.76a.43.43,0,0,1-.4.43A.39.39,0,0,1,35.17,6.38Z"/><path class="cls-1" d="M45.21.41l0,3.68a.31.31,0,0,1,.13,0,10.72,10.72,0,0,1,3.83,1.28.44.44,0,0,1-.23.8.45.45,0,0,1-.27-.1,10.31,10.31,0,0,0-3.39-1.25.11.11,0,0,1-.08,0V6.48c0,1.56,0,3,0,3.95a.45.45,0,0,1-.46.5.41.41,0,0,1-.43-.44v0c.06-1.62.08-4.84.07-7.35,0-1.11,0-2.08,0-2.71v0A.39.39,0,0,1,44.77,0a.4.4,0,0,1,.44.39Z"/><path class="cls-1" d="M59.26,5.48A2.69,2.69,0,0,0,57.15,8a2.46,2.46,0,0,0,2.49,2.55c.42,0,.79.06.76.49,0,.24-.24.47-.64.44A3.45,3.45,0,0,1,56.44,8a3.5,3.5,0,0,1,1-2.11c.05-.06.08-.1.08-.13h0a21.66,21.66,0,0,0-3,.81.59.59,0,0,1-.21,0,.47.47,0,0,1-.44-.42.45.45,0,0,1,.38-.4l.91-.22a2.13,2.13,0,0,0,.88-.29A38.85,38.85,0,0,0,59.77.83a.57.57,0,0,1,.49-.28.46.46,0,0,1,.43.47.46.46,0,0,1-.12.28c-1.5,1.63-3,3.3-3.65,3.82l-.06,0s0,0,0,0l.13,0a24.23,24.23,0,0,1,4.57-.57.41.41,0,1,1,0,.82l-.63,0A8.64,8.64,0,0,0,59.26,5.48Zm-2.78-2.6a.41.41,0,0,1-.36-.26A3.65,3.65,0,0,0,55,1.34a.26.26,0,0,1-.14-.24A.39.39,0,0,1,55.3.75C55.75.76,57,2,56.94,2.49A.45.45,0,0,1,56.48,2.88Z"/><path class="cls-1" d="M71.23,3.9c-.15,1.3-2.57,6.36-4.45,6.2a2.42,2.42,0,0,1-1.64-2.76,5.25,5.25,0,0,1,6-4.44c2.52.26,4.53,2.07,4.22,4.52-.43,3.42-4.4,4.1-4.89,4.06-.31,0-.46-.24-.44-.44a.44.44,0,0,1,.46-.36c2-.21,3.81-1.3,4.06-3.41.24-1.95-1.4-3.54-3.49-3.75A.4.4,0,0,1,71.23,3.9ZM65.89,7.34c-.07.95.44,1.87,1,1.92,1,.08,3.06-3.1,3.51-5.43a.43.43,0,0,1,.18-.33A4.55,4.55,0,0,0,65.89,7.34Z"/><path class="cls-1" d="M79.87,7.05a.39.39,0,0,1,.45-.35l.52.08a1.73,1.73,0,0,0,2-1.53,1.63,1.63,0,0,0-1.6-1.89,2.28,2.28,0,0,0-2.06.69.39.39,0,0,1-.36.12.46.46,0,0,1-.39-.49A2.76,2.76,0,0,1,81.38,2.6a2.46,2.46,0,0,1,2.38,2.8,2.23,2.23,0,0,1-1.91,1.88,2.65,2.65,0,0,1,1.71,3,3.21,3.21,0,0,1-3.84,2.6c-2.17-.31-2.93-1.86-2.88-2.24a.48.48,0,0,1,.53-.4.42.42,0,0,1,.32.25,2.69,2.69,0,0,0,2.22,1.57,2.34,2.34,0,0,0,2.73-1.94,2.12,2.12,0,0,0-2-2.58l-.37,0A.4.4,0,0,1,79.87,7.05Z"/><path class="cls-2" d="M91.23,13.39c-.67-.31-2.74,2.47-5.26,3.92a12.35,12.35,0,0,1-7.2,2A47.29,47.29,0,0,1,67.68,18c-4.54-.91-8.22-2.05-12.86-2.94-2.77-.53-4.87.09-7.16.68-2,.52-2.81.4-5.49-.31-4.8-1.26-7.28.31-11.55,1.52-6.95,2-15.46,4.16-23.2,2a9.93,9.93,0,0,1-5.1-3.2c-.71-.81-1.26-2-2.18-1.39-.41.28.2,1.19.45,1.56,3.75,5.36,12.28,5.9,19.32,5,9.8-1.25,16-4.79,20.11-4.55a14.56,14.56,0,0,1,4.64,1,4.37,4.37,0,0,0-1.93,2.49,2.91,2.91,0,0,0,2,3.15,2.83,2.83,0,0,0,3.69-2.94,3.16,3.16,0,0,0-1.76-2.57,16.41,16.41,0,0,1,7.71-1.1c6.18,1.17,16.27,4.24,23.55,4.22a16.45,16.45,0,0,0,9-2.14C88.78,17.44,92.39,14.1,91.23,13.39Zm-44.1,7.77A1.53,1.53,0,0,1,45.6,22c-1.18,0-1.83-1-1.45-2.36s1-1.49,1.54-1.49C46.37,18.14,47.62,19.13,47.13,21.16Z"/></g></svg>