<svg xmlns="http://www.w3.org/2000/svg" viewBox="0 0 91.45 23.19"><defs><style>.cls-1,.cls-2{fill:#6491d7;}.cls-2{fill-rule:evenodd;}</style></defs><g id="文字"><path class="cls-1" d="M9.21,13.91a.41.41,0,0,1-.48-.34.44.44,0,0,1,.21-.42,15.42,15.42,0,0,0,4.28-4.83,10.35,10.35,0,0,0-2.29-.78.32.32,0,0,1-.24-.25A.39.39,0,0,1,11,6.85a10.47,10.47,0,0,1,2.57.79,21.57,21.57,0,0,0,1.65-4,.5.5,0,0,1,.42-.41.46.46,0,0,1,.52.39A23.14,23.14,0,0,1,14.34,8c1.19.58,2,1.15,2,1.47A.46.46,0,0,1,16,10a.37.37,0,0,1-.34-.12,8.07,8.07,0,0,0-1.73-1.17A15.13,15.13,0,0,1,9.21,13.91Z"/><path class="cls-1" d="M21.78,7.16v0c0-.57-.08-1.25-.15-2-.11-1.09-.26-2.23-.38-3v0a.39.39,0,0,1,.39-.42.4.4,0,0,1,.46.34c.12.78.26,2,.37,3.11.06.7.13,1.39.16,1.89a.45.45,0,0,1-.39.51A.4.4,0,0,1,21.78,7.16Zm4.5-5.11c.09,1.1.23,2.35.31,3.34a6.92,6.92,0,0,1-3.13,6.75.73.73,0,0,1-.33.13.39.39,0,0,1-.43-.34.45.45,0,0,1,.22-.41,6,6,0,0,0,2.82-6c-.1-1.12-.31-2.85-.41-4A.43.43,0,0,1,25.74,1a.41.41,0,0,1,.48.37Z"/><path class="cls-1" d="M33.06,7.25A4.67,4.67,0,0,0,32,6a.31.31,0,0,1-.13-.23.42.42,0,0,1,.39-.4c.37,0,1.55,1.26,1.57,1.63a.42.42,0,0,1-.39.44A.38.38,0,0,1,33.06,7.25Zm.19,4a.36.36,0,0,1-.39-.34.4.4,0,0,1,.24-.38,8.3,8.3,0,0,0,4.55-5.82A.4.4,0,0,1,38,4.4a.44.44,0,0,1,.47.4,9.64,9.64,0,0,1-5,6.41A.53.53,0,0,1,33.25,11.28ZM35,6.4A4.42,4.42,0,0,0,34.1,5a.32.32,0,0,1-.1-.19.41.41,0,0,1,.38-.37c.48,0,1.37,1.47,1.38,1.77a.42.42,0,0,1-.4.42A.37.37,0,0,1,35,6.4Z"/><path class="cls-1" d="M45,.4l0,3.69.13,0a10.56,10.56,0,0,1,3.84,1.28.42.42,0,0,1,.18.35.41.41,0,0,1-.68.34,10.37,10.37,0,0,0-3.39-1.24l-.09,0c0,.57,0,1.14,0,1.72,0,1.56,0,3,.05,3.95a.45.45,0,0,1-.46.5.41.41,0,0,1-.43-.44v0c.06-1.62.07-4.84,0-7.35,0-1.11,0-2.08,0-2.71v0A.38.38,0,0,1,44.55,0,.4.4,0,0,1,45,.39Z"/><path class="cls-1" d="M59.06,5.45A2.68,2.68,0,0,0,57,7.93a2.46,2.46,0,0,0,2.5,2.55c.42,0,.79.06.76.49,0,.24-.24.46-.65.44-1.19-.07-3.41-1.07-3.31-3.41a3.42,3.42,0,0,1,1-2.11.26.26,0,0,0,.08-.12s0,0,0,0a23.21,23.21,0,0,0-3,.82.51.51,0,0,1-.2,0,.49.49,0,0,1-.45-.42.47.47,0,0,1,.39-.4l.9-.22a2.08,2.08,0,0,0,.88-.29A37.92,37.92,0,0,0,59.55.8.57.57,0,0,1,60,.52a.45.45,0,0,1,.43.47.49.49,0,0,1-.12.28c-1.49,1.63-3,3.3-3.64,3.83,0,0-.06,0-.06.05h0s.07,0,.13,0a26,26,0,0,1,4.57-.58A.4.4,0,0,1,61.8,5a.41.41,0,0,1-.44.4l-.63,0A9.24,9.24,0,0,0,59.06,5.45Zm-2.79-2.6a.39.39,0,0,1-.36-.25A3.42,3.42,0,0,0,54.8,1.32a.28.28,0,0,1-.14-.24.4.4,0,0,1,.43-.35c.44,0,1.66,1.23,1.63,1.74A.43.43,0,0,1,56.27,2.85Z"/><path class="cls-1" d="M71,3.84c-.14,1.3-2.55,6.36-4.43,6.21a2.43,2.43,0,0,1-1.64-2.76,5.25,5.25,0,0,1,6-4.45c2.52.25,4.54,2.05,4.24,4.51-.42,3.42-4.39,4.11-4.88,4.07-.31,0-.46-.24-.44-.44s.16-.34.46-.36c2-.22,3.8-1.32,4-3.43.23-1.95-1.42-3.53-3.51-3.74A.39.39,0,0,1,71,3.84ZM65.69,7.29c-.07,1,.44,1.87,1,1.92,1,.08,3-3.11,3.48-5.44a.45.45,0,0,1,.18-.34A4.57,4.57,0,0,0,65.69,7.29Z"/><path class="cls-1" d="M82.15,12.69a.39.39,0,0,1-.48.33.42.42,0,0,1-.38-.48c.08-.5.16-1,.31-2l-3.35-.45c-.72-.09-1-.47-1-1a1.6,1.6,0,0,1,.44-.84c1-1.1,3.89-4.07,5.18-5.32a.48.48,0,0,1,.41-.14.44.44,0,0,1,.22.8c-.77.69-4.16,4.05-5.1,5a.63.63,0,0,0-.21.36c0,.26.12.3,1,.42l2.54.31.15-1.07c.12-.77.2-1.34.25-1.74h0a.43.43,0,0,1,.5-.39.42.42,0,0,1,.34.53c-.1.68-.2,1.38-.43,2.79l1.34.16h0a.37.37,0,0,1,.32.46.38.38,0,0,1-.48.32l-1.31-.18-.27,2Z"/><path class="cls-2" d="M91.23,13.43c-.67-.31-2.74,2.46-5.26,3.91a12.35,12.35,0,0,1-7.2,1.95,47.29,47.29,0,0,1-11.09-1.23c-4.54-.91-8.22-2-12.86-2.94-2.77-.53-4.87.09-7.16.69-2,.51-2.81.39-5.49-.31-4.8-1.27-7.28.3-11.55,1.51-6.95,2-15.46,4.17-23.2,2a9.93,9.93,0,0,1-5.1-3.2c-.71-.81-1.26-2-2.18-1.39-.41.28.2,1.19.45,1.56,3.75,5.36,12.28,5.9,19.32,5,9.8-1.25,16-4.79,20.11-4.55a14.84,14.84,0,0,1,4.64,1A4.37,4.37,0,0,0,42.73,20a2.91,2.91,0,0,0,2,3.15,2.83,2.83,0,0,0,3.69-2.94,3.16,3.16,0,0,0-1.76-2.57,16.41,16.41,0,0,1,7.71-1.1c6.18,1.17,16.27,4.25,23.55,4.23a16.36,16.36,0,0,0,9-2.15C88.78,17.47,92.39,14.14,91.23,13.43Zm-44.1,7.76A1.53,1.53,0,0,1,45.6,22c-1.18,0-1.83-1-1.45-2.36s1-1.49,1.54-1.49C46.37,18.18,47.62,19.16,47.13,21.19Z"/></g></svg>