<?xml version="1.0" encoding="utf-8"?>
<!-- Generator: Adobe Illustrator 26.0.2, SVG Export Plug-In . SVG Version: 6.00 Build 0)  -->
<svg version="1.1" id="レイヤー_1" xmlns="http://www.w3.org/2000/svg" xmlns:xlink="http://www.w3.org/1999/xlink" x="0px"
	 y="0px" viewBox="0 0 122.6 122.6" style="enable-background:new 0 0 122.6 122.6;" xml:space="preserve">
<style type="text/css">
	.st0{fill:#FFFFFF;}
</style>
<g id="bg">
</g>
<g id="main">
	<g>
		<g>
			<path class="st0" d="M122.2,36c-0.3-6.5-1.3-11-2.8-14.9c-1.6-4-3.7-7.4-7.1-10.9c-3.4-3.4-6.8-5.5-10.8-7.1
				c-3.9-1.5-8.3-2.5-14.9-2.8C80,0.1,77.9,0,61.3,0S42.5,0.1,36,0.4c-6.5,0.3-11,1.3-14.9,2.8c-4,1.6-7.4,3.7-10.9,7.1
				c-3.4,3.4-5.5,6.8-7.1,10.8C1.7,25,0.7,29.5,0.4,36C0.1,42.5,0,44.6,0,61.3S0.1,80,0.4,86.5c0.3,6.5,1.3,11,2.8,14.9
				c1.6,4,3.7,7.4,7.1,10.8s6.8,5.5,10.8,7.1c3.9,1.5,8.4,2.6,14.9,2.8c6.5,0.3,8.6,0.4,25.3,0.4s18.7-0.1,25.3-0.4
				c6.5-0.3,11-1.3,14.9-2.8c4-1.6,7.4-3.7,10.8-7.1c3.4-3.4,5.5-6.8,7.1-10.8c1.5-3.9,2.6-8.3,2.8-14.9c0.3-6.5,0.4-8.6,0.4-25.3
				S122.5,42.5,122.2,36z M111.2,86c-0.3,6-1.3,9.2-2.1,11.4c-1.1,2.9-2.4,4.9-4.6,7.1c-2.1,2.1-4.2,3.5-7.1,4.6
				c-2.2,0.8-5.4,1.8-11.4,2.1c-6.5,0.3-8.4,0.4-24.8,0.4s-18.3-0.1-24.8-0.4c-6-0.3-9.2-1.3-11.4-2.1c-2.9-1.1-4.9-2.4-7-4.6
				s-3.5-4.2-4.6-7.1c-0.8-2.2-1.8-5.4-2.1-11.4c-0.3-6.5-0.4-8.4-0.4-24.8s0.1-18.3,0.4-24.8c0.3-6,1.3-9.2,2.1-11.4
				c1.1-2.9,2.4-4.9,4.6-7c2.1-2.1,4.2-3.5,7-4.6c2.2-0.8,5.4-1.8,11.4-2.1C43,11.1,44.9,11,61.3,11s18.3,0.1,24.8,0.4
				c6,0.3,9.2,1.3,11.4,2.1c2.9,1.1,4.9,2.4,7.1,4.6c2.1,2.1,3.5,4.2,4.6,7c0.8,2.2,1.8,5.4,2.1,11.4c0.3,6.5,0.4,8.4,0.4,24.8
				S111.4,79.6,111.2,86z"/>
			<path class="st0" d="M61.3,29.8c-17.4,0-31.5,14.1-31.5,31.5s14.1,31.5,31.5,31.5s31.5-14.1,31.5-31.5S78.7,29.8,61.3,29.8z
				 M61.3,81.7c-11.3,0-20.4-9.2-20.4-20.4S50,40.8,61.3,40.8S81.7,50,81.7,61.3S72.6,81.7,61.3,81.7z"/>
			<circle class="st0" cx="94" cy="28.6" r="7.3"/>
		</g>
		<g>
			<path class="st0" d="M122.2,36c-0.3-6.5-1.3-11-2.8-14.9c-1.6-4-3.7-7.4-7.1-10.9c-3.4-3.4-6.8-5.5-10.8-7.1
				c-3.9-1.5-8.3-2.5-14.9-2.8C80,0.1,77.9,0,61.3,0S42.5,0.1,36,0.4c-6.5,0.3-11,1.3-14.9,2.8c-4,1.6-7.4,3.7-10.9,7.1
				c-3.4,3.4-5.5,6.8-7.1,10.8C1.7,25,0.7,29.5,0.4,36C0.1,42.5,0,44.6,0,61.3S0.1,80,0.4,86.5c0.3,6.5,1.3,11,2.8,14.9
				c1.6,4,3.7,7.4,7.1,10.8s6.8,5.5,10.8,7.1c3.9,1.5,8.4,2.6,14.9,2.8c6.5,0.3,8.6,0.4,25.3,0.4s18.7-0.1,25.3-0.4
				c6.5-0.3,11-1.3,14.9-2.8c4-1.6,7.4-3.7,10.8-7.1c3.4-3.4,5.5-6.8,7.1-10.8c1.5-3.9,2.6-8.3,2.8-14.9c0.3-6.5,0.4-8.6,0.4-25.3
				S122.5,42.5,122.2,36z M111.2,86c-0.3,6-1.3,9.2-2.1,11.4c-1.1,2.9-2.4,4.9-4.6,7.1c-2.1,2.1-4.2,3.5-7.1,4.6
				c-2.2,0.8-5.4,1.8-11.4,2.1c-6.5,0.3-8.4,0.4-24.8,0.4s-18.3-0.1-24.8-0.4c-6-0.3-9.2-1.3-11.4-2.1c-2.9-1.1-4.9-2.4-7-4.6
				s-3.5-4.2-4.6-7.1c-0.8-2.2-1.8-5.4-2.1-11.4c-0.3-6.5-0.4-8.4-0.4-24.8s0.1-18.3,0.4-24.8c0.3-6,1.3-9.2,2.1-11.4
				c1.1-2.9,2.4-4.9,4.6-7c2.1-2.1,4.2-3.5,7-4.6c2.2-0.8,5.4-1.8,11.4-2.1C43,11.1,44.9,11,61.3,11s18.3,0.1,24.8,0.4
				c6,0.3,9.2,1.3,11.4,2.1c2.9,1.1,4.9,2.4,7.1,4.6c2.1,2.1,3.5,4.2,4.6,7c0.8,2.2,1.8,5.4,2.1,11.4c0.3,6.5,0.4,8.4,0.4,24.8
				S111.4,79.6,111.2,86z"/>
			<path class="st0" d="M61.3,29.8c-17.4,0-31.5,14.1-31.5,31.5s14.1,31.5,31.5,31.5s31.5-14.1,31.5-31.5S78.7,29.8,61.3,29.8z
				 M61.3,81.7c-11.3,0-20.4-9.2-20.4-20.4S50,40.8,61.3,40.8S81.7,50,81.7,61.3S72.6,81.7,61.3,81.7z"/>
			<circle class="st0" cx="94" cy="28.6" r="7.3"/>
		</g>
	</g>
</g>
<g id="base">
</g>
</svg>
