<?xml version="1.0" encoding="utf-8"?>
<!-- Generator: Adobe Illustrator 26.0.2, SVG Export Plug-In . SVG Version: 6.00 Build 0)  -->
<svg version="1.1" xmlns="http://www.w3.org/2000/svg" xmlns:xlink="http://www.w3.org/1999/xlink" x="0px" y="0px"
	 viewBox="0 0 122.56 122.56" style="enable-background:new 0 0 122.56 122.56;" xml:space="preserve">
<style type="text/css">
	.st0{fill:url(#SVGID_1_);}
	.st1{fill:url(#SVGID_00000116942403388835896330000006550105859562007224_);}
	.st2{fill:url(#SVGID_00000011719747937702230780000007096420661735661967_);}
	.st3{fill:url(#SVGID_00000013892340795296645800000014042012781822990750_);}
	.st4{fill:url(#SVGID_00000111914254830527624140000007341371357205752450_);}
	.st5{fill:url(#SVGID_00000023991364983652624900000014459855215709352329_);}
</style>
<g id="bg">
</g>
<g id="main">
	<g>
		<g>
			<linearGradient id="SVGID_1_" gradientUnits="userSpaceOnUse" x1="-806.8184" y1="876.0275" x2="248.056" y2="-114.0221">
				<stop  offset="0" style="stop-color:#EAB931"/>
				<stop  offset="0.5136" style="stop-color:#D72818"/>
				<stop  offset="1" style="stop-color:#9E2781"/>
			</linearGradient>
			<path class="st0" d="M122.19,36.01c-0.3-6.52-1.33-10.98-2.85-14.87c-1.57-4.03-3.66-7.45-7.07-10.85
				c-3.41-3.41-6.82-5.5-10.85-7.07c-3.9-1.51-8.35-2.55-14.87-2.85C80.01,0.07,77.92,0,61.28,0C44.64,0,42.55,0.07,36.01,0.37
				c-6.52,0.3-10.98,1.33-14.87,2.85c-4.03,1.57-7.45,3.66-10.85,7.07c-3.41,3.41-5.5,6.82-7.07,10.85
				c-1.51,3.9-2.55,8.35-2.85,14.87C0.07,42.55,0,44.64,0,61.28s0.07,18.73,0.37,25.26c0.3,6.52,1.33,10.98,2.85,14.87
				c1.57,4.03,3.66,7.45,7.07,10.85s6.82,5.5,10.85,7.07c3.9,1.51,8.35,2.55,14.87,2.85c6.54,0.3,8.62,0.37,25.26,0.37
				c16.64,0,18.73-0.07,25.26-0.37c6.52-0.3,10.98-1.33,14.87-2.85c4.03-1.57,7.45-3.66,10.85-7.07c3.41-3.41,5.5-6.82,7.07-10.85
				c1.51-3.9,2.55-8.35,2.85-14.87c0.3-6.54,0.37-8.62,0.37-25.26S122.49,42.55,122.19,36.01z M111.16,86.04
				c-0.27,5.97-1.27,9.22-2.11,11.38c-1.11,2.86-2.44,4.9-4.58,7.05c-2.14,2.14-4.19,3.47-7.05,4.58c-2.16,0.84-5.4,1.84-11.38,2.11
				c-6.46,0.29-8.4,0.36-24.76,0.36c-16.36,0-18.3-0.06-24.76-0.36c-5.97-0.27-9.22-1.27-11.38-2.11c-2.86-1.11-4.9-2.44-7.05-4.58
				s-3.47-4.19-4.58-7.05c-0.84-2.16-1.84-5.4-2.11-11.38c-0.29-6.46-0.36-8.4-0.36-24.76s0.06-18.3,0.36-24.76
				c0.27-5.97,1.27-9.22,2.11-11.38c1.11-2.86,2.44-4.9,4.58-7.05c2.14-2.14,4.19-3.47,7.05-4.58c2.16-0.84,5.4-1.84,11.38-2.11
				c6.46-0.29,8.4-0.36,24.76-0.36s18.3,0.06,24.76,0.36c5.97,0.27,9.22,1.27,11.38,2.11c2.86,1.11,4.9,2.44,7.05,4.58
				c2.14,2.14,3.47,4.19,4.58,7.05c0.84,2.16,1.84,5.4,2.11,11.38c0.29,6.46,0.36,8.4,0.36,24.76S111.45,79.58,111.16,86.04z"/>
			
				<linearGradient id="SVGID_00000084490615107619494020000016491414405688810884_" gradientUnits="userSpaceOnUse" x1="-317.6073" y1="416.8798" x2="142.7982" y2="-15.2327">
				<stop  offset="0" style="stop-color:#EAB931"/>
				<stop  offset="0.5136" style="stop-color:#D72818"/>
				<stop  offset="1" style="stop-color:#9E2781"/>
			</linearGradient>
			<path style="fill:url(#SVGID_00000084490615107619494020000016491414405688810884_);" d="M61.28,29.81
				c-17.38,0-31.47,14.09-31.47,31.47S43.9,92.74,61.28,92.74s31.47-14.09,31.47-31.47S78.66,29.81,61.28,29.81z M61.28,81.7
				c-11.28,0-20.43-9.15-20.43-20.43S50,40.85,61.28,40.85c11.28,0,20.43,9.15,20.43,20.43S72.56,81.7,61.28,81.7z"/>
			
				<linearGradient id="SVGID_00000157992966251869647140000013190289475415109520_" gradientUnits="userSpaceOnUse" x1="5.4488" y1="111.6662" x2="113.0383" y2="10.6883">
				<stop  offset="0" style="stop-color:#EAB931"/>
				<stop  offset="0.5136" style="stop-color:#D72818"/>
				<stop  offset="1" style="stop-color:#9E2781"/>
			</linearGradient>
			<circle style="fill:url(#SVGID_00000157992966251869647140000013190289475415109520_);" cx="93.99" cy="28.57" r="7.35"/>
		</g>
		<g>
			
				<linearGradient id="SVGID_00000145060458471811888210000008113084323694851990_" gradientUnits="userSpaceOnUse" x1="9.1753" y1="113.3806" x2="111.6559" y2="10.9001">
				<stop  offset="0" style="stop-color:#EAB931"/>
				<stop  offset="0.5136" style="stop-color:#D72818"/>
				<stop  offset="1" style="stop-color:#9E2781"/>
			</linearGradient>
			<path style="fill:url(#SVGID_00000145060458471811888210000008113084323694851990_);" d="M122.19,36.01
				c-0.3-6.52-1.33-10.98-2.85-14.87c-1.57-4.03-3.66-7.45-7.07-10.85c-3.41-3.41-6.82-5.5-10.85-7.07
				c-3.9-1.51-8.35-2.55-14.87-2.85C80.01,0.07,77.92,0,61.28,0C44.64,0,42.55,0.07,36.01,0.37c-6.52,0.3-10.98,1.33-14.87,2.85
				c-4.03,1.57-7.45,3.66-10.85,7.07c-3.41,3.41-5.5,6.82-7.07,10.85c-1.51,3.9-2.55,8.35-2.85,14.87C0.07,42.55,0,44.64,0,61.28
				s0.07,18.73,0.37,25.26c0.3,6.52,1.33,10.98,2.85,14.87c1.57,4.03,3.66,7.45,7.07,10.85s6.82,5.5,10.85,7.07
				c3.9,1.51,8.35,2.55,14.87,2.85c6.54,0.3,8.62,0.37,25.26,0.37c16.64,0,18.73-0.07,25.26-0.37c6.52-0.3,10.98-1.33,14.87-2.85
				c4.03-1.57,7.45-3.66,10.85-7.07c3.41-3.41,5.5-6.82,7.07-10.85c1.51-3.9,2.55-8.35,2.85-14.87c0.3-6.54,0.37-8.62,0.37-25.26
				S122.49,42.55,122.19,36.01z M111.16,86.04c-0.27,5.97-1.27,9.22-2.11,11.38c-1.11,2.86-2.44,4.9-4.58,7.05
				c-2.14,2.14-4.19,3.47-7.05,4.58c-2.16,0.84-5.4,1.84-11.38,2.11c-6.46,0.29-8.4,0.36-24.76,0.36c-16.36,0-18.3-0.06-24.76-0.36
				c-5.97-0.27-9.22-1.27-11.38-2.11c-2.86-1.11-4.9-2.44-7.05-4.58s-3.47-4.19-4.58-7.05c-0.84-2.16-1.84-5.4-2.11-11.38
				c-0.29-6.46-0.36-8.4-0.36-24.76s0.06-18.3,0.36-24.76c0.27-5.97,1.27-9.22,2.11-11.38c1.11-2.86,2.44-4.9,4.58-7.05
				c2.14-2.14,4.19-3.47,7.05-4.58c2.16-0.84,5.4-1.84,11.38-2.11c6.46-0.29,8.4-0.36,24.76-0.36s18.3,0.06,24.76,0.36
				c5.97,0.27,9.22,1.27,11.38,2.11c2.86,1.11,4.9,2.44,7.05,4.58c2.14,2.14,3.47,4.19,4.58,7.05c0.84,2.16,1.84,5.4,2.11,11.38
				c0.29,6.46,0.36,8.4,0.36,24.76S111.45,79.58,111.16,86.04z"/>
			
				<linearGradient id="SVGID_00000015319384966753090210000007279701274704236192_" gradientUnits="userSpaceOnUse" x1="9.1753" y1="113.3806" x2="111.6559" y2="10.9001">
				<stop  offset="0" style="stop-color:#EAB931"/>
				<stop  offset="0.5136" style="stop-color:#D72818"/>
				<stop  offset="1" style="stop-color:#9E2781"/>
			</linearGradient>
			<path style="fill:url(#SVGID_00000015319384966753090210000007279701274704236192_);" d="M61.28,29.81
				c-17.38,0-31.47,14.09-31.47,31.47S43.9,92.74,61.28,92.74s31.47-14.09,31.47-31.47S78.66,29.81,61.28,29.81z M61.28,81.7
				c-11.28,0-20.43-9.15-20.43-20.43S50,40.85,61.28,40.85c11.28,0,20.43,9.15,20.43,20.43S72.56,81.7,61.28,81.7z"/>
			
				<linearGradient id="SVGID_00000171684203645037515580000009717971470039631780_" gradientUnits="userSpaceOnUse" x1="9.1753" y1="113.3806" x2="111.6559" y2="10.9001">
				<stop  offset="0" style="stop-color:#EAB931"/>
				<stop  offset="0.5136" style="stop-color:#D72818"/>
				<stop  offset="1" style="stop-color:#9E2781"/>
			</linearGradient>
			<circle style="fill:url(#SVGID_00000171684203645037515580000009717971470039631780_);" cx="93.99" cy="28.57" r="7.35"/>
		</g>
	</g>
</g>
<g id="base">
</g>
</svg>
