<svg xmlns="http://www.w3.org/2000/svg" xmlns:xlink="http://www.w3.org/1999/xlink" viewBox="0 0 178.03 136.26"><defs><style>.cls-1{fill:#231815;}.cls-2{fill:url(#新規グラデーションスウォッチ_6);}.cls-3{fill:#3e3a39;}</style><radialGradient id="新規グラデーションスウォッチ_6" cx="68.36" cy="15.82" r="61.35" gradientUnits="userSpaceOnUse"><stop offset="0" stop-color="#30b7ea"/><stop offset="0.05" stop-color="#2ab4e9"/><stop offset="0.12" stop-color="#1baae7"/><stop offset="0.19" stop-color="#009ae3"/><stop offset="0.31" stop-color="#0094dd"/><stop offset="0.46" stop-color="#0085ce"/><stop offset="0.62" stop-color="#006ab3"/><stop offset="0.66" stop-color="#0063ac"/><stop offset="0.88" stop-color="#1d2082"/><stop offset="0.97" stop-color="#1d2082"/></radialGradient></defs><g id="文字"><circle class="cls-1" cx="74.13" cy="23.78" r="1.81"/><circle class="cls-1" cx="74.96" cy="44.04" r="3.36"/><circle class="cls-1" cx="69.61" cy="34.02" r="2.71"/><circle class="cls-1" cx="119.73" cy="30.6" r="2.71"/><path class="cls-1" d="M109.76,20.52a4.32,4.32,0,0,1-.22,3c-.72,1.49-1.15,1.74-1.65,2s-.15.76.37,1.18,1.58,1.61,2.39,1.2a6.47,6.47,0,0,0,3-6.15c-.26-2.37-1.08-2.17-2.14-2S109.74,19.84,109.76,20.52Z"/><path class="cls-1" d="M104.57,13.64a17.56,17.56,0,0,1,3,3.05A7.12,7.12,0,0,1,109.11,21c-.08,1.14-.89,3.76-2.67,4.27s-5.61.17-6.67,0,.42-1,1.48-1.91a11,11,0,0,0,2.8-4.82C104.68,16,103.55,13.07,104.57,13.64Z"/><path class="cls-1" d="M92.9,10.16s2.16,3,1.22,5.36a7,7,0,0,1-4.85,4.37c-.71.29,1.25,1.95,2.22,2.54s.72,1.29.6,2c-.27,1.46,1,2.88,2.21,2.67s3.09-.26,2.66-2.21-.38-2.46.07-2.08,1.67,1.87,3.29-1.4.51-4.45-1.49-4.24-.42-1,.6-1.49,2.7-.75,3.68-1.81,1.52-1.61,1.35-3.1-2-2-3.59-2.22a2.11,2.11,0,0,0-2.34,1.24c-.29.42-.47.65-1.61.41S92.47,9.42,92.9,10.16Z"/><path class="cls-1" d="M90.86,10.17s-3.61.08-4.88,2.71,1.4,5.69,2,6.16,3.68-.81,4.6-3.4S92.33,9.94,90.86,10.17Zm-1,3.39a1.1,1.1,0,1,1,1.1-1.1A1.11,1.11,0,0,1,89.84,13.56Z"/><path class="cls-1" d="M111.26,69.32c-17.84,7.64-38.59-1-46.19-18.75A35.18,35.18,0,0,1,83.37,4.2,34.78,34.78,0,0,1,98.2,1.38a.46.46,0,0,0,.1-.92A40,40,0,0,0,55.48,55.53c8.69,20.29,32.23,29.25,52.33,20.64a40.2,40.2,0,0,0,22.44-24.54.47.47,0,0,0-.87-.34A34.7,34.7,0,0,1,111.26,69.32Z"/><path class="cls-1" d="M95.85,48.51A10.41,10.41,0,0,1,94.94,45c.07-1.32,1.41-5.61-.6-6.74C91.23,36.48,91.78,40,91.51,42a7.07,7.07,0,0,0,1.84,5.48c1.12,1-5-2.31-4.1,0,.48,1.14-1.63.37-4,0S81.67,49.55,83.55,51s3.31,1.16,6.5,1.29c3,.12,2.55-1.16,5.81-.56S96.76,52.07,95.85,48.51Z"/><path class="cls-1" d="M104.13,48.89s-.1,2.11-1.51,2a16.56,16.56,0,0,1-7.08-3.2c-2.19-1.81-5.1-4.79-5.68-7.59s-2.06-4.14-4.11-2.6S85.56,42.61,87,44.9a21.75,21.75,0,0,0,7.42,6.28c2.29,1.06,8.61,2.57,8,4.68s-.86,5.26,1,2.56,1.95-12.08.73-9.53"/><path class="cls-1" d="M107.75,45.17a7.27,7.27,0,0,1,1.39-4.66c1.63-2.07,3.35-4.94,1.08-5.88s-3.18,1.61-4,3.32a11.11,11.11,0,0,0-1.15,4.74c0,1.33,2.67,7.07,2.64,2.48"/><path class="cls-1" d="M104,49.53s.12-1.8-3.22-2.27c-2.47-.35-5.17-2.17-3.57-3.88s3.53-.23,5,.69a9.19,9.19,0,0,1,3.14,3c.55,1,.79,6.44-1.24,3"/><path class="cls-1" d="M96.29,61.05s-1.65-.74-3.25,2.19c-1.19,2.17-3.82,4.05-4.88,2s1-3.35,2.38-4.38A9.12,9.12,0,0,1,94.45,59c1.13-.16,6.3,1.49,2.4,2.19"/><path class="cls-1" d="M118.64,54.25a7.27,7.27,0,0,1,3.47-3.42c2.42-1,5.31-2.7,3.78-4.62s-3.56-.13-5.07,1a11,11,0,0,0-3.3,3.6c-.6,1.18-1.07,7.48,1.12,3.45"/><path class="cls-1" d="M113.75,54.53s2-2.72-.27-4.84c-2-1.84-4-4.67-1.69-5.78s3.47,1.35,4.45,3a11,11,0,0,1,1.66,4.65c.07,1.32-2.1,7.26-2.52,2.68"/><path class="cls-1" d="M96.13,72.07c3.23,0,7.09-.9,6.4-3.59s-.84-3.59-2.15-4.76-1.57-1.65-5.78-1.84S81.82,60.8,81.76,57.23s5.82-1.44,7.45-1,2.05,1.09,4.45,1.19a43,43,0,0,0,6.46.25c2.25-.21,3.94-4.54,4-7.48s.48-6.51-1.36-8.12-6.46-5-5-8,7.57,3.23,8.58,4.91a13.51,13.51,0,0,1,1.93,7.54c-.32,2.67-1.48,8.5-.75,9.39s.45,2.85,2.79,1.92,5.75-6.41,6-8.27.39-6.34.8-7.24,4.7-3.5,4.4,2.32-.26,8.49-2.84,11-7.27,6.91-9.14,7.47-1.65,3.08-1,4,2.81,2.14,7.56-.34c1.17-.62,1.9.13,1,1.72C115,72.21,86.72,78.94,96.13,72.07Z"/><path class="cls-1" d="M106.41,5.94a1.62,1.62,0,0,1-.92-2.18,1.68,1.68,0,0,1,2.24-1c.65.26.93.82.84,1a.28.28,0,0,1-.35.15.24.24,0,0,1-.16-.2.91.91,0,0,0-.56-.56,1.14,1.14,0,0,0-1.51.7,1.13,1.13,0,0,0,.59,1.54,1.09,1.09,0,0,0,.92,0,.26.26,0,0,1,.25,0,.31.31,0,0,1,.16.38A1.31,1.31,0,0,1,106.41,5.94Z"/><path class="cls-1" d="M108.81,5.12a1.7,1.7,0,1,1,3,1.6,1.7,1.7,0,1,1-3-1.6Zm2.53,1.35a1.18,1.18,0,1,0-2.08-1.11,1.18,1.18,0,1,0,2.08,1.11Z"/><path class="cls-1" d="M113.11,7.73l-.2-.14c-.07,0-.12-.08-.17,0l-.66,1a.24.24,0,0,1-.35.06.22.22,0,0,1-.07-.32h0c.24-.33.53-.77.8-1.17l.64-1c.32-.46.74-.18,1.05,0l.22.16a.93.93,0,0,1,.35,1.29.82.82,0,0,1-1,.33h0s0,.05,0,.1a5.41,5.41,0,0,1,0,.9.48.48,0,0,0,.14.43.28.28,0,0,1,.05.35.26.26,0,0,1-.38.06.89.89,0,0,1-.31-.86C113.22,8.41,113.28,7.85,113.11,7.73Zm1.18-.32c.13-.19.11-.46-.2-.69l-.18-.13c-.2-.13-.34-.21-.46,0s-.24.35-.39.55,0,.11.26.28c.09.07.19.12.26.17A.55.55,0,0,0,114.29,7.41Z"/><path class="cls-1" d="M115.8,11.63a.27.27,0,0,1-.1-.29c0-.13.17-.48.31-.88,0,0,0-.05,0-.06l-.35-.29-.51-.4a.08.08,0,0,0-.07,0l-.76.52a.24.24,0,0,1-.3,0,.22.22,0,0,1-.06-.32,23.42,23.42,0,0,1,2.52-1.61.39.39,0,0,1,.48,0,.43.43,0,0,1,.13.49c-.27.8-.77,2.35-.87,2.71a.23.23,0,0,1-.06.12A.25.25,0,0,1,115.8,11.63Zm.41-1.71.38-1c0-.08,0-.13,0-.14s-.06,0-.14.05-.89.56-.92.59,0,0,0,0l.32.25.29.23s0,0,0,0Z"/><path class="cls-1" d="M118.47,9.88a.24.24,0,0,1,.35,0,.25.25,0,0,1,0,.37h0c-.2.2-.83.87-1.25,1.32l-.35.39c-.13.17,0,.23.39.64.18.17.39.36.46.41v0a.23.23,0,0,1,0,.33.25.25,0,0,1-.37,0l-.43-.39-.42-.39c-.27-.3-.35-.57-.1-.86.06-.07.15-.18.26-.29.41-.45,1.08-1.15,1.37-1.46l.06-.07Z"/><path class="cls-1" d="M119.72,15.56c-.47-.54-.4-1.09-.24-1.23a.25.25,0,0,1,.36,0,.24.24,0,0,1,0,.21.76.76,0,0,0,.2.68.51.51,0,0,0,.75.13.59.59,0,0,0,.15-.57c0-.22-.11-.49-.18-.73a.9.9,0,0,1,.22-.95.88.88,0,0,1,1.26.17c.4.45.41.91.25,1a.25.25,0,0,1-.35,0,.32.32,0,0,1-.06-.23.61.61,0,0,0-.18-.51.4.4,0,0,0-.58-.1.47.47,0,0,0-.11.47c0,.2.14.52.19.74a1.06,1.06,0,0,1-.26,1.07A1,1,0,0,1,119.72,15.56Z"/><path class="cls-1" d="M122.63,18.83a.23.23,0,0,1-.33-.07.23.23,0,0,1,0-.33h0l.46-.34c.22-.16.41-.3.5-.38s0-.06,0-.11-.23-.34-.39-.55l-.51-.67s-.05-.06-.1,0-.29.2-.52.37l-.46.35h0A.23.23,0,0,1,121,17a.23.23,0,0,1,0-.33h0l1.29-.94,1-.79a.25.25,0,0,1,.31.4h0l-.41.29-.43.34c-.06,0,0,.07,0,.1s.24.34.43.59l.49.65s.07,0,.11,0l.44-.32.4-.31a.23.23,0,0,1,.34.06.23.23,0,0,1,0,.34h0l-1,.75-1.29,1Z"/><path class="cls-1" d="M124.23,18.6A1.7,1.7,0,1,1,126,21.51a1.7,1.7,0,1,1-1.74-2.91Zm1.47,2.46a1.16,1.16,0,0,0,.47-1.65,1.25,1.25,0,1,0-.47,1.65Z"/><path class="cls-1" d="M124.93,23.16a.24.24,0,0,1,.09-.33h0c.32-.13.67-.3,1-.46l1.07-.53c.49-.23.75-.35,1.13.43a1.71,1.71,0,0,1,.09.22,1,1,0,0,1-.45,1.35,1,1,0,0,1-1.36-.41,2.49,2.49,0,0,1-.15-.28,1.33,1.33,0,0,1-.11-.3s0,0,0,0,0,0-.06,0l-.78.39-.15.07A.24.24,0,0,1,124.93,23.16Zm2.88-.7c-.15-.32-.21-.33-.58-.16l-.44.22-.06,0c-.09,0-.08.13,0,.38,0,.08.08.16.13.24a.6.6,0,0,0,.79.21.5.5,0,0,0,.21-.73A1.92,1.92,0,0,0,127.81,22.46Z"/><path class="cls-1" d="M126.94,28.1A1.61,1.61,0,0,1,128,26,1.67,1.67,0,0,1,130.17,27c.23.66,0,1.24-.23,1.32a.27.27,0,0,1-.34-.17.26.26,0,0,1,0-.25.91.91,0,0,0,.06-.79,1.17,1.17,0,0,0-1.53-.68,1.14,1.14,0,0,0-.76,1.47,1,1,0,0,0,.62.68.26.26,0,0,1,.18.17.3.3,0,0,1-.17.37C127.82,29.2,127.2,28.86,126.94,28.1Z"/><path class="cls-1" d="M129.14,29.35a1.7,1.7,0,1,1,.77,3.31,1.7,1.7,0,1,1-.77-3.31Zm.65,2.8a1.18,1.18,0,1,0-1.48-.86A1.18,1.18,0,0,0,129.79,32.15Z"/><path class="cls-1" d="M131.41,33.25a.24.24,0,0,1,.29.2.25.25,0,0,1-.23.29h0c-.28,0-1.2.14-1.8.23l-.52.08c-.2.05-.19.14-.11.73,0,.26.08.53.1.62v0a.22.22,0,0,1-.2.26.25.25,0,0,1-.28-.23c0-.06-.06-.32-.09-.57s-.07-.51-.07-.57c0-.4.08-.66.46-.73l.39-.06,2-.26Z"/><path class="cls-1" d="M130.38,36a1.7,1.7,0,1,1,.18,3.39,1.7,1.7,0,1,1-.18-3.39Zm.15,2.87a1.18,1.18,0,1,0-1.3-1.11A1.17,1.17,0,0,0,130.53,38.89Z"/><path class="cls-1" d="M129.09,40.11l1.49.08,1.19,0h0c.31,0,.42.19.41.39A.54.54,0,0,1,132,41c-.46.25-1.86.93-2.38,1.24q-.06,0-.06.06s0,0,.18,0l2.19.08a.23.23,0,0,1,.23.26.25.25,0,0,1-.24.25h0c-.31,0-.73-.05-1.17-.07s-1.14,0-1.52,0h0a.41.41,0,0,1-.4-.42.45.45,0,0,1,.24-.37c.5-.29,2-1,2.45-1.26,0,0,.09,0,.09-.07s0,0-.25,0l-2.22-.08h0c-.14,0-.2-.13-.19-.26a.22.22,0,0,1,.22-.24Z"/><path class="cls-1" d="M129.86,44.59a.19.19,0,0,0,.15,0l1.58-.78.16,0a.28.28,0,0,1,.23.31.25.25,0,0,1-.16.2c-.35.14-.84.38-1.34.62,0,0,0,0,0,0a.14.14,0,0,0,0,.06,14.54,14.54,0,0,0,1.13,1,.22.22,0,0,1,.1.21.3.3,0,0,1-.31.25.18.18,0,0,1-.12-.05c-.29-.24-.95-.83-1.31-1.17a.21.21,0,0,0-.16-.07L128.73,45a.27.27,0,0,1,.09-.54Z"/><circle class="cls-2" cx="74.13" cy="23.78" r="1.81"/><circle class="cls-2" cx="74.96" cy="44.04" r="3.36"/><circle class="cls-2" cx="69.61" cy="34.02" r="2.71"/><circle class="cls-2" cx="119.73" cy="30.6" r="2.71"/><path class="cls-2" d="M109.76,20.52a4.32,4.32,0,0,1-.22,3c-.72,1.49-1.15,1.74-1.65,2s-.15.76.37,1.18,1.58,1.61,2.39,1.2a6.47,6.47,0,0,0,3-6.15c-.26-2.37-1.08-2.17-2.14-2S109.74,19.84,109.76,20.52Z"/><path class="cls-2" d="M104.57,13.64a17.56,17.56,0,0,1,3,3.05A7.12,7.12,0,0,1,109.11,21c-.08,1.14-.89,3.76-2.67,4.27s-5.61.17-6.67,0,.42-1,1.48-1.91a11,11,0,0,0,2.8-4.82C104.68,16,103.55,13.07,104.57,13.64Z"/><path class="cls-2" d="M92.9,10.16s2.16,3,1.22,5.36a7,7,0,0,1-4.85,4.37c-.71.29,1.25,1.95,2.22,2.54s.72,1.29.6,2c-.27,1.46,1,2.88,2.21,2.67s3.09-.26,2.66-2.21-.38-2.46.07-2.08,1.67,1.87,3.29-1.4.51-4.45-1.49-4.24-.42-1,.6-1.49,2.7-.75,3.68-1.81,1.52-1.61,1.35-3.1-2-2-3.59-2.22a2.11,2.11,0,0,0-2.34,1.24c-.29.42-.47.65-1.61.41S92.47,9.42,92.9,10.16Z"/><path class="cls-2" d="M90.86,10.17s-3.61.08-4.88,2.71,1.4,5.69,2,6.16,3.68-.81,4.6-3.4S92.33,9.94,90.86,10.17Zm-1,3.39a1.1,1.1,0,1,1,1.1-1.1A1.11,1.11,0,0,1,89.84,13.56Z"/><path class="cls-2" d="M90.86,10.17s-3.61.08-4.88,2.71,1.4,5.69,2,6.16,3.68-.81,4.6-3.4S92.33,9.94,90.86,10.17Zm-1,3.39a1.1,1.1,0,1,1,1.1-1.1A1.11,1.11,0,0,1,89.84,13.56Z"/><path class="cls-2" d="M90.86,10.17s-3.61.08-4.88,2.71,1.4,5.69,2,6.16,3.68-.81,4.6-3.4S92.33,9.94,90.86,10.17Zm-1,3.39a1.1,1.1,0,1,1,1.1-1.1A1.11,1.11,0,0,1,89.84,13.56Z"/><path class="cls-2" d="M111.26,69.32c-17.84,7.64-38.59-1-46.19-18.75A35.18,35.18,0,0,1,83.37,4.2,34.78,34.78,0,0,1,98.2,1.38a.46.46,0,0,0,.1-.92A40,40,0,0,0,55.48,55.53c8.69,20.29,32.23,29.25,52.33,20.64a40.2,40.2,0,0,0,22.44-24.54.47.47,0,0,0-.87-.34A34.7,34.7,0,0,1,111.26,69.32Z"/><path class="cls-2" d="M95.85,48.51A10.41,10.41,0,0,1,94.94,45c.07-1.32,1.41-5.61-.6-6.74C91.23,36.48,91.78,40,91.51,42a7.07,7.07,0,0,0,1.84,5.48c1.12,1-5-2.31-4.1,0,.48,1.14-1.63.37-4,0S81.67,49.55,83.55,51s3.31,1.16,6.5,1.29c3,.12,2.55-1.16,5.81-.56S96.76,52.07,95.85,48.51Z"/><path class="cls-2" d="M104.13,48.89s-.1,2.11-1.51,2a16.56,16.56,0,0,1-7.08-3.2c-2.19-1.81-5.1-4.79-5.68-7.59s-2.06-4.14-4.11-2.6S85.56,42.61,87,44.9a21.75,21.75,0,0,0,7.42,6.28c2.29,1.06,8.61,2.57,8,4.68s-.86,5.26,1,2.56,1.95-12.08.73-9.53"/><path class="cls-2" d="M107.75,45.17a7.27,7.27,0,0,1,1.39-4.66c1.63-2.07,3.35-4.94,1.08-5.88s-3.18,1.61-4,3.32a11.11,11.11,0,0,0-1.15,4.74c0,1.33,2.67,7.07,2.64,2.48"/><path class="cls-2" d="M104,49.53s.12-1.8-3.22-2.27c-2.47-.35-5.17-2.17-3.57-3.88s3.53-.23,5,.69a9.19,9.19,0,0,1,3.14,3c.55,1,.79,6.44-1.24,3"/><path class="cls-2" d="M96.29,61.05s-1.65-.74-3.25,2.19c-1.19,2.17-3.82,4.05-4.88,2s1-3.35,2.38-4.38A9.12,9.12,0,0,1,94.45,59c1.13-.16,6.3,1.49,2.4,2.19"/><path class="cls-2" d="M118.64,54.25a7.27,7.27,0,0,1,3.47-3.42c2.42-1,5.31-2.7,3.78-4.62s-3.56-.13-5.07,1a11,11,0,0,0-3.3,3.6c-.6,1.18-1.07,7.48,1.12,3.45"/><path class="cls-2" d="M113.75,54.53s2-2.72-.27-4.84c-2-1.84-4-4.67-1.69-5.78s3.47,1.35,4.45,3a11,11,0,0,1,1.66,4.65c.07,1.32-2.1,7.26-2.52,2.68"/><path class="cls-2" d="M96.13,72.07c3.23,0,7.09-.9,6.4-3.59s-.84-3.59-2.15-4.76-1.57-1.65-5.78-1.84S81.82,60.8,81.76,57.23s5.82-1.44,7.45-1,2.05,1.09,4.45,1.19a43,43,0,0,0,6.46.25c2.25-.21,3.94-4.54,4-7.48s.48-6.51-1.36-8.12-6.46-5-5-8,7.57,3.23,8.58,4.91a13.51,13.51,0,0,1,1.93,7.54c-.32,2.67-1.48,8.5-.75,9.39s.45,2.85,2.79,1.92,5.75-6.41,6-8.27.39-6.34.8-7.24,4.7-3.5,4.4,2.32-.26,8.49-2.84,11-7.27,6.91-9.14,7.47-1.65,3.08-1,4,2.81,2.14,7.56-.34c1.17-.62,1.9.13,1,1.72C115,72.21,86.72,78.94,96.13,72.07Z"/><path class="cls-2" d="M106.41,5.94a1.62,1.62,0,0,1-.92-2.18,1.68,1.68,0,0,1,2.24-1c.65.26.93.82.84,1a.28.28,0,0,1-.35.15.24.24,0,0,1-.16-.2.91.91,0,0,0-.56-.56,1.14,1.14,0,0,0-1.51.7,1.13,1.13,0,0,0,.59,1.54,1.09,1.09,0,0,0,.92,0,.26.26,0,0,1,.25,0,.31.31,0,0,1,.16.38A1.31,1.31,0,0,1,106.41,5.94Z"/><path class="cls-2" d="M108.81,5.12a1.7,1.7,0,1,1,3,1.6,1.7,1.7,0,1,1-3-1.6Zm2.53,1.35a1.18,1.18,0,1,0-2.08-1.11,1.18,1.18,0,1,0,2.08,1.11Z"/><path class="cls-2" d="M113.11,7.73l-.2-.14c-.07,0-.12-.08-.17,0l-.66,1a.24.24,0,0,1-.35.06.22.22,0,0,1-.07-.32h0c.24-.33.53-.77.8-1.17l.64-1c.32-.46.74-.18,1.05,0l.22.16a.93.93,0,0,1,.35,1.29.82.82,0,0,1-1,.33h0s0,.05,0,.1a5.41,5.41,0,0,1,0,.9.48.48,0,0,0,.14.43.28.28,0,0,1,.05.35.26.26,0,0,1-.38.06.89.89,0,0,1-.31-.86C113.22,8.41,113.28,7.85,113.11,7.73Zm1.18-.32c.13-.19.11-.46-.2-.69l-.18-.13c-.2-.13-.34-.21-.46,0s-.24.35-.39.55,0,.11.26.28c.09.07.19.12.26.17A.55.55,0,0,0,114.29,7.41Z"/><path class="cls-2" d="M115.8,11.63a.27.27,0,0,1-.1-.29c0-.13.17-.48.31-.88,0,0,0-.05,0-.06l-.35-.29-.51-.4a.08.08,0,0,0-.07,0l-.76.52a.24.24,0,0,1-.3,0,.22.22,0,0,1-.06-.32,23.42,23.42,0,0,1,2.52-1.61.39.39,0,0,1,.48,0,.43.43,0,0,1,.13.49c-.27.8-.77,2.35-.87,2.71a.23.23,0,0,1-.06.12A.25.25,0,0,1,115.8,11.63Zm.41-1.71.38-1c0-.08,0-.13,0-.14s-.06,0-.14.05-.89.56-.92.59,0,0,0,0l.32.25.29.23s0,0,0,0Z"/><path class="cls-2" d="M118.47,9.88a.24.24,0,0,1,.35,0,.25.25,0,0,1,0,.37h0c-.2.2-.83.87-1.25,1.32l-.35.39c-.13.17,0,.23.39.64.18.17.39.36.46.41v0a.23.23,0,0,1,0,.33.25.25,0,0,1-.37,0l-.43-.39-.42-.39c-.27-.3-.35-.57-.1-.86.06-.07.15-.18.26-.29.41-.45,1.08-1.15,1.37-1.46l.06-.07Z"/><path class="cls-2" d="M119.72,15.56c-.47-.54-.4-1.09-.24-1.23a.25.25,0,0,1,.36,0,.24.24,0,0,1,0,.21.76.76,0,0,0,.2.68.51.51,0,0,0,.75.13.59.59,0,0,0,.15-.57c0-.22-.11-.49-.18-.73a.9.9,0,0,1,.22-.95.88.88,0,0,1,1.26.17c.4.45.41.91.25,1a.25.25,0,0,1-.35,0,.32.32,0,0,1-.06-.23.61.61,0,0,0-.18-.51.4.4,0,0,0-.58-.1.47.47,0,0,0-.11.47c0,.2.14.52.19.74a1.06,1.06,0,0,1-.26,1.07A1,1,0,0,1,119.72,15.56Z"/><path class="cls-2" d="M122.63,18.83a.23.23,0,0,1-.33-.07.23.23,0,0,1,0-.33h0l.46-.34c.22-.16.41-.3.5-.38s0-.06,0-.11-.23-.34-.39-.55l-.51-.67s-.05-.06-.1,0-.29.2-.52.37l-.46.35h0A.23.23,0,0,1,121,17a.23.23,0,0,1,0-.33h0l1.29-.94,1-.79a.25.25,0,0,1,.31.4h0l-.41.29-.43.34c-.06,0,0,.07,0,.1s.24.34.43.59l.49.65s.07,0,.11,0l.44-.32.4-.31a.23.23,0,0,1,.34.06.23.23,0,0,1,0,.34h0l-1,.75-1.29,1Z"/><path class="cls-2" d="M124.23,18.6A1.7,1.7,0,1,1,126,21.51a1.7,1.7,0,1,1-1.74-2.91Zm1.47,2.46a1.16,1.16,0,0,0,.47-1.65,1.25,1.25,0,1,0-.47,1.65Z"/><path class="cls-2" d="M124.93,23.16a.24.24,0,0,1,.09-.33h0c.32-.13.67-.3,1-.46l1.07-.53c.49-.23.75-.35,1.13.43a1.71,1.71,0,0,1,.09.22,1,1,0,0,1-.45,1.35,1,1,0,0,1-1.36-.41,2.49,2.49,0,0,1-.15-.28,1.33,1.33,0,0,1-.11-.3s0,0,0,0,0,0-.06,0l-.78.39-.15.07A.24.24,0,0,1,124.93,23.16Zm2.88-.7c-.15-.32-.21-.33-.58-.16l-.44.22-.06,0c-.09,0-.08.13,0,.38,0,.08.08.16.13.24a.6.6,0,0,0,.79.21.5.5,0,0,0,.21-.73A1.92,1.92,0,0,0,127.81,22.46Z"/><path class="cls-2" d="M126.94,28.1A1.61,1.61,0,0,1,128,26,1.67,1.67,0,0,1,130.17,27c.23.66,0,1.24-.23,1.32a.27.27,0,0,1-.34-.17.26.26,0,0,1,0-.25.91.91,0,0,0,.06-.79,1.17,1.17,0,0,0-1.53-.68,1.14,1.14,0,0,0-.76,1.47,1,1,0,0,0,.62.68.26.26,0,0,1,.18.17.3.3,0,0,1-.17.37C127.82,29.2,127.2,28.86,126.94,28.1Z"/><path class="cls-2" d="M129.14,29.35a1.7,1.7,0,1,1,.77,3.31,1.7,1.7,0,1,1-.77-3.31Zm.65,2.8a1.18,1.18,0,1,0-1.48-.86A1.18,1.18,0,0,0,129.79,32.15Z"/><path class="cls-2" d="M131.41,33.25a.24.24,0,0,1,.29.2.25.25,0,0,1-.23.29h0c-.28,0-1.2.14-1.8.23l-.52.08c-.2.05-.19.14-.11.73,0,.26.08.53.1.62v0a.22.22,0,0,1-.2.26.25.25,0,0,1-.28-.23c0-.06-.06-.32-.09-.57s-.07-.51-.07-.57c0-.4.08-.66.46-.73l.39-.06,2-.26Z"/><path class="cls-2" d="M130.38,36a1.7,1.7,0,1,1,.18,3.39,1.7,1.7,0,1,1-.18-3.39Zm.15,2.87a1.18,1.18,0,1,0-1.3-1.11A1.17,1.17,0,0,0,130.53,38.89Z"/><path class="cls-2" d="M129.09,40.11l1.49.08,1.19,0h0c.31,0,.42.19.41.39A.54.54,0,0,1,132,41c-.46.25-1.86.93-2.38,1.24q-.06,0-.06.06s0,0,.18,0l2.19.08a.23.23,0,0,1,.23.26.25.25,0,0,1-.24.25h0c-.31,0-.73-.05-1.17-.07s-1.14,0-1.52,0h0a.41.41,0,0,1-.4-.42.45.45,0,0,1,.24-.37c.5-.29,2-1,2.45-1.26,0,0,.09,0,.09-.07s0,0-.25,0l-2.22-.08h0c-.14,0-.2-.13-.19-.26a.22.22,0,0,1,.22-.24Z"/><path class="cls-2" d="M129.86,44.59a.19.19,0,0,0,.15,0l1.58-.78.16,0a.28.28,0,0,1,.23.31.25.25,0,0,1-.16.2c-.35.14-.84.38-1.34.62,0,0,0,0,0,0a.14.14,0,0,0,0,.06,14.54,14.54,0,0,0,1.13,1,.22.22,0,0,1,.1.21.3.3,0,0,1-.31.25.18.18,0,0,1-.12-.05c-.29-.24-.95-.83-1.31-1.17a.21.21,0,0,0-.16-.07L128.73,45a.27.27,0,0,1,.09-.54Z"/><path class="cls-3" d="M38.72,124.86A19.32,19.32,0,0,1,23.06,133a19.59,19.59,0,0,1,0-39.17,19.22,19.22,0,0,1,15.66,8V96.66a22.84,22.84,0,1,0,0,33.53Z"/><path class="cls-3" d="M20.58,119.64a5.93,5.93,0,0,1,0-2c.22-.69,1.53-2.81.61-3.69-1.43-1.36-1.62.61-2,1.65a3.93,3.93,0,0,0,.23,3.19c.46.69-2.38-1.93-2.19-.58.1.68-.92,0-2.12-.57a1.11,1.11,0,0,0-1.42,1.69c.81,1,1.62,1.07,3.31,1.58s1.52-.27,3.18.5S20.58,121.67,20.58,119.64Z"/><path class="cls-3" d="M25,121s-.34,1.11-1.08.85a9.29,9.29,0,0,1-3.36-2.69c-.92-1.27-2.07-3.27-2-4.85s-.53-2.5-1.84-2-.81,2.73-.35,4.15a12,12,0,0,0,3.12,4.39c1.07.88,4.25,2.56,3.64,3.61s-1.18,2.69.17,1.5,2.7-6.2,1.7-5"/><path class="cls-3" d="M27.42,119.48a4,4,0,0,1,1.38-2.3c1.16-.89,2.48-2.19,1.39-3s-1.92.42-2.58,1.23a6.18,6.18,0,0,0-1.27,2.38c-.15.72.46,4.15,1.08,1.69"/><path class="cls-3" d="M24.82,121.3s.32-.94-1.41-1.66c-1.27-.52-2.47-1.86-1.38-2.56s1.92.36,2.58,1a5,5,0,0,1,1.26,2c.16.61-.46,3.56-1.07,1.45"/><path class="cls-3" d="M19.09,126.41s-.78-.62-2,.73c-.93,1-2.6,1.64-2.88.39s1-1.66,1.87-2a5,5,0,0,1,2.35-.47c.63.07,3.18,1.67,1,1.51"/><path class="cls-3" d="M32,125.84a4,4,0,0,1,2.33-1.35c1.44-.22,3.22-.72,2.66-2s-1.89-.56-2.85-.17a6,6,0,0,0-2.26,1.48c-.48.55-1.61,3.86.12,2"/><path class="cls-3" d="M29.35,125.32a2,2,0,0,0,.52-2.63c-.82-1.26-1.49-3-.12-3.33s1.67,1.2,2,2.22A6.08,6.08,0,0,1,32,124.3c-.15.72-2.13,3.6-1.72,1.09"/><path class="cls-3" d="M19.69,132.83s1.73-.05,1.73-1.58,0-2-.5-2.84-.62-1.1-2.85-1.79-6.69-2.33-6.23-4.25,3.31,0,4.12.49a7.3,7.3,0,0,0,2.22,1.25,25.1,25.1,0,0,0,3.43,1c1.23.19,2.73-1.9,3.16-3.47s1.15-3.42.38-4.54-2.77-3.57-1.58-5,3.62,2.77,3.93,3.81a7.59,7.59,0,0,1,0,4.31c-.54,1.38-2,4.35-1.7,4.92s-.15,1.6,1.23,1.41,4-2.64,4.35-3.6a37.36,37.36,0,0,1,1.42-3.77c.35-.42,3-1.23,2,1.85s-1.31,4.51-3,5.52-4.84,2.71-5.92,2.75-1.31,1.42-1.11,2a1.9,1.9,0,0,0,1.76,1c.74,0,2,.3,1.31,1S16.84,135.71,19.69,132.83Z"/><path class="cls-3" d="M53.61,94.69a4,4,0,0,0-2.85-1.24,3.87,3.87,0,0,0,0,7.74A4.09,4.09,0,0,0,53.61,100v1.29a4.79,4.79,0,0,1-2.79.91,4.84,4.84,0,1,1,0-9.67,4.5,4.5,0,0,1,2.79.92Z"/><path class="cls-3" d="M70.86,97.33A4.88,4.88,0,1,1,66,92.48,4.85,4.85,0,0,1,70.86,97.33Zm-8.71,0A3.83,3.83,0,1,0,66,93.45,3.87,3.87,0,0,0,62.15,97.32Z"/><path class="cls-3" d="M79.51,102h-1V92.64h1.35c1.78,0,3.43.47,3.43,2.58A2.44,2.44,0,0,1,80.9,97.8l3,4.19H82.6l-2.83-4.1h-.26Zm0-5h.33c1.17,0,2.37-.22,2.37-1.68s-1.13-1.68-2.39-1.68h-.31Z"/><path class="cls-3" d="M92.8,99.34,91.67,102H90.53l4.32-9.8,4.2,9.8H97.9l-1.11-2.65Zm2-4.72-1.6,3.75h3.16Z"/><path class="cls-3" d="M107.31,101h2.58v1h-3.62V92.64h1Z"/><path class="cls-3" d="M131.39,94.46a1.72,1.72,0,0,0-1.61-1,1.48,1.48,0,0,0-1.55,1.45c0,.8.83,1.18,1.46,1.46l.62.27c1.22.54,2.25,1.14,2.25,2.63a3,3,0,0,1-5.86.47l1-.28a1.93,1.93,0,0,0,1.87,1.74,1.88,1.88,0,0,0,1.92-1.83c0-1.09-.85-1.46-1.72-1.86l-.57-.25c-1.09-.49-2-1-2-2.39a2.46,2.46,0,0,1,2.62-2.38,2.69,2.69,0,0,1,2.42,1.45Z"/><path class="cls-3" d="M146.16,96.44v-3.8h1.05V102h-1.05V97.4h-4.79V102h-1V92.64h1v3.8Z"/><path class="cls-3" d="M164.62,97.33a4.88,4.88,0,1,1-4.87-4.85A4.85,4.85,0,0,1,164.62,97.33Zm-8.71,0a3.84,3.84,0,1,0,3.84-3.87A3.87,3.87,0,0,0,155.91,97.32Z"/><path class="cls-3" d="M173.28,102h-1V92.64h1.53a3.87,3.87,0,0,1,2.32.5,2.56,2.56,0,0,1,1.06,2.13,2.61,2.61,0,0,1-.9,2,3.36,3.36,0,0,1-2.22.62h-.75Zm0-5.06H174c1.16,0,2.14-.35,2.14-1.69,0-1.52-1.23-1.63-2.45-1.63h-.38Z"/><path class="cls-3" d="M73,120.24A14,14,0,1,1,59,106.3,13.94,13.94,0,0,1,73,120.24Zm-25,0a11,11,0,1,0,11-11.12A11.12,11.12,0,0,0,48,120.2Z"/><path class="cls-3" d="M80,130.86H92.92v2.78H77V106.76h3Z"/><path class="cls-3" d="M124.63,120.24a14,14,0,1,1-14-13.94A13.95,13.95,0,0,1,124.63,120.24Zm-25,0a11,11,0,1,0,11-11.12A11.12,11.12,0,0,0,99.6,120.2Z"/><path class="cls-3" d="M129.58,105.63l21,22V106.77h3v28.08l-21-21.92v20.71h-3Z"/><path class="cls-3" d="M157.43,106.77h3.45l6.85,12,6.84-12H178l-8.8,15.32v11.55h-3V122.09Z"/></g></svg>