<?xml version="1.0" encoding="utf-8"?>
<!-- Generator: Adobe Illustrator 26.0.2, SVG Export Plug-In . SVG Version: 6.00 Build 0)  -->
<svg version="1.1" id="レイヤー_1" xmlns="http://www.w3.org/2000/svg" xmlns:xlink="http://www.w3.org/1999/xlink" x="0px"
	 y="0px" viewBox="0 0 178.03 45.68" style="enable-background:new 0 0 178.03 45.68;" xml:space="preserve">
<style type="text/css">
	.st0{fill:#3E3A39;}
</style>
<g id="文字">
	<path class="st0" d="M38.72,34.28c-3.6,5.08-9.43,8.11-15.66,8.14C12.24,42.17,3.67,33.2,3.92,22.39
		C4.15,11.92,12.59,3.48,23.06,3.25c6.21-0.02,12.04,2.96,15.66,8V6.08C29.46-2.49,15.01-1.93,6.44,7.33S-1.56,31.04,7.7,39.61
		c8.75,8.1,22.27,8.1,31.02,0V34.28z"/>
	<path class="st0" d="M20.58,29.06c-0.11-0.66-0.11-1.34,0-2c0.22-0.69,1.53-2.81,0.61-3.69c-1.43-1.36-1.62,0.61-2,1.65
		c-0.38,1.05-0.3,2.21,0.23,3.19c0.46,0.69-2.38-1.93-2.19-0.58c0.1,0.68-0.92,0-2.12-0.57c-0.51-0.34-1.2-0.21-1.54,0.3
		c-0.29,0.43-0.24,1.01,0.12,1.39c0.81,1,1.62,1.07,3.31,1.58s1.52-0.27,3.18,0.5S20.58,31.09,20.58,29.06z"/>
	<path class="st0" d="M25,30.42c0,0-0.34,1.11-1.08,0.85c-1.32-0.62-2.47-1.54-3.36-2.69c-0.92-1.27-2.07-3.27-2-4.85
		s-0.53-2.5-1.84-2s-0.81,2.73-0.35,4.15c0.69,1.68,1.76,3.18,3.12,4.39c1.07,0.88,4.25,2.56,3.64,3.61s-1.18,2.69,0.17,1.5
		s2.7-6.2,1.7-5"/>
	<path class="st0" d="M27.42,28.9c0.18-0.9,0.67-1.72,1.38-2.3c1.16-0.89,2.48-2.19,1.39-3s-1.92,0.42-2.58,1.23
		c-0.59,0.69-1.03,1.5-1.27,2.38C26.19,27.93,26.8,31.36,27.42,28.9"/>
	<path class="st0" d="M24.82,30.72c0,0,0.32-0.94-1.41-1.66c-1.27-0.52-2.47-1.86-1.38-2.56s1.92,0.36,2.58,1
		c0.57,0.56,1.01,1.24,1.26,2c0.16,0.61-0.46,3.56-1.07,1.45"/>
	<path class="st0" d="M19.09,35.83c0,0-0.78-0.62-2,0.73c-0.93,1-2.6,1.64-2.88,0.39s1-1.66,1.87-2c0.73-0.34,1.54-0.51,2.35-0.47
		c0.63,0.07,3.18,1.67,1,1.51"/>
	<path class="st0" d="M32,35.26c0.6-0.71,1.42-1.18,2.33-1.35c1.44-0.22,3.22-0.72,2.66-2s-1.89-0.56-2.85-0.17
		c-0.86,0.32-1.63,0.82-2.26,1.48c-0.48,0.55-1.61,3.86,0.12,2"/>
	<path class="st0" d="M29.35,34.74c0.82-0.61,1.05-1.75,0.52-2.63c-0.82-1.26-1.49-3-0.12-3.33s1.67,1.2,2,2.22
		c0.29,0.88,0.37,1.81,0.25,2.72c-0.15,0.72-2.13,3.6-1.72,1.09"/>
	<path class="st0" d="M19.69,42.25c0,0,1.73-0.05,1.73-1.58s0-2-0.5-2.84s-0.62-1.1-2.85-1.79s-6.69-2.33-6.23-4.25
		s3.31,0,4.12,0.49c0.66,0.54,1.41,0.97,2.22,1.25c1.12,0.41,2.26,0.75,3.43,1c1.23,0.19,2.73-1.9,3.16-3.47s1.15-3.42,0.38-4.54
		s-2.77-3.57-1.58-5s3.62,2.77,3.93,3.81c0.42,1.41,0.42,2.9,0,4.31c-0.54,1.38-2,4.35-1.7,4.92s-0.15,1.6,1.23,1.41
		s4-2.64,4.35-3.6c0.41-1.28,0.88-2.54,1.42-3.77c0.35-0.42,3-1.23,2,1.85s-1.31,4.51-3,5.52s-4.84,2.71-5.92,2.75
		s-1.31,1.42-1.11,2c0.35,0.64,1.03,1.03,1.76,1c0.74,0,2,0.3,1.31,1S16.84,45.13,19.69,42.25z"/>
	<path class="st0" d="M53.61,4.11c-0.74-0.78-1.77-1.23-2.85-1.24c-2.14,0-3.87,1.74-3.87,3.87c0,2.14,1.73,3.87,3.87,3.87
		c1.07-0.01,2.09-0.44,2.85-1.19v1.29c-0.81,0.59-1.79,0.91-2.79,0.91c-2.67,0.12-4.93-1.94-5.05-4.62
		c-0.12-2.67,1.94-4.93,4.62-5.05c0.15-0.01,0.29-0.01,0.44,0c1.01-0.01,1.99,0.31,2.79,0.92V4.11z"/>
	<path class="st0" d="M70.86,6.75c0.02,2.7-2.15,4.89-4.85,4.91c-2.7,0.02-4.89-2.15-4.91-4.85c-0.02-2.7,2.15-4.89,4.85-4.91
		c0.02,0,0.03,0,0.05,0c2.68-0.01,4.85,2.16,4.86,4.84C70.86,6.74,70.86,6.74,70.86,6.75z M62.15,6.75
		c0.03,2.12,1.76,3.81,3.88,3.78c2.12-0.03,3.81-1.76,3.78-3.88C69.78,4.56,68.09,2.88,66,2.87c-2.13,0.01-3.85,1.74-3.85,3.87V6.75
		z"/>
	<path class="st0" d="M79.51,11.42h-1V2.06h1.35c1.78,0,3.43,0.47,3.43,2.58c0.08,1.35-0.95,2.5-2.3,2.58c-0.03,0-0.06,0-0.09,0
		l3,4.19h-1.3l-2.83-4.1h-0.26L79.51,11.42z M79.51,6.42h0.33c1.17,0,2.37-0.22,2.37-1.68s-1.13-1.68-2.39-1.68h-0.31L79.51,6.42z"
		/>
	<path class="st0" d="M92.8,8.76l-1.13,2.66h-1.14l4.32-9.8l4.2,9.8H97.9l-1.11-2.65L92.8,8.76z M94.8,4.04l-1.6,3.75h3.16
		L94.8,4.04z"/>
	<path class="st0" d="M107.31,10.42h2.58v1h-3.62V2.06h1L107.31,10.42z"/>
	<path class="st0" d="M131.39,3.88c-0.29-0.63-0.92-1.02-1.61-1c-0.82-0.04-1.51,0.59-1.55,1.41c0,0.01,0,0.03,0,0.04
		c0,0.8,0.83,1.18,1.46,1.46l0.62,0.27c1.22,0.54,2.25,1.14,2.25,2.63c-0.2,1.64-1.7,2.82-3.34,2.61c-1.19-0.15-2.19-0.99-2.52-2.14
		l1-0.28c0.1,0.97,0.9,1.71,1.87,1.74c1.03,0.02,1.89-0.8,1.92-1.83c0-1.09-0.85-1.46-1.72-1.86l-0.57-0.25c-1.09-0.49-2-1-2-2.39
		c0.04-1.36,1.18-2.43,2.53-2.38c0.03,0,0.06,0,0.09,0c1.02-0.01,1.95,0.55,2.42,1.45L131.39,3.88z"/>
	<path class="st0" d="M146.16,5.86v-3.8h1.05v9.36h-1.05v-4.6h-4.79v4.6h-1V2.06h1v3.8H146.16z"/>
	<path class="st0" d="M164.62,6.75c0.02,2.7-2.15,4.89-4.85,4.91s-4.89-2.15-4.91-4.85c-0.02-2.7,2.15-4.89,4.85-4.91
		c0.01,0,0.03,0,0.04,0c2.68-0.01,4.86,2.15,4.87,4.83C164.62,6.73,164.62,6.74,164.62,6.75z M155.91,6.75
		c0.02,2.12,1.75,3.83,3.87,3.81c2.12-0.02,3.83-1.75,3.81-3.87c-0.02-2.11-1.73-3.81-3.84-3.81c-2.12,0.02-3.83,1.74-3.84,3.86
		L155.91,6.75z"/>
	<path class="st0" d="M173.28,11.42h-1V2.06h1.53c0.81-0.08,1.62,0.09,2.32,0.5c0.68,0.49,1.08,1.29,1.06,2.13
		c0.01,0.77-0.32,1.5-0.9,2c-0.64,0.46-1.43,0.68-2.22,0.62h-0.75L173.28,11.42z M173.28,6.36H174c1.16,0,2.14-0.35,2.14-1.69
		c0-1.52-1.23-1.63-2.45-1.63h-0.38L173.28,6.36z"/>
	<path class="st0" d="M73,29.66c0.03,7.73-6.21,14.03-13.94,14.06C51.33,43.75,45.03,37.51,45,29.78
		c-0.03-7.73,6.21-14.03,13.94-14.06c0.02,0,0.04,0,0.06,0c7.7-0.03,13.97,6.18,14,13.88C73,29.62,73,29.64,73,29.66z M48,29.66
		c0.07,6.07,5.04,10.95,11.12,10.88c6.07-0.07,10.95-5.04,10.88-11.12c-0.07-6.03-4.97-10.88-11-10.88c-6.08,0.07-10.98,5-11,11.08
		V29.66z"/>
	<path class="st0" d="M80,40.28h12.92v2.78H77V16.18h3V40.28z"/>
	<path class="st0" d="M124.63,29.66c0.03,7.73-6.21,14.03-13.94,14.06s-14.03-6.21-14.06-13.94s6.21-14.03,13.94-14.06
		c0.02,0,0.04,0,0.06,0c7.7-0.03,13.97,6.2,14,13.9C124.63,29.63,124.63,29.64,124.63,29.66z M99.63,29.66
		c0.07,6.07,5.04,10.95,11.12,10.88c6.07-0.07,10.95-5.04,10.88-11.12c-0.07-6.03-4.97-10.88-11-10.88
		c-6.09,0.05-11.01,4.99-11.03,11.08L99.63,29.66z"/>
	<path class="st0" d="M129.58,15.05l21,22V16.19h3v28.08l-21-21.92v20.71h-3V15.05z"/>
	<path class="st0" d="M157.43,16.19h3.45l6.85,12l6.84-12H178l-8.8,15.32v11.55h-3V31.51L157.43,16.19z"/>
</g>
</svg>
