<?xml version="1.0" encoding="utf-8"?>
<!-- Generator: Adobe Illustrator 26.0.2, SVG Export Plug-In . SVG Version: 6.00 Build 0)  -->
<svg version="1.1" id="レイヤー_1" xmlns="http://www.w3.org/2000/svg" xmlns:xlink="http://www.w3.org/1999/xlink" x="0px"
	 y="0px" viewBox="0 0 35.7 38.7" style="enable-background:new 0 0 35.7 38.7;" xml:space="preserve">
<style type="text/css">
	.st0{fill:#FFFFFF;}
</style>
<g id="バック">
</g>
<g>
	<g id="文字">
		<g>
			<g>
				<circle class="st0" cx="11" cy="2.2" r="2.2"/>
				<circle class="st0" cx="3.4" cy="10.2" r="3.3"/>
			</g>
		</g>
	</g>
	<g>
		<path class="st0" d="M30.4,28.4c0,0,0.8,1.8,0.2,3.7c-0.7,1.9-1.1,2.4-1.7,2.6c-0.6,0.4-0.1,0.9,0.7,1.4c0.7,0.4,2.1,1.7,3.2,1.1
			c2.2-1.5,3.4-5.2,2.7-8c-0.7-2.8-1.6-2.5-2.9-2.2C31.2,27.5,30.3,27.5,30.4,28.4z"/>
		<path class="st0" d="M23,20.7c0,0,2.4,1.5,4.1,3.3c1.6,1.8,2.6,3.6,2.6,5.1c0.1,1.4-0.5,4.8-2.6,5.7c-2.1,0.9-6.8,1.1-8.1,1
			c-1.3,0,0.3-1.3,1.5-2.6c1.2-1.3,2.4-4.1,2.6-6.4C23.5,23.5,21.6,20.1,23,20.7z"/>
		<path class="st0" d="M8.2,18.3c0,0,3.1,3.3,2.3,6.4c-1.2,4.7-4.4,5.6-5.3,6.1c-0.8,0.5,1.8,2.2,3.2,2.7c1.3,0.5,1.1,1.5,1,2.3
			c-0.1,1.8,1.7,3.3,3.1,2.9c1.4-0.4,3.7-0.8,2.9-3.1c-0.8-2.3-0.9-2.9-0.2-2.6c0.7,0.4,2.4,2,3.9-2.2c1.5-4.2-0.1-5.5-2.4-4.9
			S16,24.6,17.1,24c1.1-0.6,3.2-1.3,4.3-2.8c1-1.4,1.6-2.2,1.2-4S19.7,15,17.7,15c-2,0-2.4,1.3-2.7,1.9c-0.3,0.5-0.5,0.9-1.9,0.7
			C11.6,17.5,7.5,17.3,8.2,18.3z"/>
		<g>
			<g>
				<path class="st0" d="M5.7,18.6c0,0-4.5,0.7-5.5,4.1s2.6,6.7,3.4,7.2c0.9,0.5,4.4-1.6,5.1-4.9C9.4,21.7,7.5,18.1,5.7,18.6z
					 M5,22.9c-0.8,0.1-1.5-0.4-1.6-1.2c-0.1-0.8,0.4-1.5,1.2-1.6s1.5,0.4,1.6,1.2C6.3,22.1,5.7,22.8,5,22.9z"/>
			</g>
		</g>
	</g>
</g>
</svg>
