<?xml version="1.0" encoding="utf-8"?>
<!-- Generator: Adobe Illustrator 26.0.2, SVG Export Plug-In . SVG Version: 6.00 Build 0)  -->
<svg version="1.1" id="レイヤー_1" xmlns="http://www.w3.org/2000/svg" xmlns:xlink="http://www.w3.org/1999/xlink" x="0px"
	 y="0px" viewBox="0 0 98.7 98.2" style="enable-background:new 0 0 98.7 98.2;" xml:space="preserve">
<style type="text/css">
	.st0{fill:#FFFFFF;}
</style>
<g id="バック">
</g>
<g id="文字">
	<g>
		<g>
			<circle class="st0" cx="27" cy="29.4" r="2.2"/>
			<circle class="st0" cx="28" cy="54.4" r="4.2"/>
			<circle class="st0" cx="21.4" cy="42" r="3.3"/>
			<circle class="st0" cx="83.3" cy="37.8" r="3.3"/>
			<g>
				<path class="st0" d="M71,25.4c0,0,0.6,1.9-0.3,3.7c-0.9,1.8-1.4,2.2-2,2.4c-0.6,0.3-0.2,0.9,0.5,1.5c0.6,0.5,1.9,2,3,1.5
					c2.4-1.2,4-4.7,3.7-7.6s-1.3-2.7-2.6-2.5C71.9,24.6,71,24.5,71,25.4z"/>
				<path class="st0" d="M64.6,16.9c0,0,2.2,1.8,3.7,3.8c1.4,2,2.1,3.9,1.9,5.4c-0.1,1.4-1.1,4.7-3.3,5.3c-2.2,0.6-6.9,0.2-8.2,0
					s0.5-1.2,1.8-2.4c1.3-1.1,2.9-3.8,3.4-6C64.7,19.7,63.3,16.1,64.6,16.9z"/>
				<path class="st0" d="M50.2,12.6c0,0,2.7,3.7,1.5,6.6c-1.8,4.5-5.1,5-6,5.4c-0.9,0.4,1.5,2.4,2.8,3.1c1.2,0.7,0.9,1.6,0.7,2.4
					c-0.3,1.8,1.3,3.5,2.7,3.3s3.8-0.3,3.3-2.7s-0.5-3,0.1-2.6c0.6,0.5,2.1,2.3,4.1-1.7s0.6-5.5-1.8-5.2s-0.5-1.3,0.7-1.8
					s3.3-0.9,4.6-2.2c1.2-1.3,1.9-2,1.7-3.8S62,10.8,60,10.5c-2-0.3-2.5,1-2.9,1.5c-0.4,0.5-0.6,0.8-2,0.5
					C53.7,12.3,49.6,11.6,50.2,12.6z"/>
				<g>
					<g>
						<path class="st0" d="M47.7,12.6c0,0-4.5,0.1-6,3.4s1.7,7,2.5,7.6s4.6-1,5.7-4.2S49.5,12.3,47.7,12.6z M46.4,16.8
							c-0.8,0-1.4-0.6-1.4-1.4s0.6-1.4,1.4-1.4s1.4,0.6,1.4,1.4S47.1,16.8,46.4,16.8z"/>
					</g>
				</g>
			</g>
			<g>
				<path class="st0" d="M72.9,85.7c-22,9.4-47.7-1.2-57.1-23.2c-9.4-22,0.3-47.7,22.6-57.3c6-2.6,12.2-3.7,18.3-3.5
					c0.7,0,0.8-1,0.1-1.1C48-0.8,38.7,0.2,30,4C5.2,14.6-6.8,43.7,3.9,68.6c10.7,25.1,39.8,36.2,64.7,25.5
					C82.3,88.3,92.1,77,96.3,63.8c0.2-0.7-0.8-1.1-1.1-0.4C91,73.1,83.3,81.2,72.9,85.7z"/>
				<g>
					<path class="st0" d="M53.8,60c0,0-1.2-2.8-1.1-4.4c0.1-1.6,1.8-6.9-0.7-8.3c-3.8-2.2-3.2,2.2-3.5,4.7s0.9,5.5,2.3,6.8
						s-6.2-2.9-5.1,0c0.6,1.4-2,0.5-4.9-0.1c-2.9-0.5-4.5,2.6-2.2,4.4c2.3,1.8,4.1,1.4,8,1.6c3.7,0.2,3.1-1.4,7.2-0.7
						C57.9,64.7,55,64.4,53.8,60z"/>
					<path class="st0" d="M64.1,60.4c0,0-0.1,2.6-1.9,2.4c-1.7-0.2-6.1-1.7-8.8-4c-2.7-2.2-6.3-5.9-7-9.4c-0.7-3.5-2.6-5.1-5.1-3.2
						s-0.2,6.4,1.6,9.2s6.3,6.4,9.2,7.8c2.8,1.3,10.6,3.2,9.9,5.8s-1.1,6.5,1.2,3.2C65.4,68.9,65.6,57.3,64.1,60.4"/>
					<path class="st0" d="M68.5,55.8c0,0-0.3-3.2,1.7-5.8c2-2.6,4.1-6.1,1.3-7.3c-2.8-1.2-3.9,2-4.9,4.1c-1,2.1-1.5,4.2-1.4,5.9
						S68.6,61.5,68.5,55.8"/>
					<path class="st0" d="M63.9,61.2c0,0,0.2-2.2-4-2.8c-3.1-0.4-6.4-2.7-4.4-4.8c1.9-2.1,4.4-0.3,6.2,0.8c1.8,1.1,3.2,2.5,3.9,3.7
						c0.7,1.2,1,8-1.5,3.7"/>
					<path class="st0" d="M54.4,75.4c0,0-2-0.9-4,2.7c-1.5,2.7-4.7,5-6,2.4c-1.3-2.5,1.2-4.1,2.9-5.4c1.7-1.3,3.4-2.1,4.8-2.3
						s7.8,1.8,3,2.7"/>
					<path class="st0" d="M82,67c0,0,1.3-2.9,4.3-4.2c3-1.3,6.6-3.3,4.7-5.7c-1.9-2.3-4.4-0.2-6.3,1.2s-3.3,3-4.1,4.4
						C79.9,64.2,79.3,72,82,67"/>
					<path class="st0" d="M75.9,67.4c0,0,2.5-3.4-0.3-6c-2.5-2.3-4.9-5.8-2.1-7.2c2.8-1.4,4.3,1.7,5.5,3.7c1.2,2,2,4.1,2.1,5.7
						c0.1,1.6-2.6,9-3.1,3.3"/>
					<path class="st0" d="M54.2,89.1c4,0,8.8-1.1,7.9-4.4s-1.1-4.4-2.7-5.9s-1.9-2-7.2-2.3c-5.2-0.2-15.8-1.3-15.9-5.8
						s7.2-1.8,9.2-1.2c2,0.6,2.5,1.3,5.5,1.5c3,0.1,5.2,0.6,8,0.3S64,65.7,64,62c0-3.6,0.6-8-1.7-10c-2.3-2-8-6.2-6.2-9.9
						c1.8-3.7,9.4,4,10.6,6.1s2.8,6,2.4,9.3c-0.4,3.3-1.8,10.5-0.9,11.6s0.6,3.5,3.4,2.4c2.9-1.2,7.1-7.9,7.4-10.2
						c0.3-2.3,0.5-7.8,1-9c0.5-1.1,5.8-4.3,5.4,2.9S85.2,65.7,82,68.8s-9,8.5-11.3,9.2c-2.3,0.7-2,3.8-1.3,4.9s3.5,2.6,9.3-0.4
						c1.4-0.8,2.3,0.2,1.2,2.1C77.5,89.2,42.5,97.5,54.2,89.1z"/>
				</g>
			</g>
			<g>
				<path class="st0" d="M66.9,7.3c-1.2-0.5-1.5-1.7-1.1-2.7c0.4-1,1.5-1.7,2.8-1.2c0.8,0.3,1.2,1,1,1.3c-0.1,0.2-0.3,0.2-0.4,0.2
					c-0.1,0-0.2-0.1-0.2-0.2c-0.1-0.3-0.4-0.6-0.7-0.7c-0.8-0.3-1.6,0.2-1.9,0.9c-0.2,0.4-0.3,1.5,0.7,1.9c0.4,0.2,0.8,0.2,1.1,0
					c0.1-0.1,0.2-0.1,0.3,0c0.2,0.1,0.3,0.3,0.2,0.5C68.6,7.4,67.8,7.7,66.9,7.3z"/>
				<path class="st0" d="M69.8,6.3c0.6-1.1,1.8-1.4,2.8-0.9c1.1,0.6,1.4,1.8,0.8,2.8c-0.6,1.1-1.8,1.4-2.8,0.9
					C69.6,8.6,69.2,7.4,69.8,6.3z M73,8c0.4-0.8,0.2-1.7-0.6-2.1c-0.7-0.4-1.6-0.1-2,0.7C70,7.4,70.3,8.3,71,8.7S72.5,8.8,73,8z"/>
				<path class="st0" d="M75.2,9.6c-0.1,0-0.2-0.1-0.2-0.2s-0.2-0.1-0.2,0c-0.2,0.3-0.7,1.1-0.8,1.2c-0.1,0.2-0.3,0.2-0.4,0.1
					c-0.1-0.1-0.2-0.2-0.1-0.4c0,0,0,0,0,0c0.3-0.4,0.7-0.9,1-1.4c0.7-1,0.7-1,0.8-1.2c0.4-0.6,0.9-0.2,1.3,0
					c0.1,0.1,0.2,0.1,0.3,0.2c0.7,0.5,0.7,1.2,0.4,1.6c-0.3,0.4-0.8,0.6-1.2,0.4c0,0-0.1,0-0.1,0c0,0,0,0.1,0,0.1
					c0.1,0.4,0,0.8,0,1.1c0,0.3,0,0.4,0.2,0.5s0.1,0.3,0.1,0.4c-0.1,0.1-0.3,0.2-0.5,0.1c-0.1-0.1-0.4-0.3-0.4-1.1
					C75.3,10.4,75.4,9.7,75.2,9.6z M76.6,9.2c0.2-0.2,0.1-0.6-0.2-0.9c-0.1,0-0.1-0.1-0.2-0.1c-0.2-0.2-0.4-0.3-0.6-0.1
					c-0.1,0.1-0.3,0.4-0.5,0.7c-0.1,0.1,0,0.1,0.3,0.3c0.1,0.1,0.2,0.1,0.3,0.2C76.1,9.5,76.4,9.4,76.6,9.2z"/>
				<path class="st0" d="M78.5,14.4c-0.1-0.1-0.2-0.2-0.1-0.4c0.1-0.2,0.2-0.6,0.4-1.1c0,0,0-0.1,0-0.1c-0.1-0.1-0.2-0.2-0.4-0.4
					c-0.2-0.2-0.5-0.4-0.6-0.5c0,0-0.1,0-0.1,0c-0.4,0.2-0.7,0.5-0.9,0.6c-0.1,0.1-0.3,0.1-0.4,0c-0.1-0.1-0.2-0.3-0.1-0.4
					c0.1-0.1,0.1-0.1,3.1-2c0.2-0.1,0.4-0.1,0.6,0c0.2,0.1,0.2,0.4,0.2,0.6c-0.3,1-1,2.9-1.1,3.3c0,0.1,0,0.1-0.1,0.1
					C78.8,14.5,78.6,14.5,78.5,14.4z M79,12.3c0.2-0.5,0.4-1,0.5-1.3c0-0.1,0.1-0.2,0-0.2c0,0-0.1,0-0.2,0.1
					c-0.2,0.1-1.1,0.7-1.1,0.7c0,0,0,0,0,0.1c0.1,0.1,0.2,0.2,0.4,0.3C78.7,12.1,78.9,12.2,79,12.3C79,12.3,79,12.3,79,12.3
					C79,12.3,79,12.3,79,12.3z"/>
				<path class="st0" d="M81.8,12.2c0.1-0.2,0.3-0.1,0.4,0s0.2,0.3,0,0.4c0,0,0,0,0,0c-0.2,0.2-1,1.1-1.6,1.6
					c-0.2,0.2-0.4,0.4-0.4,0.5c-0.2,0.2-0.1,0.3,0.5,0.8c0.2,0.2,0.5,0.4,0.6,0.5c0,0,0,0,0,0c0.1,0.1,0.1,0.3,0,0.4
					c-0.1,0.1-0.3,0.1-0.5,0c-0.1,0-0.3-0.3-0.5-0.5c-0.2-0.2-0.5-0.4-0.5-0.5c-0.3-0.4-0.4-0.7-0.1-1.1c0.1-0.1,0.2-0.2,0.3-0.4
					c0.5-0.5,1.3-1.4,1.7-1.8C81.7,12.3,81.7,12.2,81.8,12.2L81.8,12.2z"/>
				<path class="st0" d="M83.3,19.2c-0.6-0.7-0.5-1.3-0.3-1.5c0.1-0.1,0.3-0.1,0.4,0c0.1,0.1,0.1,0.2,0.1,0.3
					c-0.1,0.2,0,0.5,0.2,0.8c0.4,0.5,0.8,0.3,0.9,0.2c0.2-0.1,0.2-0.4,0.2-0.7c-0.1-0.3-0.1-0.6-0.2-0.9c-0.2-0.5,0-0.9,0.3-1.2
					c0.4-0.4,1.1-0.4,1.6,0.2c0.5,0.6,0.5,1.1,0.3,1.3c-0.1,0.1-0.3,0.1-0.4,0c-0.1-0.1-0.1-0.2-0.1-0.3c0-0.1,0-0.4-0.2-0.6
					c-0.2-0.3-0.5-0.3-0.7-0.1c-0.1,0.1-0.2,0.3-0.1,0.6c0.1,0.2,0.2,0.6,0.2,0.9c0.1,0.6,0,1-0.3,1.3
					C84.7,19.9,83.9,19.9,83.3,19.2z"/>
				<path class="st0" d="M86.9,23.3c-0.1,0.1-0.3,0-0.4-0.1c-0.1-0.1-0.1-0.3,0-0.4c0,0,0,0,0,0c0.2-0.1,0.4-0.3,0.6-0.4
					c0.3-0.2,0.5-0.4,0.6-0.5c0.1,0,0.1-0.1,0-0.1c-0.1-0.2-0.3-0.4-0.5-0.7c-0.2-0.3-0.5-0.7-0.6-0.8c0,0-0.1-0.1-0.1,0
					c-0.1,0.1-0.3,0.2-0.6,0.5c-0.2,0.1-0.4,0.3-0.6,0.4c0,0,0,0,0,0c-0.1,0.1-0.3,0-0.4-0.1c-0.1-0.1-0.1-0.3,0-0.4l0,0
					c0.5-0.3,1.1-0.8,1.6-1.2c0.5-0.4,1-0.7,1.3-1c0.1-0.1,0.3-0.1,0.4,0.1c0.1,0.1,0.1,0.3,0,0.4c0,0,0,0,0,0
					c-0.2,0.1-0.4,0.2-0.5,0.4c-0.2,0.2-0.4,0.3-0.5,0.4c-0.1,0-0.1,0.1,0,0.1c0.1,0.1,0.3,0.4,0.5,0.7c0.2,0.3,0.5,0.6,0.6,0.8
					c0,0,0.1,0,0.1,0c0.1-0.1,0.3-0.2,0.6-0.4c0.2-0.1,0.3-0.2,0.5-0.4c0.1-0.1,0.3-0.1,0.4,0.1c0.1,0.1,0.1,0.3,0,0.4c0,0,0,0,0,0
					c-0.3,0.2-0.8,0.6-1.3,0.9C87.9,22.5,87.3,23,86.9,23.3L86.9,23.3z"/>
				<path class="st0" d="M88.9,23c1.1-0.6,2.3-0.3,2.9,0.7c0.6,1,0.3,2.3-0.7,2.9c-1.1,0.6-2.3,0.3-2.9-0.7S87.8,23.6,88.9,23z
					 M90.7,26c0.8-0.5,1-1.4,0.6-2c-0.4-0.7-1.3-0.9-2.1-0.5c-0.8,0.5-1,1.4-0.6,2C89.1,26.3,89.9,26.5,90.7,26z"/>
				<path class="st0" d="M89.8,28.6c-0.1-0.1-0.1-0.3,0.1-0.4c0,0,0,0,0,0c0.4-0.2,0.8-0.4,1.2-0.6c0.5-0.2,1-0.5,1.3-0.6
					c0.6-0.3,0.9-0.4,1.4,0.5c0.1,0.1,0.1,0.2,0.1,0.3c0.3,0.8,0,1.4-0.6,1.7c-0.5,0.3-1.3,0.2-1.7-0.5c-0.1-0.1-0.1-0.2-0.2-0.3
					c-0.1-0.1-0.1-0.2-0.1-0.4c0,0,0,0,0,0c0,0,0,0-0.1,0c-0.3,0.1-0.6,0.3-1,0.5c-0.1,0-0.1,0.1-0.2,0.1
					C90,28.9,89.8,28.8,89.8,28.6z M93.3,27.8c-0.2-0.4-0.3-0.4-0.7-0.2c-0.2,0.1-0.4,0.2-0.5,0.3c0,0-0.1,0-0.1,0
					c-0.1,0-0.1,0.2,0.1,0.5c0,0.1,0.1,0.2,0.2,0.3c0.2,0.4,0.7,0.4,1,0.3c0.3-0.1,0.5-0.5,0.3-0.9C93.4,28,93.4,27.9,93.3,27.8z"/>
				<path class="st0" d="M92.2,34.7c-0.4-1.3,0.3-2.3,1.3-2.6c1-0.4,2.3,0,2.7,1.3c0.3,0.8,0,1.5-0.3,1.6c-0.2,0.1-0.4,0-0.4-0.2
					c0-0.1,0-0.2,0.1-0.3c0.2-0.3,0.2-0.7,0.1-1c-0.3-0.9-1.2-1.1-1.9-0.8c-0.4,0.2-1.3,0.7-0.9,1.8c0.1,0.4,0.4,0.7,0.8,0.8
					c0.1,0,0.2,0.1,0.2,0.2c0.1,0.2,0,0.4-0.2,0.5C93.3,36.1,92.6,35.7,92.2,34.7z"/>
				<path class="st0" d="M95,36.3c1.2-0.3,2.3,0.4,2.5,1.6c0.3,1.2-0.4,2.2-1.6,2.5c-1.2,0.3-2.3-0.4-2.5-1.6
					C93.1,37.6,93.7,36.5,95,36.3z M95.8,39.7c0.9-0.2,1.4-1,1.2-1.8c-0.2-0.8-0.9-1.3-1.8-1.1c-0.9,0.2-1.4,1-1.2,1.8
					S94.9,39.9,95.8,39.7z"/>
				<path class="st0" d="M97.8,41.1c0.2,0,0.3,0.1,0.4,0.3s-0.1,0.3-0.3,0.3c0,0,0,0,0,0c-0.4,0-1.5,0.2-2.2,0.3
					c-0.3,0-0.6,0.1-0.6,0.1c-0.3,0.1-0.2,0.2-0.1,0.9c0,0.3,0.1,0.7,0.1,0.8c0,0,0,0,0,0c0,0.2-0.1,0.3-0.2,0.3
					c-0.1,0-0.3-0.1-0.4-0.3c0-0.1-0.1-0.4-0.1-0.7s-0.1-0.6-0.1-0.7c0-0.5,0.1-0.8,0.6-0.9c0.1,0,0.3,0,0.5-0.1
					c0.7-0.1,1.9-0.2,2.4-0.3C97.7,41.1,97.7,41.1,97.8,41.1L97.8,41.1z"/>
				<path class="st0" d="M96.5,44.5c1.2-0.1,2.2,0.8,2.2,2c0.1,1.2-0.8,2.1-2,2.2c-1.3,0.1-2.2-0.8-2.2-2
					C94.4,45.5,95.2,44.5,96.5,44.5z M96.7,48c0.9,0,1.5-0.7,1.5-1.5c0-0.8-0.7-1.4-1.6-1.4c-0.9,0-1.5,0.7-1.5,1.5
					C95.1,47.5,95.7,48.1,96.7,48z"/>
				<path class="st0" d="M94.9,49.6c0.6,0,1.2,0.1,1.8,0.1c0.5,0,1.1,0,1.5,0.1c0,0,0,0,0,0c0.4,0,0.5,0.2,0.5,0.5
					c0,0.2-0.1,0.4-0.3,0.5c-0.6,0.3-2.3,1.1-2.9,1.5c-0.1,0-0.1,0.1-0.1,0.1c0,0,0,0,0.2,0c0.5,0,2.2,0.1,2.7,0.1
					c0.2,0,0.3,0.2,0.3,0.3c0,0.2-0.1,0.3-0.3,0.3c0,0,0,0,0,0c-0.4,0-0.9-0.1-1.4-0.1c-0.7,0-1.4-0.1-1.9-0.1c0,0,0,0,0,0
					c-0.3,0-0.5-0.3-0.5-0.5c0-0.2,0.1-0.3,0.3-0.5c0.6-0.3,2.5-1.3,3-1.5c0,0,0.1,0,0.1-0.1c0,0-0.1,0-0.3,0
					c-0.6,0-2.2-0.1-2.8-0.1c0,0,0,0,0,0c-0.2,0-0.2-0.2-0.2-0.3S94.7,49.6,94.9,49.6L94.9,49.6z"/>
				<path class="st0" d="M95.9,55.1c0.1,0,0.1,0,0.2,0c0.6-0.3,1.5-0.8,1.9-1c0.1,0,0.1,0,0.2,0c0.2,0,0.3,0.2,0.3,0.4
					c0,0.1-0.1,0.2-0.2,0.2c-0.4,0.2-1,0.5-1.6,0.8c0,0-0.1,0-0.1,0.1c0,0,0,0,0,0.1c0.4,0.4,1,0.9,1.4,1.2c0.1,0.1,0.1,0.2,0.1,0.3
					c0,0.2-0.2,0.3-0.4,0.3c-0.1,0-0.1,0-0.1-0.1c-0.4-0.3-1.2-1-1.6-1.4c-0.1-0.1-0.1-0.1-0.2-0.1c-0.3,0-0.9-0.1-1.3-0.2
					c-0.2,0-0.3-0.2-0.3-0.4c0-0.2,0.1-0.3,0.4-0.3L95.9,55.1z"/>
			</g>
		</g>
	</g>
</g>
</svg>
